<?xml version="1.0" encoding="utf-8" standalone="no"?>
<!DOCTYPE svg PUBLIC "-//W3C//DTD SVG 1.1//EN"
  "http://www.w3.org/Graphics/SVG/1.1/DTD/svg11.dtd">
<!-- Created with matplotlib (https://matplotlib.org/) -->
<svg height="345.6pt" version="1.1" viewBox="0 0 460.8 345.6" width="460.8pt" xmlns="http://www.w3.org/2000/svg" xmlns:xlink="http://www.w3.org/1999/xlink">
 <defs>
  <style type="text/css">
*{stroke-linecap:butt;stroke-linejoin:round;}
  </style>
 </defs>
 <g id="figure_1">
  <g id="patch_1">
   <path d="M 0 345.6 
L 460.8 345.6 
L 460.8 0 
L 0 0 
z
" style="fill:#ffffff;"/>
  </g>
  <g id="axes_1">
   <g id="patch_2">
    <path d="M 127.051565 261.739811 
Q 153.3231 230.417362 180.313115 198.238299 
" style="fill:none;stroke:#000000;stroke-linecap:round;"/>
    <path d="M 128.34378 261.179364 
L 127.051565 261.739811 
L 127.378536 260.369771 
" style="fill:none;stroke:#000000;stroke-linecap:round;"/>
   </g>
   <g id="text_1">
    <g id="patch_3">
     <path d="M 106.741266 276.619739 
L 132.458734 276.619739 
Q 133.403596 276.619739 133.403596 275.674877 
L 133.403596 265.573123 
Q 133.403596 264.628261 132.458734 264.628261 
L 106.741266 264.628261 
Q 105.796404 264.628261 105.796404 265.573123 
L 105.796404 275.674877 
Q 105.796404 276.619739 106.741266 276.619739 
z
" style="fill:#eca06a;stroke:#000000;stroke-linejoin:miter;"/>
    </g>
    <!-- gini = 0.32 -->
    <defs>
     <path d="M 45.40625 27.984375 
Q 45.40625 37.75 41.375 43.109375 
Q 37.359375 48.484375 30.078125 48.484375 
Q 22.859375 48.484375 18.828125 43.109375 
Q 14.796875 37.75 14.796875 27.984375 
Q 14.796875 18.265625 18.828125 12.890625 
Q 22.859375 7.515625 30.078125 7.515625 
Q 37.359375 7.515625 41.375 12.890625 
Q 45.40625 18.265625 45.40625 27.984375 
z
M 54.390625 6.78125 
Q 54.390625 -7.171875 48.1875 -13.984375 
Q 42 -20.796875 29.203125 -20.796875 
Q 24.46875 -20.796875 20.265625 -20.09375 
Q 16.0625 -19.390625 12.109375 -17.921875 
L 12.109375 -9.1875 
Q 16.0625 -11.328125 19.921875 -12.34375 
Q 23.78125 -13.375 27.78125 -13.375 
Q 36.625 -13.375 41.015625 -8.765625 
Q 45.40625 -4.15625 45.40625 5.171875 
L 45.40625 9.625 
Q 42.625 4.78125 38.28125 2.390625 
Q 33.9375 0 27.875 0 
Q 17.828125 0 11.671875 7.65625 
Q 5.515625 15.328125 5.515625 27.984375 
Q 5.515625 40.671875 11.671875 48.328125 
Q 17.828125 56 27.875 56 
Q 33.9375 56 38.28125 53.609375 
Q 42.625 51.21875 45.40625 46.390625 
L 45.40625 54.6875 
L 54.390625 54.6875 
z
" id="DejaVuSans-103"/>
     <path d="M 9.421875 54.6875 
L 18.40625 54.6875 
L 18.40625 0 
L 9.421875 0 
z
M 9.421875 75.984375 
L 18.40625 75.984375 
L 18.40625 64.59375 
L 9.421875 64.59375 
z
" id="DejaVuSans-105"/>
     <path d="M 54.890625 33.015625 
L 54.890625 0 
L 45.90625 0 
L 45.90625 32.71875 
Q 45.90625 40.484375 42.875 44.328125 
Q 39.84375 48.1875 33.796875 48.1875 
Q 26.515625 48.1875 22.3125 43.546875 
Q 18.109375 38.921875 18.109375 30.90625 
L 18.109375 0 
L 9.078125 0 
L 9.078125 54.6875 
L 18.109375 54.6875 
L 18.109375 46.1875 
Q 21.34375 51.125 25.703125 53.5625 
Q 30.078125 56 35.796875 56 
Q 45.21875 56 50.046875 50.171875 
Q 54.890625 44.34375 54.890625 33.015625 
z
" id="DejaVuSans-110"/>
     <path id="DejaVuSans-32"/>
     <path d="M 10.59375 45.40625 
L 73.1875 45.40625 
L 73.1875 37.203125 
L 10.59375 37.203125 
z
M 10.59375 25.484375 
L 73.1875 25.484375 
L 73.1875 17.1875 
L 10.59375 17.1875 
z
" id="DejaVuSans-61"/>
     <path d="M 31.78125 66.40625 
Q 24.171875 66.40625 20.328125 58.90625 
Q 16.5 51.421875 16.5 36.375 
Q 16.5 21.390625 20.328125 13.890625 
Q 24.171875 6.390625 31.78125 6.390625 
Q 39.453125 6.390625 43.28125 13.890625 
Q 47.125 21.390625 47.125 36.375 
Q 47.125 51.421875 43.28125 58.90625 
Q 39.453125 66.40625 31.78125 66.40625 
z
M 31.78125 74.21875 
Q 44.046875 74.21875 50.515625 64.515625 
Q 56.984375 54.828125 56.984375 36.375 
Q 56.984375 17.96875 50.515625 8.265625 
Q 44.046875 -1.421875 31.78125 -1.421875 
Q 19.53125 -1.421875 13.0625 8.265625 
Q 6.59375 17.96875 6.59375 36.375 
Q 6.59375 54.828125 13.0625 64.515625 
Q 19.53125 74.21875 31.78125 74.21875 
z
" id="DejaVuSans-48"/>
     <path d="M 10.6875 12.40625 
L 21 12.40625 
L 21 0 
L 10.6875 0 
z
" id="DejaVuSans-46"/>
     <path d="M 40.578125 39.3125 
Q 47.65625 37.796875 51.625 33 
Q 55.609375 28.21875 55.609375 21.1875 
Q 55.609375 10.40625 48.1875 4.484375 
Q 40.765625 -1.421875 27.09375 -1.421875 
Q 22.515625 -1.421875 17.65625 -0.515625 
Q 12.796875 0.390625 7.625 2.203125 
L 7.625 11.71875 
Q 11.71875 9.328125 16.59375 8.109375 
Q 21.484375 6.890625 26.8125 6.890625 
Q 36.078125 6.890625 40.9375 10.546875 
Q 45.796875 14.203125 45.796875 21.1875 
Q 45.796875 27.640625 41.28125 31.265625 
Q 36.765625 34.90625 28.71875 34.90625 
L 20.21875 34.90625 
L 20.21875 43.015625 
L 29.109375 43.015625 
Q 36.375 43.015625 40.234375 45.921875 
Q 44.09375 48.828125 44.09375 54.296875 
Q 44.09375 59.90625 40.109375 62.90625 
Q 36.140625 65.921875 28.71875 65.921875 
Q 24.65625 65.921875 20.015625 65.03125 
Q 15.375 64.15625 9.8125 62.3125 
L 9.8125 71.09375 
Q 15.4375 72.65625 20.34375 73.4375 
Q 25.25 74.21875 29.59375 74.21875 
Q 40.828125 74.21875 47.359375 69.109375 
Q 53.90625 64.015625 53.90625 55.328125 
Q 53.90625 49.265625 50.4375 45.09375 
Q 46.96875 40.921875 40.578125 39.3125 
z
" id="DejaVuSans-51"/>
     <path d="M 19.1875 8.296875 
L 53.609375 8.296875 
L 53.609375 0 
L 7.328125 0 
L 7.328125 8.296875 
Q 12.9375 14.109375 22.625 23.890625 
Q 32.328125 33.6875 34.8125 36.53125 
Q 39.546875 41.84375 41.421875 45.53125 
Q 43.3125 49.21875 43.3125 52.78125 
Q 43.3125 58.59375 39.234375 62.25 
Q 35.15625 65.921875 28.609375 65.921875 
Q 23.96875 65.921875 18.8125 64.3125 
Q 13.671875 62.703125 7.8125 59.421875 
L 7.8125 69.390625 
Q 13.765625 71.78125 18.9375 73 
Q 24.125 74.21875 28.421875 74.21875 
Q 39.75 74.21875 46.484375 68.546875 
Q 53.21875 62.890625 53.21875 53.421875 
Q 53.21875 48.921875 51.53125 44.890625 
Q 49.859375 40.875 45.40625 35.40625 
Q 44.1875 33.984375 37.640625 27.21875 
Q 31.109375 20.453125 19.1875 8.296875 
z
" id="DejaVuSans-50"/>
    </defs>
    <g transform="translate(110.900381 267.966281)scale(0.031495 -0.031495)">
     <use xlink:href="#DejaVuSans-103"/>
     <use x="63.476562" xlink:href="#DejaVuSans-105"/>
     <use x="91.259766" xlink:href="#DejaVuSans-110"/>
     <use x="154.638672" xlink:href="#DejaVuSans-105"/>
     <use x="182.421875" xlink:href="#DejaVuSans-32"/>
     <use x="214.208984" xlink:href="#DejaVuSans-61"/>
     <use x="297.998047" xlink:href="#DejaVuSans-32"/>
     <use x="329.785156" xlink:href="#DejaVuSans-48"/>
     <use x="393.408203" xlink:href="#DejaVuSans-46"/>
     <use x="425.195312" xlink:href="#DejaVuSans-51"/>
     <use x="488.818359" xlink:href="#DejaVuSans-50"/>
    </g>
    <!-- samples = 10 -->
    <defs>
     <path d="M 44.28125 53.078125 
L 44.28125 44.578125 
Q 40.484375 46.53125 36.375 47.5 
Q 32.28125 48.484375 27.875 48.484375 
Q 21.1875 48.484375 17.84375 46.4375 
Q 14.5 44.390625 14.5 40.28125 
Q 14.5 37.15625 16.890625 35.375 
Q 19.28125 33.59375 26.515625 31.984375 
L 29.59375 31.296875 
Q 39.15625 29.25 43.1875 25.515625 
Q 47.21875 21.78125 47.21875 15.09375 
Q 47.21875 7.46875 41.1875 3.015625 
Q 35.15625 -1.421875 24.609375 -1.421875 
Q 20.21875 -1.421875 15.453125 -0.5625 
Q 10.6875 0.296875 5.421875 2 
L 5.421875 11.28125 
Q 10.40625 8.6875 15.234375 7.390625 
Q 20.0625 6.109375 24.8125 6.109375 
Q 31.15625 6.109375 34.5625 8.28125 
Q 37.984375 10.453125 37.984375 14.40625 
Q 37.984375 18.0625 35.515625 20.015625 
Q 33.0625 21.96875 24.703125 23.78125 
L 21.578125 24.515625 
Q 13.234375 26.265625 9.515625 29.90625 
Q 5.8125 33.546875 5.8125 39.890625 
Q 5.8125 47.609375 11.28125 51.796875 
Q 16.75 56 26.8125 56 
Q 31.78125 56 36.171875 55.265625 
Q 40.578125 54.546875 44.28125 53.078125 
z
" id="DejaVuSans-115"/>
     <path d="M 34.28125 27.484375 
Q 23.390625 27.484375 19.1875 25 
Q 14.984375 22.515625 14.984375 16.5 
Q 14.984375 11.71875 18.140625 8.90625 
Q 21.296875 6.109375 26.703125 6.109375 
Q 34.1875 6.109375 38.703125 11.40625 
Q 43.21875 16.703125 43.21875 25.484375 
L 43.21875 27.484375 
z
M 52.203125 31.203125 
L 52.203125 0 
L 43.21875 0 
L 43.21875 8.296875 
Q 40.140625 3.328125 35.546875 0.953125 
Q 30.953125 -1.421875 24.3125 -1.421875 
Q 15.921875 -1.421875 10.953125 3.296875 
Q 6 8.015625 6 15.921875 
Q 6 25.140625 12.171875 29.828125 
Q 18.359375 34.515625 30.609375 34.515625 
L 43.21875 34.515625 
L 43.21875 35.40625 
Q 43.21875 41.609375 39.140625 45 
Q 35.0625 48.390625 27.6875 48.390625 
Q 23 48.390625 18.546875 47.265625 
Q 14.109375 46.140625 10.015625 43.890625 
L 10.015625 52.203125 
Q 14.9375 54.109375 19.578125 55.046875 
Q 24.21875 56 28.609375 56 
Q 40.484375 56 46.34375 49.84375 
Q 52.203125 43.703125 52.203125 31.203125 
z
" id="DejaVuSans-97"/>
     <path d="M 52 44.1875 
Q 55.375 50.25 60.0625 53.125 
Q 64.75 56 71.09375 56 
Q 79.640625 56 84.28125 50.015625 
Q 88.921875 44.046875 88.921875 33.015625 
L 88.921875 0 
L 79.890625 0 
L 79.890625 32.71875 
Q 79.890625 40.578125 77.09375 44.375 
Q 74.3125 48.1875 68.609375 48.1875 
Q 61.625 48.1875 57.5625 43.546875 
Q 53.515625 38.921875 53.515625 30.90625 
L 53.515625 0 
L 44.484375 0 
L 44.484375 32.71875 
Q 44.484375 40.625 41.703125 44.40625 
Q 38.921875 48.1875 33.109375 48.1875 
Q 26.21875 48.1875 22.15625 43.53125 
Q 18.109375 38.875 18.109375 30.90625 
L 18.109375 0 
L 9.078125 0 
L 9.078125 54.6875 
L 18.109375 54.6875 
L 18.109375 46.1875 
Q 21.1875 51.21875 25.484375 53.609375 
Q 29.78125 56 35.6875 56 
Q 41.65625 56 45.828125 52.96875 
Q 50 49.953125 52 44.1875 
z
" id="DejaVuSans-109"/>
     <path d="M 18.109375 8.203125 
L 18.109375 -20.796875 
L 9.078125 -20.796875 
L 9.078125 54.6875 
L 18.109375 54.6875 
L 18.109375 46.390625 
Q 20.953125 51.265625 25.265625 53.625 
Q 29.59375 56 35.59375 56 
Q 45.5625 56 51.78125 48.09375 
Q 58.015625 40.1875 58.015625 27.296875 
Q 58.015625 14.40625 51.78125 6.484375 
Q 45.5625 -1.421875 35.59375 -1.421875 
Q 29.59375 -1.421875 25.265625 0.953125 
Q 20.953125 3.328125 18.109375 8.203125 
z
M 48.6875 27.296875 
Q 48.6875 37.203125 44.609375 42.84375 
Q 40.53125 48.484375 33.40625 48.484375 
Q 26.265625 48.484375 22.1875 42.84375 
Q 18.109375 37.203125 18.109375 27.296875 
Q 18.109375 17.390625 22.1875 11.75 
Q 26.265625 6.109375 33.40625 6.109375 
Q 40.53125 6.109375 44.609375 11.75 
Q 48.6875 17.390625 48.6875 27.296875 
z
" id="DejaVuSans-112"/>
     <path d="M 9.421875 75.984375 
L 18.40625 75.984375 
L 18.40625 0 
L 9.421875 0 
z
" id="DejaVuSans-108"/>
     <path d="M 56.203125 29.59375 
L 56.203125 25.203125 
L 14.890625 25.203125 
Q 15.484375 15.921875 20.484375 11.0625 
Q 25.484375 6.203125 34.421875 6.203125 
Q 39.59375 6.203125 44.453125 7.46875 
Q 49.3125 8.734375 54.109375 11.28125 
L 54.109375 2.78125 
Q 49.265625 0.734375 44.1875 -0.34375 
Q 39.109375 -1.421875 33.890625 -1.421875 
Q 20.796875 -1.421875 13.15625 6.1875 
Q 5.515625 13.8125 5.515625 26.8125 
Q 5.515625 40.234375 12.765625 48.109375 
Q 20.015625 56 32.328125 56 
Q 43.359375 56 49.78125 48.890625 
Q 56.203125 41.796875 56.203125 29.59375 
z
M 47.21875 32.234375 
Q 47.125 39.59375 43.09375 43.984375 
Q 39.0625 48.390625 32.421875 48.390625 
Q 24.90625 48.390625 20.390625 44.140625 
Q 15.875 39.890625 15.1875 32.171875 
z
" id="DejaVuSans-101"/>
     <path d="M 12.40625 8.296875 
L 28.515625 8.296875 
L 28.515625 63.921875 
L 10.984375 60.40625 
L 10.984375 69.390625 
L 28.421875 72.90625 
L 38.28125 72.90625 
L 38.28125 8.296875 
L 54.390625 8.296875 
L 54.390625 0 
L 12.40625 0 
z
" id="DejaVuSans-49"/>
    </defs>
    <g transform="translate(108.729659 271.493076)scale(0.031495 -0.031495)">
     <use xlink:href="#DejaVuSans-115"/>
     <use x="52.099609" xlink:href="#DejaVuSans-97"/>
     <use x="113.378906" xlink:href="#DejaVuSans-109"/>
     <use x="210.791016" xlink:href="#DejaVuSans-112"/>
     <use x="274.267578" xlink:href="#DejaVuSans-108"/>
     <use x="302.050781" xlink:href="#DejaVuSans-101"/>
     <use x="363.574219" xlink:href="#DejaVuSans-115"/>
     <use x="415.673828" xlink:href="#DejaVuSans-32"/>
     <use x="447.460938" xlink:href="#DejaVuSans-61"/>
     <use x="531.25" xlink:href="#DejaVuSans-32"/>
     <use x="563.037109" xlink:href="#DejaVuSans-49"/>
     <use x="626.660156" xlink:href="#DejaVuSans-48"/>
    </g>
    <!-- value = [8, 2, 0] -->
    <defs>
     <path d="M 2.984375 54.6875 
L 12.5 54.6875 
L 29.59375 8.796875 
L 46.6875 54.6875 
L 56.203125 54.6875 
L 35.6875 0 
L 23.484375 0 
z
" id="DejaVuSans-118"/>
     <path d="M 8.5 21.578125 
L 8.5 54.6875 
L 17.484375 54.6875 
L 17.484375 21.921875 
Q 17.484375 14.15625 20.5 10.265625 
Q 23.53125 6.390625 29.59375 6.390625 
Q 36.859375 6.390625 41.078125 11.03125 
Q 45.3125 15.671875 45.3125 23.6875 
L 45.3125 54.6875 
L 54.296875 54.6875 
L 54.296875 0 
L 45.3125 0 
L 45.3125 8.40625 
Q 42.046875 3.421875 37.71875 1 
Q 33.40625 -1.421875 27.6875 -1.421875 
Q 18.265625 -1.421875 13.375 4.4375 
Q 8.5 10.296875 8.5 21.578125 
z
M 31.109375 56 
z
" id="DejaVuSans-117"/>
     <path d="M 8.59375 75.984375 
L 29.296875 75.984375 
L 29.296875 69 
L 17.578125 69 
L 17.578125 -6.203125 
L 29.296875 -6.203125 
L 29.296875 -13.1875 
L 8.59375 -13.1875 
z
" id="DejaVuSans-91"/>
     <path d="M 31.78125 34.625 
Q 24.75 34.625 20.71875 30.859375 
Q 16.703125 27.09375 16.703125 20.515625 
Q 16.703125 13.921875 20.71875 10.15625 
Q 24.75 6.390625 31.78125 6.390625 
Q 38.8125 6.390625 42.859375 10.171875 
Q 46.921875 13.96875 46.921875 20.515625 
Q 46.921875 27.09375 42.890625 30.859375 
Q 38.875 34.625 31.78125 34.625 
z
M 21.921875 38.8125 
Q 15.578125 40.375 12.03125 44.71875 
Q 8.5 49.078125 8.5 55.328125 
Q 8.5 64.0625 14.71875 69.140625 
Q 20.953125 74.21875 31.78125 74.21875 
Q 42.671875 74.21875 48.875 69.140625 
Q 55.078125 64.0625 55.078125 55.328125 
Q 55.078125 49.078125 51.53125 44.71875 
Q 48 40.375 41.703125 38.8125 
Q 48.828125 37.15625 52.796875 32.3125 
Q 56.78125 27.484375 56.78125 20.515625 
Q 56.78125 9.90625 50.3125 4.234375 
Q 43.84375 -1.421875 31.78125 -1.421875 
Q 19.734375 -1.421875 13.25 4.234375 
Q 6.78125 9.90625 6.78125 20.515625 
Q 6.78125 27.484375 10.78125 32.3125 
Q 14.796875 37.15625 21.921875 38.8125 
z
M 18.3125 54.390625 
Q 18.3125 48.734375 21.84375 45.5625 
Q 25.390625 42.390625 31.78125 42.390625 
Q 38.140625 42.390625 41.71875 45.5625 
Q 45.3125 48.734375 45.3125 54.390625 
Q 45.3125 60.0625 41.71875 63.234375 
Q 38.140625 66.40625 31.78125 66.40625 
Q 25.390625 66.40625 21.84375 63.234375 
Q 18.3125 60.0625 18.3125 54.390625 
z
" id="DejaVuSans-56"/>
     <path d="M 11.71875 12.40625 
L 22.015625 12.40625 
L 22.015625 4 
L 14.015625 -11.625 
L 7.71875 -11.625 
L 11.71875 4 
z
" id="DejaVuSans-44"/>
     <path d="M 30.421875 75.984375 
L 30.421875 -13.1875 
L 9.71875 -13.1875 
L 9.71875 -6.203125 
L 21.390625 -6.203125 
L 21.390625 69 
L 9.71875 69 
L 9.71875 75.984375 
z
" id="DejaVuSans-93"/>
    </defs>
    <g transform="translate(106.741266 275.019872)scale(0.031495 -0.031495)">
     <use xlink:href="#DejaVuSans-118"/>
     <use x="59.179688" xlink:href="#DejaVuSans-97"/>
     <use x="120.458984" xlink:href="#DejaVuSans-108"/>
     <use x="148.242188" xlink:href="#DejaVuSans-117"/>
     <use x="211.621094" xlink:href="#DejaVuSans-101"/>
     <use x="273.144531" xlink:href="#DejaVuSans-32"/>
     <use x="304.931641" xlink:href="#DejaVuSans-61"/>
     <use x="388.720703" xlink:href="#DejaVuSans-32"/>
     <use x="420.507812" xlink:href="#DejaVuSans-91"/>
     <use x="459.521484" xlink:href="#DejaVuSans-56"/>
     <use x="523.144531" xlink:href="#DejaVuSans-44"/>
     <use x="554.931641" xlink:href="#DejaVuSans-32"/>
     <use x="586.71875" xlink:href="#DejaVuSans-50"/>
     <use x="650.341797" xlink:href="#DejaVuSans-44"/>
     <use x="682.128906" xlink:href="#DejaVuSans-32"/>
     <use x="713.916016" xlink:href="#DejaVuSans-48"/>
     <use x="777.539062" xlink:href="#DejaVuSans-93"/>
    </g>
   </g>
   <g id="patch_4">
    <path d="M 236.148435 261.739811 
Q 209.8769 230.417362 182.886885 198.238299 
" style="fill:none;stroke:#000000;stroke-linecap:round;"/>
    <path d="M 235.821464 260.369771 
L 236.148435 261.739811 
L 234.85622 261.179364 
" style="fill:none;stroke:#000000;stroke-linecap:round;"/>
   </g>
   <g id="text_2">
    <g id="patch_5">
     <path d="M 230.741266 276.619739 
L 256.458734 276.619739 
Q 257.403596 276.619739 257.403596 275.674877 
L 257.403596 265.573123 
Q 257.403596 264.628261 256.458734 264.628261 
L 230.741266 264.628261 
Q 229.796404 264.628261 229.796404 265.573123 
L 229.796404 275.674877 
Q 229.796404 276.619739 230.741266 276.619739 
z
" style="fill:#ffffff;stroke:#000000;stroke-linejoin:miter;"/>
    </g>
    <!-- gini = 0.5 -->
    <defs>
     <path d="M 10.796875 72.90625 
L 49.515625 72.90625 
L 49.515625 64.59375 
L 19.828125 64.59375 
L 19.828125 46.734375 
Q 21.96875 47.46875 24.109375 47.828125 
Q 26.265625 48.1875 28.421875 48.1875 
Q 40.625 48.1875 47.75 41.5 
Q 54.890625 34.8125 54.890625 23.390625 
Q 54.890625 11.625 47.5625 5.09375 
Q 40.234375 -1.421875 26.90625 -1.421875 
Q 22.3125 -1.421875 17.546875 -0.640625 
Q 12.796875 0.140625 7.71875 1.703125 
L 7.71875 11.625 
Q 12.109375 9.234375 16.796875 8.0625 
Q 21.484375 6.890625 26.703125 6.890625 
Q 35.15625 6.890625 40.078125 11.328125 
Q 45.015625 15.765625 45.015625 23.390625 
Q 45.015625 31 40.078125 35.4375 
Q 35.15625 39.890625 26.703125 39.890625 
Q 22.75 39.890625 18.8125 39.015625 
Q 14.890625 38.140625 10.796875 36.28125 
z
" id="DejaVuSans-53"/>
    </defs>
    <g transform="translate(235.902328 267.966281)scale(0.031495 -0.031495)">
     <use xlink:href="#DejaVuSans-103"/>
     <use x="63.476562" xlink:href="#DejaVuSans-105"/>
     <use x="91.259766" xlink:href="#DejaVuSans-110"/>
     <use x="154.638672" xlink:href="#DejaVuSans-105"/>
     <use x="182.421875" xlink:href="#DejaVuSans-32"/>
     <use x="214.208984" xlink:href="#DejaVuSans-61"/>
     <use x="297.998047" xlink:href="#DejaVuSans-32"/>
     <use x="329.785156" xlink:href="#DejaVuSans-48"/>
     <use x="393.408203" xlink:href="#DejaVuSans-46"/>
     <use x="425.195312" xlink:href="#DejaVuSans-53"/>
    </g>
    <!-- samples = 8 -->
    <g transform="translate(233.731607 271.493076)scale(0.031495 -0.031495)">
     <use xlink:href="#DejaVuSans-115"/>
     <use x="52.099609" xlink:href="#DejaVuSans-97"/>
     <use x="113.378906" xlink:href="#DejaVuSans-109"/>
     <use x="210.791016" xlink:href="#DejaVuSans-112"/>
     <use x="274.267578" xlink:href="#DejaVuSans-108"/>
     <use x="302.050781" xlink:href="#DejaVuSans-101"/>
     <use x="363.574219" xlink:href="#DejaVuSans-115"/>
     <use x="415.673828" xlink:href="#DejaVuSans-32"/>
     <use x="447.460938" xlink:href="#DejaVuSans-61"/>
     <use x="531.25" xlink:href="#DejaVuSans-32"/>
     <use x="563.037109" xlink:href="#DejaVuSans-56"/>
    </g>
    <!-- value = [4, 0, 4] -->
    <defs>
     <path d="M 37.796875 64.3125 
L 12.890625 25.390625 
L 37.796875 25.390625 
z
M 35.203125 72.90625 
L 47.609375 72.90625 
L 47.609375 25.390625 
L 58.015625 25.390625 
L 58.015625 17.1875 
L 47.609375 17.1875 
L 47.609375 0 
L 37.796875 0 
L 37.796875 17.1875 
L 4.890625 17.1875 
L 4.890625 26.703125 
z
" id="DejaVuSans-52"/>
    </defs>
    <g transform="translate(230.741266 275.019872)scale(0.031495 -0.031495)">
     <use xlink:href="#DejaVuSans-118"/>
     <use x="59.179688" xlink:href="#DejaVuSans-97"/>
     <use x="120.458984" xlink:href="#DejaVuSans-108"/>
     <use x="148.242188" xlink:href="#DejaVuSans-117"/>
     <use x="211.621094" xlink:href="#DejaVuSans-101"/>
     <use x="273.144531" xlink:href="#DejaVuSans-32"/>
     <use x="304.931641" xlink:href="#DejaVuSans-61"/>
     <use x="388.720703" xlink:href="#DejaVuSans-32"/>
     <use x="420.507812" xlink:href="#DejaVuSans-91"/>
     <use x="459.521484" xlink:href="#DejaVuSans-52"/>
     <use x="523.144531" xlink:href="#DejaVuSans-44"/>
     <use x="554.931641" xlink:href="#DejaVuSans-32"/>
     <use x="586.71875" xlink:href="#DejaVuSans-48"/>
     <use x="650.341797" xlink:href="#DejaVuSans-44"/>
     <use x="682.128906" xlink:href="#DejaVuSans-32"/>
     <use x="713.916016" xlink:href="#DejaVuSans-52"/>
     <use x="777.539062" xlink:href="#DejaVuSans-93"/>
    </g>
   </g>
   <g id="patch_6">
    <path d="M 190.531154 186.05576 
Q 216.063706 155.614369 242.314738 124.316364 
" style="fill:none;stroke:#000000;stroke-linecap:round;"/>
    <path d="M 191.823368 185.495313 
L 190.531154 186.05576 
L 190.858125 184.68572 
" style="fill:none;stroke:#000000;stroke-linecap:round;"/>
   </g>
   <g id="text_3">
    <g id="patch_7">
     <path d="M 158.861308 204.463137 
L 204.338692 204.463137 
Q 205.283554 204.463137 205.283554 203.518275 
L 205.283554 189.889725 
Q 205.283554 188.944863 204.338692 188.944863 
L 158.861308 188.944863 
Q 157.916446 188.944863 157.916446 189.889725 
L 157.916446 203.518275 
Q 157.916446 204.463137 158.861308 204.463137 
z
" style="fill:#f0b78e;stroke:#000000;stroke-linejoin:miter;"/>
    </g>
    <!-- Average gain ratio &lt;= 0.052 -->
    <defs>
     <path d="M 34.1875 63.1875 
L 20.796875 26.90625 
L 47.609375 26.90625 
z
M 28.609375 72.90625 
L 39.796875 72.90625 
L 67.578125 0 
L 57.328125 0 
L 50.6875 18.703125 
L 17.828125 18.703125 
L 11.1875 0 
L 0.78125 0 
z
" id="DejaVuSans-65"/>
     <path d="M 41.109375 46.296875 
Q 39.59375 47.171875 37.8125 47.578125 
Q 36.03125 48 33.890625 48 
Q 26.265625 48 22.1875 43.046875 
Q 18.109375 38.09375 18.109375 28.8125 
L 18.109375 0 
L 9.078125 0 
L 9.078125 54.6875 
L 18.109375 54.6875 
L 18.109375 46.1875 
Q 20.953125 51.171875 25.484375 53.578125 
Q 30.03125 56 36.53125 56 
Q 37.453125 56 38.578125 55.875 
Q 39.703125 55.765625 41.0625 55.515625 
z
" id="DejaVuSans-114"/>
     <path d="M 18.3125 70.21875 
L 18.3125 54.6875 
L 36.8125 54.6875 
L 36.8125 47.703125 
L 18.3125 47.703125 
L 18.3125 18.015625 
Q 18.3125 11.328125 20.140625 9.421875 
Q 21.96875 7.515625 27.59375 7.515625 
L 36.8125 7.515625 
L 36.8125 0 
L 27.59375 0 
Q 17.1875 0 13.234375 3.875 
Q 9.28125 7.765625 9.28125 18.015625 
L 9.28125 47.703125 
L 2.6875 47.703125 
L 2.6875 54.6875 
L 9.28125 54.6875 
L 9.28125 70.21875 
z
" id="DejaVuSans-116"/>
     <path d="M 30.609375 48.390625 
Q 23.390625 48.390625 19.1875 42.75 
Q 14.984375 37.109375 14.984375 27.296875 
Q 14.984375 17.484375 19.15625 11.84375 
Q 23.34375 6.203125 30.609375 6.203125 
Q 37.796875 6.203125 41.984375 11.859375 
Q 46.1875 17.53125 46.1875 27.296875 
Q 46.1875 37.015625 41.984375 42.703125 
Q 37.796875 48.390625 30.609375 48.390625 
z
M 30.609375 56 
Q 42.328125 56 49.015625 48.375 
Q 55.71875 40.765625 55.71875 27.296875 
Q 55.71875 13.875 49.015625 6.21875 
Q 42.328125 -1.421875 30.609375 -1.421875 
Q 18.84375 -1.421875 12.171875 6.21875 
Q 5.515625 13.875 5.515625 27.296875 
Q 5.515625 40.765625 12.171875 48.375 
Q 18.84375 56 30.609375 56 
z
" id="DejaVuSans-111"/>
     <path d="M 73.1875 49.21875 
L 22.796875 31.296875 
L 73.1875 13.484375 
L 73.1875 4.59375 
L 10.59375 27.296875 
L 10.59375 35.40625 
L 73.1875 58.109375 
z
" id="DejaVuSans-60"/>
    </defs>
    <g transform="translate(158.861308 192.282883)scale(0.031495 -0.031495)">
     <use xlink:href="#DejaVuSans-65"/>
     <use x="68.330078" xlink:href="#DejaVuSans-118"/>
     <use x="127.509766" xlink:href="#DejaVuSans-101"/>
     <use x="189.033203" xlink:href="#DejaVuSans-114"/>
     <use x="230.146484" xlink:href="#DejaVuSans-97"/>
     <use x="291.425781" xlink:href="#DejaVuSans-103"/>
     <use x="354.902344" xlink:href="#DejaVuSans-101"/>
     <use x="416.425781" xlink:href="#DejaVuSans-32"/>
     <use x="448.212891" xlink:href="#DejaVuSans-103"/>
     <use x="511.689453" xlink:href="#DejaVuSans-97"/>
     <use x="572.96875" xlink:href="#DejaVuSans-105"/>
     <use x="600.751953" xlink:href="#DejaVuSans-110"/>
     <use x="664.130859" xlink:href="#DejaVuSans-32"/>
     <use x="695.917969" xlink:href="#DejaVuSans-114"/>
     <use x="737.03125" xlink:href="#DejaVuSans-97"/>
     <use x="798.310547" xlink:href="#DejaVuSans-116"/>
     <use x="837.519531" xlink:href="#DejaVuSans-105"/>
     <use x="865.302734" xlink:href="#DejaVuSans-111"/>
     <use x="926.484375" xlink:href="#DejaVuSans-32"/>
     <use x="958.271484" xlink:href="#DejaVuSans-60"/>
     <use x="1042.060547" xlink:href="#DejaVuSans-61"/>
     <use x="1125.849609" xlink:href="#DejaVuSans-32"/>
     <use x="1157.636719" xlink:href="#DejaVuSans-48"/>
     <use x="1221.259766" xlink:href="#DejaVuSans-46"/>
     <use x="1253.046875" xlink:href="#DejaVuSans-48"/>
     <use x="1316.669922" xlink:href="#DejaVuSans-53"/>
     <use x="1380.292969" xlink:href="#DejaVuSans-50"/>
    </g>
    <!-- gini = 0.494 -->
    <defs>
     <path d="M 10.984375 1.515625 
L 10.984375 10.5 
Q 14.703125 8.734375 18.5 7.8125 
Q 22.3125 6.890625 25.984375 6.890625 
Q 35.75 6.890625 40.890625 13.453125 
Q 46.046875 20.015625 46.78125 33.40625 
Q 43.953125 29.203125 39.59375 26.953125 
Q 35.25 24.703125 29.984375 24.703125 
Q 19.046875 24.703125 12.671875 31.3125 
Q 6.296875 37.9375 6.296875 49.421875 
Q 6.296875 60.640625 12.9375 67.421875 
Q 19.578125 74.21875 30.609375 74.21875 
Q 43.265625 74.21875 49.921875 64.515625 
Q 56.59375 54.828125 56.59375 36.375 
Q 56.59375 19.140625 48.40625 8.859375 
Q 40.234375 -1.421875 26.421875 -1.421875 
Q 22.703125 -1.421875 18.890625 -0.6875 
Q 15.09375 0.046875 10.984375 1.515625 
z
M 30.609375 32.421875 
Q 37.25 32.421875 41.125 36.953125 
Q 45.015625 41.5 45.015625 49.421875 
Q 45.015625 57.28125 41.125 61.84375 
Q 37.25 66.40625 30.609375 66.40625 
Q 23.96875 66.40625 20.09375 61.84375 
Q 16.21875 57.28125 16.21875 49.421875 
Q 16.21875 41.5 20.09375 36.953125 
Q 23.96875 32.421875 30.609375 32.421875 
z
" id="DejaVuSans-57"/>
    </defs>
    <g transform="translate(171.898434 195.809678)scale(0.031495 -0.031495)">
     <use xlink:href="#DejaVuSans-103"/>
     <use x="63.476562" xlink:href="#DejaVuSans-105"/>
     <use x="91.259766" xlink:href="#DejaVuSans-110"/>
     <use x="154.638672" xlink:href="#DejaVuSans-105"/>
     <use x="182.421875" xlink:href="#DejaVuSans-32"/>
     <use x="214.208984" xlink:href="#DejaVuSans-61"/>
     <use x="297.998047" xlink:href="#DejaVuSans-32"/>
     <use x="329.785156" xlink:href="#DejaVuSans-48"/>
     <use x="393.408203" xlink:href="#DejaVuSans-46"/>
     <use x="425.195312" xlink:href="#DejaVuSans-52"/>
     <use x="488.818359" xlink:href="#DejaVuSans-57"/>
     <use x="552.441406" xlink:href="#DejaVuSans-52"/>
    </g>
    <!-- samples = 18 -->
    <g transform="translate(170.729659 199.336474)scale(0.031495 -0.031495)">
     <use xlink:href="#DejaVuSans-115"/>
     <use x="52.099609" xlink:href="#DejaVuSans-97"/>
     <use x="113.378906" xlink:href="#DejaVuSans-109"/>
     <use x="210.791016" xlink:href="#DejaVuSans-112"/>
     <use x="274.267578" xlink:href="#DejaVuSans-108"/>
     <use x="302.050781" xlink:href="#DejaVuSans-101"/>
     <use x="363.574219" xlink:href="#DejaVuSans-115"/>
     <use x="415.673828" xlink:href="#DejaVuSans-32"/>
     <use x="447.460938" xlink:href="#DejaVuSans-61"/>
     <use x="531.25" xlink:href="#DejaVuSans-32"/>
     <use x="563.037109" xlink:href="#DejaVuSans-49"/>
     <use x="626.660156" xlink:href="#DejaVuSans-56"/>
    </g>
    <!-- value = [12, 2, 4] -->
    <g transform="translate(167.739319 202.863269)scale(0.031495 -0.031495)">
     <use xlink:href="#DejaVuSans-118"/>
     <use x="59.179688" xlink:href="#DejaVuSans-97"/>
     <use x="120.458984" xlink:href="#DejaVuSans-108"/>
     <use x="148.242188" xlink:href="#DejaVuSans-117"/>
     <use x="211.621094" xlink:href="#DejaVuSans-101"/>
     <use x="273.144531" xlink:href="#DejaVuSans-32"/>
     <use x="304.931641" xlink:href="#DejaVuSans-61"/>
     <use x="388.720703" xlink:href="#DejaVuSans-32"/>
     <use x="420.507812" xlink:href="#DejaVuSans-91"/>
     <use x="459.521484" xlink:href="#DejaVuSans-49"/>
     <use x="523.144531" xlink:href="#DejaVuSans-50"/>
     <use x="586.767578" xlink:href="#DejaVuSans-44"/>
     <use x="618.554688" xlink:href="#DejaVuSans-32"/>
     <use x="650.341797" xlink:href="#DejaVuSans-50"/>
     <use x="713.964844" xlink:href="#DejaVuSans-44"/>
     <use x="745.751953" xlink:href="#DejaVuSans-32"/>
     <use x="777.539062" xlink:href="#DejaVuSans-52"/>
     <use x="841.162109" xlink:href="#DejaVuSans-93"/>
    </g>
   </g>
   <g id="patch_8">
    <path d="M 298.148435 187.819811 
Q 271.8769 156.497362 244.886885 124.318299 
" style="fill:none;stroke:#000000;stroke-linecap:round;"/>
    <path d="M 297.821464 186.449771 
L 298.148435 187.819811 
L 296.85622 187.259364 
" style="fill:none;stroke:#000000;stroke-linecap:round;"/>
   </g>
   <g id="text_4">
    <g id="patch_9">
     <path d="M 292.741266 202.699739 
L 318.458734 202.699739 
Q 319.403596 202.699739 319.403596 201.754877 
L 319.403596 191.653123 
Q 319.403596 190.708261 318.458734 190.708261 
L 292.741266 190.708261 
Q 291.796404 190.708261 291.796404 191.653123 
L 291.796404 201.754877 
Q 291.796404 202.699739 292.741266 202.699739 
z
" style="fill:#8139e5;stroke:#000000;stroke-linejoin:miter;"/>
    </g>
    <!-- gini = 0.0 -->
    <g transform="translate(297.902328 194.046281)scale(0.031495 -0.031495)">
     <use xlink:href="#DejaVuSans-103"/>
     <use x="63.476562" xlink:href="#DejaVuSans-105"/>
     <use x="91.259766" xlink:href="#DejaVuSans-110"/>
     <use x="154.638672" xlink:href="#DejaVuSans-105"/>
     <use x="182.421875" xlink:href="#DejaVuSans-32"/>
     <use x="214.208984" xlink:href="#DejaVuSans-61"/>
     <use x="297.998047" xlink:href="#DejaVuSans-32"/>
     <use x="329.785156" xlink:href="#DejaVuSans-48"/>
     <use x="393.408203" xlink:href="#DejaVuSans-46"/>
     <use x="425.195312" xlink:href="#DejaVuSans-48"/>
    </g>
    <!-- samples = 3 -->
    <g transform="translate(295.731607 197.573076)scale(0.031495 -0.031495)">
     <use xlink:href="#DejaVuSans-115"/>
     <use x="52.099609" xlink:href="#DejaVuSans-97"/>
     <use x="113.378906" xlink:href="#DejaVuSans-109"/>
     <use x="210.791016" xlink:href="#DejaVuSans-112"/>
     <use x="274.267578" xlink:href="#DejaVuSans-108"/>
     <use x="302.050781" xlink:href="#DejaVuSans-101"/>
     <use x="363.574219" xlink:href="#DejaVuSans-115"/>
     <use x="415.673828" xlink:href="#DejaVuSans-32"/>
     <use x="447.460938" xlink:href="#DejaVuSans-61"/>
     <use x="531.25" xlink:href="#DejaVuSans-32"/>
     <use x="563.037109" xlink:href="#DejaVuSans-51"/>
    </g>
    <!-- value = [0, 0, 3] -->
    <g transform="translate(292.741266 201.099872)scale(0.031495 -0.031495)">
     <use xlink:href="#DejaVuSans-118"/>
     <use x="59.179688" xlink:href="#DejaVuSans-97"/>
     <use x="120.458984" xlink:href="#DejaVuSans-108"/>
     <use x="148.242188" xlink:href="#DejaVuSans-117"/>
     <use x="211.621094" xlink:href="#DejaVuSans-101"/>
     <use x="273.144531" xlink:href="#DejaVuSans-32"/>
     <use x="304.931641" xlink:href="#DejaVuSans-61"/>
     <use x="388.720703" xlink:href="#DejaVuSans-32"/>
     <use x="420.507812" xlink:href="#DejaVuSans-91"/>
     <use x="459.521484" xlink:href="#DejaVuSans-48"/>
     <use x="523.144531" xlink:href="#DejaVuSans-44"/>
     <use x="554.931641" xlink:href="#DejaVuSans-32"/>
     <use x="586.71875" xlink:href="#DejaVuSans-48"/>
     <use x="650.341797" xlink:href="#DejaVuSans-44"/>
     <use x="682.128906" xlink:href="#DejaVuSans-32"/>
     <use x="713.916016" xlink:href="#DejaVuSans-51"/>
     <use x="777.539062" xlink:href="#DejaVuSans-93"/>
    </g>
   </g>
   <g id="patch_10">
    <path d="M 127.051565 113.899811 
Q 153.3231 82.577362 180.313115 50.398299 
" style="fill:none;stroke:#000000;stroke-linecap:round;"/>
    <path d="M 128.34378 113.339364 
L 127.051565 113.899811 
L 127.378536 112.529771 
" style="fill:none;stroke:#000000;stroke-linecap:round;"/>
   </g>
   <g id="text_5">
    <g id="patch_11">
     <path d="M 106.741266 128.779739 
L 132.458734 128.779739 
Q 133.403596 128.779739 133.403596 127.834877 
L 133.403596 117.733123 
Q 133.403596 116.788261 132.458734 116.788261 
L 106.741266 116.788261 
Q 105.796404 116.788261 105.796404 117.733123 
L 105.796404 127.834877 
Q 105.796404 128.779739 106.741266 128.779739 
z
" style="fill:#6aeca0;stroke:#000000;stroke-linejoin:miter;"/>
    </g>
    <!-- gini = 0.32 -->
    <g transform="translate(110.900381 120.126281)scale(0.031495 -0.031495)">
     <use xlink:href="#DejaVuSans-103"/>
     <use x="63.476562" xlink:href="#DejaVuSans-105"/>
     <use x="91.259766" xlink:href="#DejaVuSans-110"/>
     <use x="154.638672" xlink:href="#DejaVuSans-105"/>
     <use x="182.421875" xlink:href="#DejaVuSans-32"/>
     <use x="214.208984" xlink:href="#DejaVuSans-61"/>
     <use x="297.998047" xlink:href="#DejaVuSans-32"/>
     <use x="329.785156" xlink:href="#DejaVuSans-48"/>
     <use x="393.408203" xlink:href="#DejaVuSans-46"/>
     <use x="425.195312" xlink:href="#DejaVuSans-51"/>
     <use x="488.818359" xlink:href="#DejaVuSans-50"/>
    </g>
    <!-- samples = 5 -->
    <g transform="translate(109.731607 123.653076)scale(0.031495 -0.031495)">
     <use xlink:href="#DejaVuSans-115"/>
     <use x="52.099609" xlink:href="#DejaVuSans-97"/>
     <use x="113.378906" xlink:href="#DejaVuSans-109"/>
     <use x="210.791016" xlink:href="#DejaVuSans-112"/>
     <use x="274.267578" xlink:href="#DejaVuSans-108"/>
     <use x="302.050781" xlink:href="#DejaVuSans-101"/>
     <use x="363.574219" xlink:href="#DejaVuSans-115"/>
     <use x="415.673828" xlink:href="#DejaVuSans-32"/>
     <use x="447.460938" xlink:href="#DejaVuSans-61"/>
     <use x="531.25" xlink:href="#DejaVuSans-32"/>
     <use x="563.037109" xlink:href="#DejaVuSans-53"/>
    </g>
    <!-- value = [1, 4, 0] -->
    <g transform="translate(106.741266 127.179872)scale(0.031495 -0.031495)">
     <use xlink:href="#DejaVuSans-118"/>
     <use x="59.179688" xlink:href="#DejaVuSans-97"/>
     <use x="120.458984" xlink:href="#DejaVuSans-108"/>
     <use x="148.242188" xlink:href="#DejaVuSans-117"/>
     <use x="211.621094" xlink:href="#DejaVuSans-101"/>
     <use x="273.144531" xlink:href="#DejaVuSans-32"/>
     <use x="304.931641" xlink:href="#DejaVuSans-61"/>
     <use x="388.720703" xlink:href="#DejaVuSans-32"/>
     <use x="420.507812" xlink:href="#DejaVuSans-91"/>
     <use x="459.521484" xlink:href="#DejaVuSans-49"/>
     <use x="523.144531" xlink:href="#DejaVuSans-44"/>
     <use x="554.931641" xlink:href="#DejaVuSans-32"/>
     <use x="586.71875" xlink:href="#DejaVuSans-52"/>
     <use x="650.341797" xlink:href="#DejaVuSans-44"/>
     <use x="682.128906" xlink:href="#DejaVuSans-32"/>
     <use x="713.916016" xlink:href="#DejaVuSans-48"/>
     <use x="777.539062" xlink:href="#DejaVuSans-93"/>
    </g>
   </g>
   <g id="patch_12">
    <path d="M 234.668846 112.13576 
Q 209.136294 81.694369 182.885262 50.396364 
" style="fill:none;stroke:#000000;stroke-linecap:round;"/>
    <path d="M 234.341875 110.76572 
L 234.668846 112.13576 
L 233.376632 111.575313 
" style="fill:none;stroke:#000000;stroke-linecap:round;"/>
   </g>
   <g id="text_6">
    <g id="patch_13">
     <path d="M 220.303987 130.543137 
L 266.896013 130.543137 
Q 267.840875 130.543137 267.840875 129.598275 
L 267.840875 115.969725 
Q 267.840875 115.024863 266.896013 115.024863 
L 220.303987 115.024863 
Q 219.359125 115.024863 219.359125 115.969725 
L 219.359125 129.598275 
Q 219.359125 130.543137 220.303987 130.543137 
z
" style="fill:#f6d2b8;stroke:#000000;stroke-linejoin:miter;"/>
    </g>
    <!-- Max IR per labelset &lt;= 0.139 -->
    <defs>
     <path d="M 9.8125 72.90625 
L 24.515625 72.90625 
L 43.109375 23.296875 
L 61.8125 72.90625 
L 76.515625 72.90625 
L 76.515625 0 
L 66.890625 0 
L 66.890625 64.015625 
L 48.09375 14.015625 
L 38.1875 14.015625 
L 19.390625 64.015625 
L 19.390625 0 
L 9.8125 0 
z
" id="DejaVuSans-77"/>
     <path d="M 54.890625 54.6875 
L 35.109375 28.078125 
L 55.90625 0 
L 45.3125 0 
L 29.390625 21.484375 
L 13.484375 0 
L 2.875 0 
L 24.125 28.609375 
L 4.6875 54.6875 
L 15.28125 54.6875 
L 29.78125 35.203125 
L 44.28125 54.6875 
z
" id="DejaVuSans-120"/>
     <path d="M 9.8125 72.90625 
L 19.671875 72.90625 
L 19.671875 0 
L 9.8125 0 
z
" id="DejaVuSans-73"/>
     <path d="M 44.390625 34.1875 
Q 47.5625 33.109375 50.5625 29.59375 
Q 53.5625 26.078125 56.59375 19.921875 
L 66.609375 0 
L 56 0 
L 46.6875 18.703125 
Q 43.0625 26.03125 39.671875 28.421875 
Q 36.28125 30.8125 30.421875 30.8125 
L 19.671875 30.8125 
L 19.671875 0 
L 9.8125 0 
L 9.8125 72.90625 
L 32.078125 72.90625 
Q 44.578125 72.90625 50.734375 67.671875 
Q 56.890625 62.453125 56.890625 51.90625 
Q 56.890625 45.015625 53.6875 40.46875 
Q 50.484375 35.9375 44.390625 34.1875 
z
M 19.671875 64.796875 
L 19.671875 38.921875 
L 32.078125 38.921875 
Q 39.203125 38.921875 42.84375 42.21875 
Q 46.484375 45.515625 46.484375 51.90625 
Q 46.484375 58.296875 42.84375 61.546875 
Q 39.203125 64.796875 32.078125 64.796875 
z
" id="DejaVuSans-82"/>
     <path d="M 48.6875 27.296875 
Q 48.6875 37.203125 44.609375 42.84375 
Q 40.53125 48.484375 33.40625 48.484375 
Q 26.265625 48.484375 22.1875 42.84375 
Q 18.109375 37.203125 18.109375 27.296875 
Q 18.109375 17.390625 22.1875 11.75 
Q 26.265625 6.109375 33.40625 6.109375 
Q 40.53125 6.109375 44.609375 11.75 
Q 48.6875 17.390625 48.6875 27.296875 
z
M 18.109375 46.390625 
Q 20.953125 51.265625 25.265625 53.625 
Q 29.59375 56 35.59375 56 
Q 45.5625 56 51.78125 48.09375 
Q 58.015625 40.1875 58.015625 27.296875 
Q 58.015625 14.40625 51.78125 6.484375 
Q 45.5625 -1.421875 35.59375 -1.421875 
Q 29.59375 -1.421875 25.265625 0.953125 
Q 20.953125 3.328125 18.109375 8.203125 
L 18.109375 0 
L 9.078125 0 
L 9.078125 75.984375 
L 18.109375 75.984375 
z
" id="DejaVuSans-98"/>
    </defs>
    <g transform="translate(220.303987 118.362883)scale(0.031495 -0.031495)">
     <use xlink:href="#DejaVuSans-77"/>
     <use x="86.279297" xlink:href="#DejaVuSans-97"/>
     <use x="147.558594" xlink:href="#DejaVuSans-120"/>
     <use x="206.738281" xlink:href="#DejaVuSans-32"/>
     <use x="238.525391" xlink:href="#DejaVuSans-73"/>
     <use x="268.017578" xlink:href="#DejaVuSans-82"/>
     <use x="337.5" xlink:href="#DejaVuSans-32"/>
     <use x="369.287109" xlink:href="#DejaVuSans-112"/>
     <use x="432.763672" xlink:href="#DejaVuSans-101"/>
     <use x="494.287109" xlink:href="#DejaVuSans-114"/>
     <use x="535.400391" xlink:href="#DejaVuSans-32"/>
     <use x="567.1875" xlink:href="#DejaVuSans-108"/>
     <use x="594.970703" xlink:href="#DejaVuSans-97"/>
     <use x="656.25" xlink:href="#DejaVuSans-98"/>
     <use x="719.726562" xlink:href="#DejaVuSans-101"/>
     <use x="781.25" xlink:href="#DejaVuSans-108"/>
     <use x="809.033203" xlink:href="#DejaVuSans-115"/>
     <use x="861.132812" xlink:href="#DejaVuSans-101"/>
     <use x="922.65625" xlink:href="#DejaVuSans-116"/>
     <use x="961.865234" xlink:href="#DejaVuSans-32"/>
     <use x="993.652344" xlink:href="#DejaVuSans-60"/>
     <use x="1077.441406" xlink:href="#DejaVuSans-61"/>
     <use x="1161.230469" xlink:href="#DejaVuSans-32"/>
     <use x="1193.017578" xlink:href="#DejaVuSans-48"/>
     <use x="1256.640625" xlink:href="#DejaVuSans-46"/>
     <use x="1288.427734" xlink:href="#DejaVuSans-49"/>
     <use x="1352.050781" xlink:href="#DejaVuSans-51"/>
     <use x="1415.673828" xlink:href="#DejaVuSans-57"/>
    </g>
    <!-- gini = 0.553 -->
    <g transform="translate(233.898434 121.889678)scale(0.031495 -0.031495)">
     <use xlink:href="#DejaVuSans-103"/>
     <use x="63.476562" xlink:href="#DejaVuSans-105"/>
     <use x="91.259766" xlink:href="#DejaVuSans-110"/>
     <use x="154.638672" xlink:href="#DejaVuSans-105"/>
     <use x="182.421875" xlink:href="#DejaVuSans-32"/>
     <use x="214.208984" xlink:href="#DejaVuSans-61"/>
     <use x="297.998047" xlink:href="#DejaVuSans-32"/>
     <use x="329.785156" xlink:href="#DejaVuSans-48"/>
     <use x="393.408203" xlink:href="#DejaVuSans-46"/>
     <use x="425.195312" xlink:href="#DejaVuSans-53"/>
     <use x="488.818359" xlink:href="#DejaVuSans-53"/>
     <use x="552.441406" xlink:href="#DejaVuSans-51"/>
    </g>
    <!-- samples = 21 -->
    <g transform="translate(232.729659 125.416474)scale(0.031495 -0.031495)">
     <use xlink:href="#DejaVuSans-115"/>
     <use x="52.099609" xlink:href="#DejaVuSans-97"/>
     <use x="113.378906" xlink:href="#DejaVuSans-109"/>
     <use x="210.791016" xlink:href="#DejaVuSans-112"/>
     <use x="274.267578" xlink:href="#DejaVuSans-108"/>
     <use x="302.050781" xlink:href="#DejaVuSans-101"/>
     <use x="363.574219" xlink:href="#DejaVuSans-115"/>
     <use x="415.673828" xlink:href="#DejaVuSans-32"/>
     <use x="447.460938" xlink:href="#DejaVuSans-61"/>
     <use x="531.25" xlink:href="#DejaVuSans-32"/>
     <use x="563.037109" xlink:href="#DejaVuSans-50"/>
     <use x="626.660156" xlink:href="#DejaVuSans-49"/>
    </g>
    <!-- value = [12, 2, 7] -->
    <defs>
     <path d="M 8.203125 72.90625 
L 55.078125 72.90625 
L 55.078125 68.703125 
L 28.609375 0 
L 18.3125 0 
L 43.21875 64.59375 
L 8.203125 64.59375 
z
" id="DejaVuSans-55"/>
    </defs>
    <g transform="translate(229.739319 128.943269)scale(0.031495 -0.031495)">
     <use xlink:href="#DejaVuSans-118"/>
     <use x="59.179688" xlink:href="#DejaVuSans-97"/>
     <use x="120.458984" xlink:href="#DejaVuSans-108"/>
     <use x="148.242188" xlink:href="#DejaVuSans-117"/>
     <use x="211.621094" xlink:href="#DejaVuSans-101"/>
     <use x="273.144531" xlink:href="#DejaVuSans-32"/>
     <use x="304.931641" xlink:href="#DejaVuSans-61"/>
     <use x="388.720703" xlink:href="#DejaVuSans-32"/>
     <use x="420.507812" xlink:href="#DejaVuSans-91"/>
     <use x="459.521484" xlink:href="#DejaVuSans-49"/>
     <use x="523.144531" xlink:href="#DejaVuSans-50"/>
     <use x="586.767578" xlink:href="#DejaVuSans-44"/>
     <use x="618.554688" xlink:href="#DejaVuSans-32"/>
     <use x="650.341797" xlink:href="#DejaVuSans-50"/>
     <use x="713.964844" xlink:href="#DejaVuSans-44"/>
     <use x="745.751953" xlink:href="#DejaVuSans-32"/>
     <use x="777.539062" xlink:href="#DejaVuSans-55"/>
     <use x="841.162109" xlink:href="#DejaVuSans-93"/>
    </g>
   </g>
   <g id="patch_14">
    <path d="M 375.051565 113.899811 
Q 401.3231 82.577362 428.313115 50.398299 
" style="fill:none;stroke:#000000;stroke-linecap:round;"/>
    <path d="M 376.34378 113.339364 
L 375.051565 113.899811 
L 375.378536 112.529771 
" style="fill:none;stroke:#000000;stroke-linecap:round;"/>
   </g>
   <g id="text_7">
    <g id="patch_15">
     <path d="M 354.741266 128.779739 
L 380.458734 128.779739 
Q 381.403596 128.779739 381.403596 127.834877 
L 381.403596 117.733123 
Q 381.403596 116.788261 380.458734 116.788261 
L 354.741266 116.788261 
Q 353.796404 116.788261 353.796404 117.733123 
L 353.796404 127.834877 
Q 353.796404 128.779739 354.741266 128.779739 
z
" style="fill:#39e581;stroke:#000000;stroke-linejoin:miter;"/>
    </g>
    <!-- gini = 0.0 -->
    <g transform="translate(359.902328 120.126281)scale(0.031495 -0.031495)">
     <use xlink:href="#DejaVuSans-103"/>
     <use x="63.476562" xlink:href="#DejaVuSans-105"/>
     <use x="91.259766" xlink:href="#DejaVuSans-110"/>
     <use x="154.638672" xlink:href="#DejaVuSans-105"/>
     <use x="182.421875" xlink:href="#DejaVuSans-32"/>
     <use x="214.208984" xlink:href="#DejaVuSans-61"/>
     <use x="297.998047" xlink:href="#DejaVuSans-32"/>
     <use x="329.785156" xlink:href="#DejaVuSans-48"/>
     <use x="393.408203" xlink:href="#DejaVuSans-46"/>
     <use x="425.195312" xlink:href="#DejaVuSans-48"/>
    </g>
    <!-- samples = 8 -->
    <g transform="translate(357.731607 123.653076)scale(0.031495 -0.031495)">
     <use xlink:href="#DejaVuSans-115"/>
     <use x="52.099609" xlink:href="#DejaVuSans-97"/>
     <use x="113.378906" xlink:href="#DejaVuSans-109"/>
     <use x="210.791016" xlink:href="#DejaVuSans-112"/>
     <use x="274.267578" xlink:href="#DejaVuSans-108"/>
     <use x="302.050781" xlink:href="#DejaVuSans-101"/>
     <use x="363.574219" xlink:href="#DejaVuSans-115"/>
     <use x="415.673828" xlink:href="#DejaVuSans-32"/>
     <use x="447.460938" xlink:href="#DejaVuSans-61"/>
     <use x="531.25" xlink:href="#DejaVuSans-32"/>
     <use x="563.037109" xlink:href="#DejaVuSans-56"/>
    </g>
    <!-- value = [0, 8, 0] -->
    <g transform="translate(354.741266 127.179872)scale(0.031495 -0.031495)">
     <use xlink:href="#DejaVuSans-118"/>
     <use x="59.179688" xlink:href="#DejaVuSans-97"/>
     <use x="120.458984" xlink:href="#DejaVuSans-108"/>
     <use x="148.242188" xlink:href="#DejaVuSans-117"/>
     <use x="211.621094" xlink:href="#DejaVuSans-101"/>
     <use x="273.144531" xlink:href="#DejaVuSans-32"/>
     <use x="304.931641" xlink:href="#DejaVuSans-61"/>
     <use x="388.720703" xlink:href="#DejaVuSans-32"/>
     <use x="420.507812" xlink:href="#DejaVuSans-91"/>
     <use x="459.521484" xlink:href="#DejaVuSans-48"/>
     <use x="523.144531" xlink:href="#DejaVuSans-44"/>
     <use x="554.931641" xlink:href="#DejaVuSans-32"/>
     <use x="586.71875" xlink:href="#DejaVuSans-56"/>
     <use x="650.341797" xlink:href="#DejaVuSans-44"/>
     <use x="682.128906" xlink:href="#DejaVuSans-32"/>
     <use x="713.916016" xlink:href="#DejaVuSans-48"/>
     <use x="777.539062" xlink:href="#DejaVuSans-93"/>
    </g>
   </g>
   <g id="patch_16">
    <path d="M 484.148435 113.899811 
Q 457.8769 82.577362 430.886885 50.398299 
" style="fill:none;stroke:#000000;stroke-linecap:round;"/>
    <path d="M 483.821464 112.529771 
L 484.148435 113.899811 
L 482.85622 113.339364 
" style="fill:none;stroke:#000000;stroke-linecap:round;"/>
   </g>
   <g id="text_8">
    <g id="patch_17">
     <path d="M 478.741266 128.779739 
L 504.458734 128.779739 
Q 505.403596 128.779739 505.403596 127.834877 
L 505.403596 117.733123 
Q 505.403596 116.788261 504.458734 116.788261 
L 478.741266 116.788261 
Q 477.796404 116.788261 477.796404 117.733123 
L 477.796404 127.834877 
Q 477.796404 128.779739 478.741266 128.779739 
z
" style="fill:#f2c09c;stroke:#000000;stroke-linejoin:miter;"/>
    </g>
    <!-- gini = 0.444 -->
    <g transform="translate(481.898434 120.126281)scale(0.031495 -0.031495)">
     <use xlink:href="#DejaVuSans-103"/>
     <use x="63.476562" xlink:href="#DejaVuSans-105"/>
     <use x="91.259766" xlink:href="#DejaVuSans-110"/>
     <use x="154.638672" xlink:href="#DejaVuSans-105"/>
     <use x="182.421875" xlink:href="#DejaVuSans-32"/>
     <use x="214.208984" xlink:href="#DejaVuSans-61"/>
     <use x="297.998047" xlink:href="#DejaVuSans-32"/>
     <use x="329.785156" xlink:href="#DejaVuSans-48"/>
     <use x="393.408203" xlink:href="#DejaVuSans-46"/>
     <use x="425.195312" xlink:href="#DejaVuSans-52"/>
     <use x="488.818359" xlink:href="#DejaVuSans-52"/>
     <use x="552.441406" xlink:href="#DejaVuSans-52"/>
    </g>
    <!-- samples = 6 -->
    <defs>
     <path d="M 33.015625 40.375 
Q 26.375 40.375 22.484375 35.828125 
Q 18.609375 31.296875 18.609375 23.390625 
Q 18.609375 15.53125 22.484375 10.953125 
Q 26.375 6.390625 33.015625 6.390625 
Q 39.65625 6.390625 43.53125 10.953125 
Q 47.40625 15.53125 47.40625 23.390625 
Q 47.40625 31.296875 43.53125 35.828125 
Q 39.65625 40.375 33.015625 40.375 
z
M 52.59375 71.296875 
L 52.59375 62.3125 
Q 48.875 64.0625 45.09375 64.984375 
Q 41.3125 65.921875 37.59375 65.921875 
Q 27.828125 65.921875 22.671875 59.328125 
Q 17.53125 52.734375 16.796875 39.40625 
Q 19.671875 43.65625 24.015625 45.921875 
Q 28.375 48.1875 33.59375 48.1875 
Q 44.578125 48.1875 50.953125 41.515625 
Q 57.328125 34.859375 57.328125 23.390625 
Q 57.328125 12.15625 50.6875 5.359375 
Q 44.046875 -1.421875 33.015625 -1.421875 
Q 20.359375 -1.421875 13.671875 8.265625 
Q 6.984375 17.96875 6.984375 36.375 
Q 6.984375 53.65625 15.1875 63.9375 
Q 23.390625 74.21875 37.203125 74.21875 
Q 40.921875 74.21875 44.703125 73.484375 
Q 48.484375 72.75 52.59375 71.296875 
z
" id="DejaVuSans-54"/>
    </defs>
    <g transform="translate(481.731607 123.653076)scale(0.031495 -0.031495)">
     <use xlink:href="#DejaVuSans-115"/>
     <use x="52.099609" xlink:href="#DejaVuSans-97"/>
     <use x="113.378906" xlink:href="#DejaVuSans-109"/>
     <use x="210.791016" xlink:href="#DejaVuSans-112"/>
     <use x="274.267578" xlink:href="#DejaVuSans-108"/>
     <use x="302.050781" xlink:href="#DejaVuSans-101"/>
     <use x="363.574219" xlink:href="#DejaVuSans-115"/>
     <use x="415.673828" xlink:href="#DejaVuSans-32"/>
     <use x="447.460938" xlink:href="#DejaVuSans-61"/>
     <use x="531.25" xlink:href="#DejaVuSans-32"/>
     <use x="563.037109" xlink:href="#DejaVuSans-54"/>
    </g>
    <!-- value = [4, 2, 0] -->
    <g transform="translate(478.741266 127.179872)scale(0.031495 -0.031495)">
     <use xlink:href="#DejaVuSans-118"/>
     <use x="59.179688" xlink:href="#DejaVuSans-97"/>
     <use x="120.458984" xlink:href="#DejaVuSans-108"/>
     <use x="148.242188" xlink:href="#DejaVuSans-117"/>
     <use x="211.621094" xlink:href="#DejaVuSans-101"/>
     <use x="273.144531" xlink:href="#DejaVuSans-32"/>
     <use x="304.931641" xlink:href="#DejaVuSans-61"/>
     <use x="388.720703" xlink:href="#DejaVuSans-32"/>
     <use x="420.507812" xlink:href="#DejaVuSans-91"/>
     <use x="459.521484" xlink:href="#DejaVuSans-52"/>
     <use x="523.144531" xlink:href="#DejaVuSans-44"/>
     <use x="554.931641" xlink:href="#DejaVuSans-32"/>
     <use x="586.71875" xlink:href="#DejaVuSans-50"/>
     <use x="650.341797" xlink:href="#DejaVuSans-44"/>
     <use x="682.128906" xlink:href="#DejaVuSans-32"/>
     <use x="713.916016" xlink:href="#DejaVuSans-48"/>
     <use x="777.539062" xlink:href="#DejaVuSans-93"/>
    </g>
   </g>
   <g id="patch_18">
    <path d="M 198.131896 39.008857 
Q 250.527098 7.774556 303.882643 -24.032233 
" style="fill:none;stroke:#000000;stroke-linecap:round;"/>
    <path d="M 199.536566 38.904833 
L 198.131896 39.008857 
L 198.891479 37.822706 
" style="fill:none;stroke:#000000;stroke-linecap:round;"/>
   </g>
   <g id="text_9">
    <g id="patch_19">
     <path d="M 166.445793 56.623137 
L 196.754207 56.623137 
Q 197.699069 56.623137 197.699069 55.678275 
L 197.699069 42.049725 
Q 197.699069 41.104863 196.754207 41.104863 
L 166.445793 41.104863 
Q 165.500931 41.104863 165.500931 42.049725 
L 165.500931 55.678275 
Q 165.500931 56.623137 166.445793 56.623137 
z
" style="fill:#f7d7c0;stroke:#000000;stroke-linejoin:miter;"/>
    </g>
    <!-- Diversity &lt;= 0.053 -->
    <defs>
     <path d="M 19.671875 64.796875 
L 19.671875 8.109375 
L 31.59375 8.109375 
Q 46.6875 8.109375 53.6875 14.9375 
Q 60.6875 21.78125 60.6875 36.53125 
Q 60.6875 51.171875 53.6875 57.984375 
Q 46.6875 64.796875 31.59375 64.796875 
z
M 9.8125 72.90625 
L 30.078125 72.90625 
Q 51.265625 72.90625 61.171875 64.09375 
Q 71.09375 55.28125 71.09375 36.53125 
Q 71.09375 17.671875 61.125 8.828125 
Q 51.171875 0 30.078125 0 
L 9.8125 0 
z
" id="DejaVuSans-68"/>
     <path d="M 32.171875 -5.078125 
Q 28.375 -14.84375 24.75 -17.8125 
Q 21.140625 -20.796875 15.09375 -20.796875 
L 7.90625 -20.796875 
L 7.90625 -13.28125 
L 13.1875 -13.28125 
Q 16.890625 -13.28125 18.9375 -11.515625 
Q 21 -9.765625 23.484375 -3.21875 
L 25.09375 0.875 
L 2.984375 54.6875 
L 12.5 54.6875 
L 29.59375 11.921875 
L 46.6875 54.6875 
L 56.203125 54.6875 
z
" id="DejaVuSans-121"/>
    </defs>
    <g transform="translate(166.445793 44.442883)scale(0.031495 -0.031495)">
     <use xlink:href="#DejaVuSans-68"/>
     <use x="77.001953" xlink:href="#DejaVuSans-105"/>
     <use x="104.785156" xlink:href="#DejaVuSans-118"/>
     <use x="163.964844" xlink:href="#DejaVuSans-101"/>
     <use x="225.488281" xlink:href="#DejaVuSans-114"/>
     <use x="266.601562" xlink:href="#DejaVuSans-115"/>
     <use x="318.701172" xlink:href="#DejaVuSans-105"/>
     <use x="346.484375" xlink:href="#DejaVuSans-116"/>
     <use x="385.693359" xlink:href="#DejaVuSans-121"/>
     <use x="444.873047" xlink:href="#DejaVuSans-32"/>
     <use x="476.660156" xlink:href="#DejaVuSans-60"/>
     <use x="560.449219" xlink:href="#DejaVuSans-61"/>
     <use x="644.238281" xlink:href="#DejaVuSans-32"/>
     <use x="676.025391" xlink:href="#DejaVuSans-48"/>
     <use x="739.648438" xlink:href="#DejaVuSans-46"/>
     <use x="771.435547" xlink:href="#DejaVuSans-48"/>
     <use x="835.058594" xlink:href="#DejaVuSans-53"/>
     <use x="898.681641" xlink:href="#DejaVuSans-51"/>
    </g>
    <!-- gini = 0.624 -->
    <g transform="translate(171.898434 47.969678)scale(0.031495 -0.031495)">
     <use xlink:href="#DejaVuSans-103"/>
     <use x="63.476562" xlink:href="#DejaVuSans-105"/>
     <use x="91.259766" xlink:href="#DejaVuSans-110"/>
     <use x="154.638672" xlink:href="#DejaVuSans-105"/>
     <use x="182.421875" xlink:href="#DejaVuSans-32"/>
     <use x="214.208984" xlink:href="#DejaVuSans-61"/>
     <use x="297.998047" xlink:href="#DejaVuSans-32"/>
     <use x="329.785156" xlink:href="#DejaVuSans-48"/>
     <use x="393.408203" xlink:href="#DejaVuSans-46"/>
     <use x="425.195312" xlink:href="#DejaVuSans-54"/>
     <use x="488.818359" xlink:href="#DejaVuSans-50"/>
     <use x="552.441406" xlink:href="#DejaVuSans-52"/>
    </g>
    <!-- samples = 26 -->
    <g transform="translate(170.729659 51.496474)scale(0.031495 -0.031495)">
     <use xlink:href="#DejaVuSans-115"/>
     <use x="52.099609" xlink:href="#DejaVuSans-97"/>
     <use x="113.378906" xlink:href="#DejaVuSans-109"/>
     <use x="210.791016" xlink:href="#DejaVuSans-112"/>
     <use x="274.267578" xlink:href="#DejaVuSans-108"/>
     <use x="302.050781" xlink:href="#DejaVuSans-101"/>
     <use x="363.574219" xlink:href="#DejaVuSans-115"/>
     <use x="415.673828" xlink:href="#DejaVuSans-32"/>
     <use x="447.460938" xlink:href="#DejaVuSans-61"/>
     <use x="531.25" xlink:href="#DejaVuSans-32"/>
     <use x="563.037109" xlink:href="#DejaVuSans-50"/>
     <use x="626.660156" xlink:href="#DejaVuSans-54"/>
    </g>
    <!-- value = [13, 6, 7] -->
    <g transform="translate(167.739319 55.023269)scale(0.031495 -0.031495)">
     <use xlink:href="#DejaVuSans-118"/>
     <use x="59.179688" xlink:href="#DejaVuSans-97"/>
     <use x="120.458984" xlink:href="#DejaVuSans-108"/>
     <use x="148.242188" xlink:href="#DejaVuSans-117"/>
     <use x="211.621094" xlink:href="#DejaVuSans-101"/>
     <use x="273.144531" xlink:href="#DejaVuSans-32"/>
     <use x="304.931641" xlink:href="#DejaVuSans-61"/>
     <use x="388.720703" xlink:href="#DejaVuSans-32"/>
     <use x="420.507812" xlink:href="#DejaVuSans-91"/>
     <use x="459.521484" xlink:href="#DejaVuSans-49"/>
     <use x="523.144531" xlink:href="#DejaVuSans-51"/>
     <use x="586.767578" xlink:href="#DejaVuSans-44"/>
     <use x="618.554688" xlink:href="#DejaVuSans-32"/>
     <use x="650.341797" xlink:href="#DejaVuSans-54"/>
     <use x="713.964844" xlink:href="#DejaVuSans-44"/>
     <use x="745.751953" xlink:href="#DejaVuSans-32"/>
     <use x="777.539062" xlink:href="#DejaVuSans-55"/>
     <use x="841.162109" xlink:href="#DejaVuSans-93"/>
    </g>
   </g>
   <g id="patch_20">
    <path d="M 413.068104 39.008857 
Q 360.672902 7.774556 307.317357 -24.032233 
" style="fill:none;stroke:#000000;stroke-linecap:round;"/>
    <path d="M 412.308521 37.822706 
L 413.068104 39.008857 
L 411.663434 38.904833 
" style="fill:none;stroke:#000000;stroke-linecap:round;"/>
   </g>
   <g id="text_10">
    <g id="patch_21">
     <path d="M 385.874302 56.623137 
L 473.325698 56.623137 
Q 474.27056 56.623137 474.27056 55.678275 
L 474.27056 42.049725 
Q 474.27056 41.104863 473.325698 41.104863 
L 385.874302 41.104863 
Q 384.92944 41.104863 384.92944 42.049725 
L 384.92944 55.678275 
Q 384.92944 56.623137 385.874302 56.623137 
z
" style="fill:#88efb3;stroke:#000000;stroke-linejoin:miter;"/>
    </g>
    <!-- Proportion of numeric attributes with outliers &lt;= 0.312 -->
    <defs>
     <path d="M 19.671875 64.796875 
L 19.671875 37.40625 
L 32.078125 37.40625 
Q 38.96875 37.40625 42.71875 40.96875 
Q 46.484375 44.53125 46.484375 51.125 
Q 46.484375 57.671875 42.71875 61.234375 
Q 38.96875 64.796875 32.078125 64.796875 
z
M 9.8125 72.90625 
L 32.078125 72.90625 
Q 44.34375 72.90625 50.609375 67.359375 
Q 56.890625 61.8125 56.890625 51.125 
Q 56.890625 40.328125 50.609375 34.8125 
Q 44.34375 29.296875 32.078125 29.296875 
L 19.671875 29.296875 
L 19.671875 0 
L 9.8125 0 
z
" id="DejaVuSans-80"/>
     <path d="M 37.109375 75.984375 
L 37.109375 68.5 
L 28.515625 68.5 
Q 23.6875 68.5 21.796875 66.546875 
Q 19.921875 64.59375 19.921875 59.515625 
L 19.921875 54.6875 
L 34.71875 54.6875 
L 34.71875 47.703125 
L 19.921875 47.703125 
L 19.921875 0 
L 10.890625 0 
L 10.890625 47.703125 
L 2.296875 47.703125 
L 2.296875 54.6875 
L 10.890625 54.6875 
L 10.890625 58.5 
Q 10.890625 67.625 15.140625 71.796875 
Q 19.390625 75.984375 28.609375 75.984375 
z
" id="DejaVuSans-102"/>
     <path d="M 48.78125 52.59375 
L 48.78125 44.1875 
Q 44.96875 46.296875 41.140625 47.34375 
Q 37.3125 48.390625 33.40625 48.390625 
Q 24.65625 48.390625 19.8125 42.84375 
Q 14.984375 37.3125 14.984375 27.296875 
Q 14.984375 17.28125 19.8125 11.734375 
Q 24.65625 6.203125 33.40625 6.203125 
Q 37.3125 6.203125 41.140625 7.25 
Q 44.96875 8.296875 48.78125 10.40625 
L 48.78125 2.09375 
Q 45.015625 0.34375 40.984375 -0.53125 
Q 36.96875 -1.421875 32.421875 -1.421875 
Q 20.0625 -1.421875 12.78125 6.34375 
Q 5.515625 14.109375 5.515625 27.296875 
Q 5.515625 40.671875 12.859375 48.328125 
Q 20.21875 56 33.015625 56 
Q 37.15625 56 41.109375 55.140625 
Q 45.0625 54.296875 48.78125 52.59375 
z
" id="DejaVuSans-99"/>
     <path d="M 4.203125 54.6875 
L 13.1875 54.6875 
L 24.421875 12.015625 
L 35.59375 54.6875 
L 46.1875 54.6875 
L 57.421875 12.015625 
L 68.609375 54.6875 
L 77.59375 54.6875 
L 63.28125 0 
L 52.6875 0 
L 40.921875 44.828125 
L 29.109375 0 
L 18.5 0 
z
" id="DejaVuSans-119"/>
     <path d="M 54.890625 33.015625 
L 54.890625 0 
L 45.90625 0 
L 45.90625 32.71875 
Q 45.90625 40.484375 42.875 44.328125 
Q 39.84375 48.1875 33.796875 48.1875 
Q 26.515625 48.1875 22.3125 43.546875 
Q 18.109375 38.921875 18.109375 30.90625 
L 18.109375 0 
L 9.078125 0 
L 9.078125 75.984375 
L 18.109375 75.984375 
L 18.109375 46.1875 
Q 21.34375 51.125 25.703125 53.5625 
Q 30.078125 56 35.796875 56 
Q 45.21875 56 50.046875 50.171875 
Q 54.890625 44.34375 54.890625 33.015625 
z
" id="DejaVuSans-104"/>
    </defs>
    <g transform="translate(385.874302 44.442883)scale(0.031495 -0.031495)">
     <use xlink:href="#DejaVuSans-80"/>
     <use x="60.287109" xlink:href="#DejaVuSans-114"/>
     <use x="101.369141" xlink:href="#DejaVuSans-111"/>
     <use x="162.550781" xlink:href="#DejaVuSans-112"/>
     <use x="226.027344" xlink:href="#DejaVuSans-111"/>
     <use x="287.208984" xlink:href="#DejaVuSans-114"/>
     <use x="328.322266" xlink:href="#DejaVuSans-116"/>
     <use x="367.53125" xlink:href="#DejaVuSans-105"/>
     <use x="395.314453" xlink:href="#DejaVuSans-111"/>
     <use x="456.496094" xlink:href="#DejaVuSans-110"/>
     <use x="519.875" xlink:href="#DejaVuSans-32"/>
     <use x="551.662109" xlink:href="#DejaVuSans-111"/>
     <use x="612.84375" xlink:href="#DejaVuSans-102"/>
     <use x="648.048828" xlink:href="#DejaVuSans-32"/>
     <use x="679.835938" xlink:href="#DejaVuSans-110"/>
     <use x="743.214844" xlink:href="#DejaVuSans-117"/>
     <use x="806.59375" xlink:href="#DejaVuSans-109"/>
     <use x="904.005859" xlink:href="#DejaVuSans-101"/>
     <use x="965.529297" xlink:href="#DejaVuSans-114"/>
     <use x="1006.642578" xlink:href="#DejaVuSans-105"/>
     <use x="1034.425781" xlink:href="#DejaVuSans-99"/>
     <use x="1089.40625" xlink:href="#DejaVuSans-32"/>
     <use x="1121.193359" xlink:href="#DejaVuSans-97"/>
     <use x="1182.472656" xlink:href="#DejaVuSans-116"/>
     <use x="1221.681641" xlink:href="#DejaVuSans-116"/>
     <use x="1260.890625" xlink:href="#DejaVuSans-114"/>
     <use x="1302.003906" xlink:href="#DejaVuSans-105"/>
     <use x="1329.787109" xlink:href="#DejaVuSans-98"/>
     <use x="1393.263672" xlink:href="#DejaVuSans-117"/>
     <use x="1456.642578" xlink:href="#DejaVuSans-116"/>
     <use x="1495.851562" xlink:href="#DejaVuSans-101"/>
     <use x="1557.375" xlink:href="#DejaVuSans-115"/>
     <use x="1609.474609" xlink:href="#DejaVuSans-32"/>
     <use x="1641.261719" xlink:href="#DejaVuSans-119"/>
     <use x="1723.048828" xlink:href="#DejaVuSans-105"/>
     <use x="1750.832031" xlink:href="#DejaVuSans-116"/>
     <use x="1790.041016" xlink:href="#DejaVuSans-104"/>
     <use x="1853.419922" xlink:href="#DejaVuSans-32"/>
     <use x="1885.207031" xlink:href="#DejaVuSans-111"/>
     <use x="1946.388672" xlink:href="#DejaVuSans-117"/>
     <use x="2009.767578" xlink:href="#DejaVuSans-116"/>
     <use x="2048.976562" xlink:href="#DejaVuSans-108"/>
     <use x="2076.759766" xlink:href="#DejaVuSans-105"/>
     <use x="2104.542969" xlink:href="#DejaVuSans-101"/>
     <use x="2166.066406" xlink:href="#DejaVuSans-114"/>
     <use x="2207.179688" xlink:href="#DejaVuSans-115"/>
     <use x="2259.279297" xlink:href="#DejaVuSans-32"/>
     <use x="2291.066406" xlink:href="#DejaVuSans-60"/>
     <use x="2374.855469" xlink:href="#DejaVuSans-61"/>
     <use x="2458.644531" xlink:href="#DejaVuSans-32"/>
     <use x="2490.431641" xlink:href="#DejaVuSans-48"/>
     <use x="2554.054688" xlink:href="#DejaVuSans-46"/>
     <use x="2585.841797" xlink:href="#DejaVuSans-51"/>
     <use x="2649.464844" xlink:href="#DejaVuSans-49"/>
     <use x="2713.087891" xlink:href="#DejaVuSans-50"/>
    </g>
    <!-- gini = 0.408 -->
    <g transform="translate(419.898434 47.969678)scale(0.031495 -0.031495)">
     <use xlink:href="#DejaVuSans-103"/>
     <use x="63.476562" xlink:href="#DejaVuSans-105"/>
     <use x="91.259766" xlink:href="#DejaVuSans-110"/>
     <use x="154.638672" xlink:href="#DejaVuSans-105"/>
     <use x="182.421875" xlink:href="#DejaVuSans-32"/>
     <use x="214.208984" xlink:href="#DejaVuSans-61"/>
     <use x="297.998047" xlink:href="#DejaVuSans-32"/>
     <use x="329.785156" xlink:href="#DejaVuSans-48"/>
     <use x="393.408203" xlink:href="#DejaVuSans-46"/>
     <use x="425.195312" xlink:href="#DejaVuSans-52"/>
     <use x="488.818359" xlink:href="#DejaVuSans-48"/>
     <use x="552.441406" xlink:href="#DejaVuSans-56"/>
    </g>
    <!-- samples = 14 -->
    <g transform="translate(418.729659 51.496474)scale(0.031495 -0.031495)">
     <use xlink:href="#DejaVuSans-115"/>
     <use x="52.099609" xlink:href="#DejaVuSans-97"/>
     <use x="113.378906" xlink:href="#DejaVuSans-109"/>
     <use x="210.791016" xlink:href="#DejaVuSans-112"/>
     <use x="274.267578" xlink:href="#DejaVuSans-108"/>
     <use x="302.050781" xlink:href="#DejaVuSans-101"/>
     <use x="363.574219" xlink:href="#DejaVuSans-115"/>
     <use x="415.673828" xlink:href="#DejaVuSans-32"/>
     <use x="447.460938" xlink:href="#DejaVuSans-61"/>
     <use x="531.25" xlink:href="#DejaVuSans-32"/>
     <use x="563.037109" xlink:href="#DejaVuSans-49"/>
     <use x="626.660156" xlink:href="#DejaVuSans-52"/>
    </g>
    <!-- value = [4, 10, 0] -->
    <g transform="translate(415.739319 55.023269)scale(0.031495 -0.031495)">
     <use xlink:href="#DejaVuSans-118"/>
     <use x="59.179688" xlink:href="#DejaVuSans-97"/>
     <use x="120.458984" xlink:href="#DejaVuSans-108"/>
     <use x="148.242188" xlink:href="#DejaVuSans-117"/>
     <use x="211.621094" xlink:href="#DejaVuSans-101"/>
     <use x="273.144531" xlink:href="#DejaVuSans-32"/>
     <use x="304.931641" xlink:href="#DejaVuSans-61"/>
     <use x="388.720703" xlink:href="#DejaVuSans-32"/>
     <use x="420.507812" xlink:href="#DejaVuSans-91"/>
     <use x="459.521484" xlink:href="#DejaVuSans-52"/>
     <use x="523.144531" xlink:href="#DejaVuSans-44"/>
     <use x="554.931641" xlink:href="#DejaVuSans-32"/>
     <use x="586.71875" xlink:href="#DejaVuSans-49"/>
     <use x="650.341797" xlink:href="#DejaVuSans-48"/>
     <use x="713.964844" xlink:href="#DejaVuSans-44"/>
     <use x="745.751953" xlink:href="#DejaVuSans-32"/>
     <use x="777.539062" xlink:href="#DejaVuSans-48"/>
     <use x="841.162109" xlink:href="#DejaVuSans-93"/>
    </g>
   </g>
   <g id="text_11">
    <g id="patch_22">
     <path d="M 267.308734 -17.296863 
L 343.891266 -17.296863 
Q 344.836128 -17.296863 344.836128 -18.241725 
L 344.836128 -31.870275 
Q 344.836128 -32.815137 343.891266 -32.815137 
L 267.308734 -32.815137 
Q 266.363872 -32.815137 266.363872 -31.870275 
L 266.363872 -18.241725 
Q 266.363872 -17.296863 267.308734 -17.296863 
z
" style="fill:#fefaf7;stroke:#000000;stroke-linejoin:miter;"/>
    </g>
    <!-- Standard deviation of label cardinality &lt;= 0.042 -->
    <defs>
     <path d="M 53.515625 70.515625 
L 53.515625 60.890625 
Q 47.90625 63.578125 42.921875 64.890625 
Q 37.9375 66.21875 33.296875 66.21875 
Q 25.25 66.21875 20.875 63.09375 
Q 16.5 59.96875 16.5 54.203125 
Q 16.5 49.359375 19.40625 46.890625 
Q 22.3125 44.4375 30.421875 42.921875 
L 36.375 41.703125 
Q 47.40625 39.59375 52.65625 34.296875 
Q 57.90625 29 57.90625 20.125 
Q 57.90625 9.515625 50.796875 4.046875 
Q 43.703125 -1.421875 29.984375 -1.421875 
Q 24.8125 -1.421875 18.96875 -0.25 
Q 13.140625 0.921875 6.890625 3.21875 
L 6.890625 13.375 
Q 12.890625 10.015625 18.65625 8.296875 
Q 24.421875 6.59375 29.984375 6.59375 
Q 38.421875 6.59375 43.015625 9.90625 
Q 47.609375 13.234375 47.609375 19.390625 
Q 47.609375 24.75 44.3125 27.78125 
Q 41.015625 30.8125 33.5 32.328125 
L 27.484375 33.5 
Q 16.453125 35.6875 11.515625 40.375 
Q 6.59375 45.0625 6.59375 53.421875 
Q 6.59375 63.09375 13.40625 68.65625 
Q 20.21875 74.21875 32.171875 74.21875 
Q 37.3125 74.21875 42.625 73.28125 
Q 47.953125 72.359375 53.515625 70.515625 
z
" id="DejaVuSans-83"/>
     <path d="M 45.40625 46.390625 
L 45.40625 75.984375 
L 54.390625 75.984375 
L 54.390625 0 
L 45.40625 0 
L 45.40625 8.203125 
Q 42.578125 3.328125 38.25 0.953125 
Q 33.9375 -1.421875 27.875 -1.421875 
Q 17.96875 -1.421875 11.734375 6.484375 
Q 5.515625 14.40625 5.515625 27.296875 
Q 5.515625 40.1875 11.734375 48.09375 
Q 17.96875 56 27.875 56 
Q 33.9375 56 38.25 53.625 
Q 42.578125 51.265625 45.40625 46.390625 
z
M 14.796875 27.296875 
Q 14.796875 17.390625 18.875 11.75 
Q 22.953125 6.109375 30.078125 6.109375 
Q 37.203125 6.109375 41.296875 11.75 
Q 45.40625 17.390625 45.40625 27.296875 
Q 45.40625 37.203125 41.296875 42.84375 
Q 37.203125 48.484375 30.078125 48.484375 
Q 22.953125 48.484375 18.875 42.84375 
Q 14.796875 37.203125 14.796875 27.296875 
z
" id="DejaVuSans-100"/>
    </defs>
    <g transform="translate(267.308734 -29.477117)scale(0.031495 -0.031495)">
     <use xlink:href="#DejaVuSans-83"/>
     <use x="63.476562" xlink:href="#DejaVuSans-116"/>
     <use x="102.685547" xlink:href="#DejaVuSans-97"/>
     <use x="163.964844" xlink:href="#DejaVuSans-110"/>
     <use x="227.34375" xlink:href="#DejaVuSans-100"/>
     <use x="290.820312" xlink:href="#DejaVuSans-97"/>
     <use x="352.099609" xlink:href="#DejaVuSans-114"/>
     <use x="393.197266" xlink:href="#DejaVuSans-100"/>
     <use x="456.673828" xlink:href="#DejaVuSans-32"/>
     <use x="488.460938" xlink:href="#DejaVuSans-100"/>
     <use x="551.9375" xlink:href="#DejaVuSans-101"/>
     <use x="613.460938" xlink:href="#DejaVuSans-118"/>
     <use x="672.640625" xlink:href="#DejaVuSans-105"/>
     <use x="700.423828" xlink:href="#DejaVuSans-97"/>
     <use x="761.703125" xlink:href="#DejaVuSans-116"/>
     <use x="800.912109" xlink:href="#DejaVuSans-105"/>
     <use x="828.695312" xlink:href="#DejaVuSans-111"/>
     <use x="889.876953" xlink:href="#DejaVuSans-110"/>
     <use x="953.255859" xlink:href="#DejaVuSans-32"/>
     <use x="985.042969" xlink:href="#DejaVuSans-111"/>
     <use x="1046.224609" xlink:href="#DejaVuSans-102"/>
     <use x="1081.429688" xlink:href="#DejaVuSans-32"/>
     <use x="1113.216797" xlink:href="#DejaVuSans-108"/>
     <use x="1141" xlink:href="#DejaVuSans-97"/>
     <use x="1202.279297" xlink:href="#DejaVuSans-98"/>
     <use x="1265.755859" xlink:href="#DejaVuSans-101"/>
     <use x="1327.279297" xlink:href="#DejaVuSans-108"/>
     <use x="1355.0625" xlink:href="#DejaVuSans-32"/>
     <use x="1386.849609" xlink:href="#DejaVuSans-99"/>
     <use x="1441.830078" xlink:href="#DejaVuSans-97"/>
     <use x="1503.109375" xlink:href="#DejaVuSans-114"/>
     <use x="1544.207031" xlink:href="#DejaVuSans-100"/>
     <use x="1607.683594" xlink:href="#DejaVuSans-105"/>
     <use x="1635.466797" xlink:href="#DejaVuSans-110"/>
     <use x="1698.845703" xlink:href="#DejaVuSans-97"/>
     <use x="1760.125" xlink:href="#DejaVuSans-108"/>
     <use x="1787.908203" xlink:href="#DejaVuSans-105"/>
     <use x="1815.691406" xlink:href="#DejaVuSans-116"/>
     <use x="1854.900391" xlink:href="#DejaVuSans-121"/>
     <use x="1914.080078" xlink:href="#DejaVuSans-32"/>
     <use x="1945.867188" xlink:href="#DejaVuSans-60"/>
     <use x="2029.65625" xlink:href="#DejaVuSans-61"/>
     <use x="2113.445312" xlink:href="#DejaVuSans-32"/>
     <use x="2145.232422" xlink:href="#DejaVuSans-48"/>
     <use x="2208.855469" xlink:href="#DejaVuSans-46"/>
     <use x="2240.642578" xlink:href="#DejaVuSans-48"/>
     <use x="2304.265625" xlink:href="#DejaVuSans-52"/>
     <use x="2367.888672" xlink:href="#DejaVuSans-50"/>
    </g>
    <!-- gini = 0.629 -->
    <g transform="translate(295.898434 -25.950322)scale(0.031495 -0.031495)">
     <use xlink:href="#DejaVuSans-103"/>
     <use x="63.476562" xlink:href="#DejaVuSans-105"/>
     <use x="91.259766" xlink:href="#DejaVuSans-110"/>
     <use x="154.638672" xlink:href="#DejaVuSans-105"/>
     <use x="182.421875" xlink:href="#DejaVuSans-32"/>
     <use x="214.208984" xlink:href="#DejaVuSans-61"/>
     <use x="297.998047" xlink:href="#DejaVuSans-32"/>
     <use x="329.785156" xlink:href="#DejaVuSans-48"/>
     <use x="393.408203" xlink:href="#DejaVuSans-46"/>
     <use x="425.195312" xlink:href="#DejaVuSans-54"/>
     <use x="488.818359" xlink:href="#DejaVuSans-50"/>
     <use x="552.441406" xlink:href="#DejaVuSans-57"/>
    </g>
    <!-- samples = 40 -->
    <g transform="translate(294.729659 -22.423526)scale(0.031495 -0.031495)">
     <use xlink:href="#DejaVuSans-115"/>
     <use x="52.099609" xlink:href="#DejaVuSans-97"/>
     <use x="113.378906" xlink:href="#DejaVuSans-109"/>
     <use x="210.791016" xlink:href="#DejaVuSans-112"/>
     <use x="274.267578" xlink:href="#DejaVuSans-108"/>
     <use x="302.050781" xlink:href="#DejaVuSans-101"/>
     <use x="363.574219" xlink:href="#DejaVuSans-115"/>
     <use x="415.673828" xlink:href="#DejaVuSans-32"/>
     <use x="447.460938" xlink:href="#DejaVuSans-61"/>
     <use x="531.25" xlink:href="#DejaVuSans-32"/>
     <use x="563.037109" xlink:href="#DejaVuSans-52"/>
     <use x="626.660156" xlink:href="#DejaVuSans-48"/>
    </g>
    <!-- value = [17, 16, 7] -->
    <g transform="translate(290.737372 -18.896731)scale(0.031495 -0.031495)">
     <use xlink:href="#DejaVuSans-118"/>
     <use x="59.179688" xlink:href="#DejaVuSans-97"/>
     <use x="120.458984" xlink:href="#DejaVuSans-108"/>
     <use x="148.242188" xlink:href="#DejaVuSans-117"/>
     <use x="211.621094" xlink:href="#DejaVuSans-101"/>
     <use x="273.144531" xlink:href="#DejaVuSans-32"/>
     <use x="304.931641" xlink:href="#DejaVuSans-61"/>
     <use x="388.720703" xlink:href="#DejaVuSans-32"/>
     <use x="420.507812" xlink:href="#DejaVuSans-91"/>
     <use x="459.521484" xlink:href="#DejaVuSans-49"/>
     <use x="523.144531" xlink:href="#DejaVuSans-55"/>
     <use x="586.767578" xlink:href="#DejaVuSans-44"/>
     <use x="618.554688" xlink:href="#DejaVuSans-32"/>
     <use x="650.341797" xlink:href="#DejaVuSans-49"/>
     <use x="713.964844" xlink:href="#DejaVuSans-54"/>
     <use x="777.587891" xlink:href="#DejaVuSans-44"/>
     <use x="809.375" xlink:href="#DejaVuSans-32"/>
     <use x="841.162109" xlink:href="#DejaVuSans-55"/>
     <use x="904.785156" xlink:href="#DejaVuSans-93"/>
    </g>
   </g>
  </g>
 </g>
</svg>
