<?xml version="1.0" encoding="utf-8" standalone="no"?>
<!DOCTYPE svg PUBLIC "-//W3C//DTD SVG 1.1//EN"
  "http://www.w3.org/Graphics/SVG/1.1/DTD/svg11.dtd">
<!-- Created with matplotlib (https://matplotlib.org/) -->
<svg height="345.6pt" version="1.1" viewBox="0 0 460.8 345.6" width="460.8pt" xmlns="http://www.w3.org/2000/svg" xmlns:xlink="http://www.w3.org/1999/xlink">
 <defs>
  <style type="text/css">
*{stroke-linecap:butt;stroke-linejoin:round;}
  </style>
 </defs>
 <g id="figure_1">
  <g id="patch_1">
   <path d="M 0 345.6 
L 460.8 345.6 
L 460.8 0 
L 0 0 
z
" style="fill:#ffffff;"/>
  </g>
  <g id="axes_1">
   <g id="patch_2">
    <path d="M 154.059006 272.374699 
Q 187.182385 251.218477 221.248003 229.460437 
" style="fill:none;stroke:#000000;stroke-linecap:round;"/>
    <path d="M 155.608043 272.211842 
L 154.059006 272.374699 
L 154.858142 271.037756 
" style="fill:none;stroke:#000000;stroke-linecap:round;"/>
   </g>
   <g id="text_1">
    <g id="patch_3">
     <path d="M 124.939176 287.81424 
L 155.594157 287.81424 
Q 156.639009 287.81424 156.639009 286.769388 
L 156.639009 275.598612 
Q 156.639009 274.55376 155.594157 274.55376 
L 124.939176 274.55376 
Q 123.894324 274.55376 123.894324 275.598612 
L 123.894324 286.769388 
Q 123.894324 287.81424 124.939176 287.81424 
z
" style="fill:#39e581;stroke:#000000;stroke-linejoin:miter;"/>
    </g>
    <!-- gini = 0.0 -->
    <defs>
     <path d="M 45.40625 27.984375 
Q 45.40625 37.75 41.375 43.109375 
Q 37.359375 48.484375 30.078125 48.484375 
Q 22.859375 48.484375 18.828125 43.109375 
Q 14.796875 37.75 14.796875 27.984375 
Q 14.796875 18.265625 18.828125 12.890625 
Q 22.859375 7.515625 30.078125 7.515625 
Q 37.359375 7.515625 41.375 12.890625 
Q 45.40625 18.265625 45.40625 27.984375 
z
M 54.390625 6.78125 
Q 54.390625 -7.171875 48.1875 -13.984375 
Q 42 -20.796875 29.203125 -20.796875 
Q 24.46875 -20.796875 20.265625 -20.09375 
Q 16.0625 -19.390625 12.109375 -17.921875 
L 12.109375 -9.1875 
Q 16.0625 -11.328125 19.921875 -12.34375 
Q 23.78125 -13.375 27.78125 -13.375 
Q 36.625 -13.375 41.015625 -8.765625 
Q 45.40625 -4.15625 45.40625 5.171875 
L 45.40625 9.625 
Q 42.625 4.78125 38.28125 2.390625 
Q 33.9375 0 27.875 0 
Q 17.828125 0 11.671875 7.65625 
Q 5.515625 15.328125 5.515625 27.984375 
Q 5.515625 40.671875 11.671875 48.328125 
Q 17.828125 56 27.875 56 
Q 33.9375 56 38.28125 53.609375 
Q 42.625 51.21875 45.40625 46.390625 
L 45.40625 54.6875 
L 54.390625 54.6875 
z
" id="DejaVuSans-103"/>
     <path d="M 9.421875 54.6875 
L 18.40625 54.6875 
L 18.40625 0 
L 9.421875 0 
z
M 9.421875 75.984375 
L 18.40625 75.984375 
L 18.40625 64.59375 
L 9.421875 64.59375 
z
" id="DejaVuSans-105"/>
     <path d="M 54.890625 33.015625 
L 54.890625 0 
L 45.90625 0 
L 45.90625 32.71875 
Q 45.90625 40.484375 42.875 44.328125 
Q 39.84375 48.1875 33.796875 48.1875 
Q 26.515625 48.1875 22.3125 43.546875 
Q 18.109375 38.921875 18.109375 30.90625 
L 18.109375 0 
L 9.078125 0 
L 9.078125 54.6875 
L 18.109375 54.6875 
L 18.109375 46.1875 
Q 21.34375 51.125 25.703125 53.5625 
Q 30.078125 56 35.796875 56 
Q 45.21875 56 50.046875 50.171875 
Q 54.890625 44.34375 54.890625 33.015625 
z
" id="DejaVuSans-110"/>
     <path id="DejaVuSans-32"/>
     <path d="M 10.59375 45.40625 
L 73.1875 45.40625 
L 73.1875 37.203125 
L 10.59375 37.203125 
z
M 10.59375 25.484375 
L 73.1875 25.484375 
L 73.1875 17.1875 
L 10.59375 17.1875 
z
" id="DejaVuSans-61"/>
     <path d="M 31.78125 66.40625 
Q 24.171875 66.40625 20.328125 58.90625 
Q 16.5 51.421875 16.5 36.375 
Q 16.5 21.390625 20.328125 13.890625 
Q 24.171875 6.390625 31.78125 6.390625 
Q 39.453125 6.390625 43.28125 13.890625 
Q 47.125 21.390625 47.125 36.375 
Q 47.125 51.421875 43.28125 58.90625 
Q 39.453125 66.40625 31.78125 66.40625 
z
M 31.78125 74.21875 
Q 44.046875 74.21875 50.515625 64.515625 
Q 56.984375 54.828125 56.984375 36.375 
Q 56.984375 17.96875 50.515625 8.265625 
Q 44.046875 -1.421875 31.78125 -1.421875 
Q 19.53125 -1.421875 13.0625 8.265625 
Q 6.59375 17.96875 6.59375 36.375 
Q 6.59375 54.828125 13.0625 64.515625 
Q 19.53125 74.21875 31.78125 74.21875 
z
" id="DejaVuSans-48"/>
     <path d="M 10.6875 12.40625 
L 21 12.40625 
L 21 0 
L 10.6875 0 
z
" id="DejaVuSans-46"/>
    </defs>
    <g transform="translate(131.754387 278.245027)scale(0.034828 -0.034828)">
     <use xlink:href="#DejaVuSans-103"/>
     <use x="63.476562" xlink:href="#DejaVuSans-105"/>
     <use x="91.259766" xlink:href="#DejaVuSans-110"/>
     <use x="154.638672" xlink:href="#DejaVuSans-105"/>
     <use x="182.421875" xlink:href="#DejaVuSans-32"/>
     <use x="214.208984" xlink:href="#DejaVuSans-61"/>
     <use x="297.998047" xlink:href="#DejaVuSans-32"/>
     <use x="329.785156" xlink:href="#DejaVuSans-48"/>
     <use x="393.408203" xlink:href="#DejaVuSans-46"/>
     <use x="425.195312" xlink:href="#DejaVuSans-48"/>
    </g>
    <!-- samples = 13 -->
    <defs>
     <path d="M 44.28125 53.078125 
L 44.28125 44.578125 
Q 40.484375 46.53125 36.375 47.5 
Q 32.28125 48.484375 27.875 48.484375 
Q 21.1875 48.484375 17.84375 46.4375 
Q 14.5 44.390625 14.5 40.28125 
Q 14.5 37.15625 16.890625 35.375 
Q 19.28125 33.59375 26.515625 31.984375 
L 29.59375 31.296875 
Q 39.15625 29.25 43.1875 25.515625 
Q 47.21875 21.78125 47.21875 15.09375 
Q 47.21875 7.46875 41.1875 3.015625 
Q 35.15625 -1.421875 24.609375 -1.421875 
Q 20.21875 -1.421875 15.453125 -0.5625 
Q 10.6875 0.296875 5.421875 2 
L 5.421875 11.28125 
Q 10.40625 8.6875 15.234375 7.390625 
Q 20.0625 6.109375 24.8125 6.109375 
Q 31.15625 6.109375 34.5625 8.28125 
Q 37.984375 10.453125 37.984375 14.40625 
Q 37.984375 18.0625 35.515625 20.015625 
Q 33.0625 21.96875 24.703125 23.78125 
L 21.578125 24.515625 
Q 13.234375 26.265625 9.515625 29.90625 
Q 5.8125 33.546875 5.8125 39.890625 
Q 5.8125 47.609375 11.28125 51.796875 
Q 16.75 56 26.8125 56 
Q 31.78125 56 36.171875 55.265625 
Q 40.578125 54.546875 44.28125 53.078125 
z
" id="DejaVuSans-115"/>
     <path d="M 34.28125 27.484375 
Q 23.390625 27.484375 19.1875 25 
Q 14.984375 22.515625 14.984375 16.5 
Q 14.984375 11.71875 18.140625 8.90625 
Q 21.296875 6.109375 26.703125 6.109375 
Q 34.1875 6.109375 38.703125 11.40625 
Q 43.21875 16.703125 43.21875 25.484375 
L 43.21875 27.484375 
z
M 52.203125 31.203125 
L 52.203125 0 
L 43.21875 0 
L 43.21875 8.296875 
Q 40.140625 3.328125 35.546875 0.953125 
Q 30.953125 -1.421875 24.3125 -1.421875 
Q 15.921875 -1.421875 10.953125 3.296875 
Q 6 8.015625 6 15.921875 
Q 6 25.140625 12.171875 29.828125 
Q 18.359375 34.515625 30.609375 34.515625 
L 43.21875 34.515625 
L 43.21875 35.40625 
Q 43.21875 41.609375 39.140625 45 
Q 35.0625 48.390625 27.6875 48.390625 
Q 23 48.390625 18.546875 47.265625 
Q 14.109375 46.140625 10.015625 43.890625 
L 10.015625 52.203125 
Q 14.9375 54.109375 19.578125 55.046875 
Q 24.21875 56 28.609375 56 
Q 40.484375 56 46.34375 49.84375 
Q 52.203125 43.703125 52.203125 31.203125 
z
" id="DejaVuSans-97"/>
     <path d="M 52 44.1875 
Q 55.375 50.25 60.0625 53.125 
Q 64.75 56 71.09375 56 
Q 79.640625 56 84.28125 50.015625 
Q 88.921875 44.046875 88.921875 33.015625 
L 88.921875 0 
L 79.890625 0 
L 79.890625 32.71875 
Q 79.890625 40.578125 77.09375 44.375 
Q 74.3125 48.1875 68.609375 48.1875 
Q 61.625 48.1875 57.5625 43.546875 
Q 53.515625 38.921875 53.515625 30.90625 
L 53.515625 0 
L 44.484375 0 
L 44.484375 32.71875 
Q 44.484375 40.625 41.703125 44.40625 
Q 38.921875 48.1875 33.109375 48.1875 
Q 26.21875 48.1875 22.15625 43.53125 
Q 18.109375 38.875 18.109375 30.90625 
L 18.109375 0 
L 9.078125 0 
L 9.078125 54.6875 
L 18.109375 54.6875 
L 18.109375 46.1875 
Q 21.1875 51.21875 25.484375 53.609375 
Q 29.78125 56 35.6875 56 
Q 41.65625 56 45.828125 52.96875 
Q 50 49.953125 52 44.1875 
z
" id="DejaVuSans-109"/>
     <path d="M 18.109375 8.203125 
L 18.109375 -20.796875 
L 9.078125 -20.796875 
L 9.078125 54.6875 
L 18.109375 54.6875 
L 18.109375 46.390625 
Q 20.953125 51.265625 25.265625 53.625 
Q 29.59375 56 35.59375 56 
Q 45.5625 56 51.78125 48.09375 
Q 58.015625 40.1875 58.015625 27.296875 
Q 58.015625 14.40625 51.78125 6.484375 
Q 45.5625 -1.421875 35.59375 -1.421875 
Q 29.59375 -1.421875 25.265625 0.953125 
Q 20.953125 3.328125 18.109375 8.203125 
z
M 48.6875 27.296875 
Q 48.6875 37.203125 44.609375 42.84375 
Q 40.53125 48.484375 33.40625 48.484375 
Q 26.265625 48.484375 22.1875 42.84375 
Q 18.109375 37.203125 18.109375 27.296875 
Q 18.109375 17.390625 22.1875 11.75 
Q 26.265625 6.109375 33.40625 6.109375 
Q 40.53125 6.109375 44.609375 11.75 
Q 48.6875 17.390625 48.6875 27.296875 
z
" id="DejaVuSans-112"/>
     <path d="M 9.421875 75.984375 
L 18.40625 75.984375 
L 18.40625 0 
L 9.421875 0 
z
" id="DejaVuSans-108"/>
     <path d="M 56.203125 29.59375 
L 56.203125 25.203125 
L 14.890625 25.203125 
Q 15.484375 15.921875 20.484375 11.0625 
Q 25.484375 6.203125 34.421875 6.203125 
Q 39.59375 6.203125 44.453125 7.46875 
Q 49.3125 8.734375 54.109375 11.28125 
L 54.109375 2.78125 
Q 49.265625 0.734375 44.1875 -0.34375 
Q 39.109375 -1.421875 33.890625 -1.421875 
Q 20.796875 -1.421875 13.15625 6.1875 
Q 5.515625 13.8125 5.515625 26.8125 
Q 5.515625 40.234375 12.765625 48.109375 
Q 20.015625 56 32.328125 56 
Q 43.359375 56 49.78125 48.890625 
Q 56.203125 41.796875 56.203125 29.59375 
z
M 47.21875 32.234375 
Q 47.125 39.59375 43.09375 43.984375 
Q 39.0625 48.390625 32.421875 48.390625 
Q 24.90625 48.390625 20.390625 44.140625 
Q 15.875 39.890625 15.1875 32.171875 
z
" id="DejaVuSans-101"/>
     <path d="M 12.40625 8.296875 
L 28.515625 8.296875 
L 28.515625 63.921875 
L 10.984375 60.40625 
L 10.984375 69.390625 
L 28.421875 72.90625 
L 38.28125 72.90625 
L 38.28125 8.296875 
L 54.390625 8.296875 
L 54.390625 0 
L 12.40625 0 
z
" id="DejaVuSans-49"/>
     <path d="M 40.578125 39.3125 
Q 47.65625 37.796875 51.625 33 
Q 55.609375 28.21875 55.609375 21.1875 
Q 55.609375 10.40625 48.1875 4.484375 
Q 40.765625 -1.421875 27.09375 -1.421875 
Q 22.515625 -1.421875 17.65625 -0.515625 
Q 12.796875 0.390625 7.625 2.203125 
L 7.625 11.71875 
Q 11.71875 9.328125 16.59375 8.109375 
Q 21.484375 6.890625 26.8125 6.890625 
Q 36.078125 6.890625 40.9375 10.546875 
Q 45.796875 14.203125 45.796875 21.1875 
Q 45.796875 27.640625 41.28125 31.265625 
Q 36.765625 34.90625 28.71875 34.90625 
L 20.21875 34.90625 
L 20.21875 43.015625 
L 29.109375 43.015625 
Q 36.375 43.015625 40.234375 45.921875 
Q 44.09375 48.828125 44.09375 54.296875 
Q 44.09375 59.90625 40.109375 62.90625 
Q 36.140625 65.921875 28.71875 65.921875 
Q 24.65625 65.921875 20.015625 65.03125 
Q 15.375 64.15625 9.8125 62.3125 
L 9.8125 71.09375 
Q 15.4375 72.65625 20.34375 73.4375 
Q 25.25 74.21875 29.59375 74.21875 
Q 40.828125 74.21875 47.359375 69.109375 
Q 53.90625 64.015625 53.90625 55.328125 
Q 53.90625 49.265625 50.4375 45.09375 
Q 46.96875 40.921875 40.578125 39.3125 
z
" id="DejaVuSans-51"/>
    </defs>
    <g transform="translate(128.24597 282.145046)scale(0.034828 -0.034828)">
     <use xlink:href="#DejaVuSans-115"/>
     <use x="52.099609" xlink:href="#DejaVuSans-97"/>
     <use x="113.378906" xlink:href="#DejaVuSans-109"/>
     <use x="210.791016" xlink:href="#DejaVuSans-112"/>
     <use x="274.267578" xlink:href="#DejaVuSans-108"/>
     <use x="302.050781" xlink:href="#DejaVuSans-101"/>
     <use x="363.574219" xlink:href="#DejaVuSans-115"/>
     <use x="415.673828" xlink:href="#DejaVuSans-32"/>
     <use x="447.460938" xlink:href="#DejaVuSans-61"/>
     <use x="531.25" xlink:href="#DejaVuSans-32"/>
     <use x="563.037109" xlink:href="#DejaVuSans-49"/>
     <use x="626.660156" xlink:href="#DejaVuSans-51"/>
    </g>
    <!-- value = [0, 13, 0] -->
    <defs>
     <path d="M 2.984375 54.6875 
L 12.5 54.6875 
L 29.59375 8.796875 
L 46.6875 54.6875 
L 56.203125 54.6875 
L 35.6875 0 
L 23.484375 0 
z
" id="DejaVuSans-118"/>
     <path d="M 8.5 21.578125 
L 8.5 54.6875 
L 17.484375 54.6875 
L 17.484375 21.921875 
Q 17.484375 14.15625 20.5 10.265625 
Q 23.53125 6.390625 29.59375 6.390625 
Q 36.859375 6.390625 41.078125 11.03125 
Q 45.3125 15.671875 45.3125 23.6875 
L 45.3125 54.6875 
L 54.296875 54.6875 
L 54.296875 0 
L 45.3125 0 
L 45.3125 8.40625 
Q 42.046875 3.421875 37.71875 1 
Q 33.40625 -1.421875 27.6875 -1.421875 
Q 18.265625 -1.421875 13.375 4.4375 
Q 8.5 10.296875 8.5 21.578125 
z
M 31.109375 56 
z
" id="DejaVuSans-117"/>
     <path d="M 8.59375 75.984375 
L 29.296875 75.984375 
L 29.296875 69 
L 17.578125 69 
L 17.578125 -6.203125 
L 29.296875 -6.203125 
L 29.296875 -13.1875 
L 8.59375 -13.1875 
z
" id="DejaVuSans-91"/>
     <path d="M 11.71875 12.40625 
L 22.015625 12.40625 
L 22.015625 4 
L 14.015625 -11.625 
L 7.71875 -11.625 
L 11.71875 4 
z
" id="DejaVuSans-44"/>
     <path d="M 30.421875 75.984375 
L 30.421875 -13.1875 
L 9.71875 -13.1875 
L 9.71875 -6.203125 
L 21.390625 -6.203125 
L 21.390625 69 
L 9.71875 69 
L 9.71875 75.984375 
z
" id="DejaVuSans-93"/>
    </defs>
    <g transform="translate(124.939176 286.045066)scale(0.034828 -0.034828)">
     <use xlink:href="#DejaVuSans-118"/>
     <use x="59.179688" xlink:href="#DejaVuSans-97"/>
     <use x="120.458984" xlink:href="#DejaVuSans-108"/>
     <use x="148.242188" xlink:href="#DejaVuSans-117"/>
     <use x="211.621094" xlink:href="#DejaVuSans-101"/>
     <use x="273.144531" xlink:href="#DejaVuSans-32"/>
     <use x="304.931641" xlink:href="#DejaVuSans-61"/>
     <use x="388.720703" xlink:href="#DejaVuSans-32"/>
     <use x="420.507812" xlink:href="#DejaVuSans-91"/>
     <use x="459.521484" xlink:href="#DejaVuSans-48"/>
     <use x="523.144531" xlink:href="#DejaVuSans-44"/>
     <use x="554.931641" xlink:href="#DejaVuSans-32"/>
     <use x="586.71875" xlink:href="#DejaVuSans-49"/>
     <use x="650.341797" xlink:href="#DejaVuSans-51"/>
     <use x="713.964844" xlink:href="#DejaVuSans-44"/>
     <use x="745.751953" xlink:href="#DejaVuSans-32"/>
     <use x="777.539062" xlink:href="#DejaVuSans-48"/>
     <use x="841.162109" xlink:href="#DejaVuSans-93"/>
    </g>
   </g>
   <g id="patch_4">
    <path d="M 291.80766 272.374699 
Q 258.684282 251.218477 224.618664 229.460437 
" style="fill:none;stroke:#000000;stroke-linecap:round;"/>
    <path d="M 291.008524 271.037756 
L 291.80766 272.374699 
L 290.258624 272.211842 
" style="fill:none;stroke:#000000;stroke-linecap:round;"/>
   </g>
   <g id="text_2">
    <g id="patch_5">
     <path d="M 291.380488 287.81424 
L 319.819512 287.81424 
Q 320.864364 287.81424 320.864364 286.769388 
L 320.864364 275.598612 
Q 320.864364 274.55376 319.819512 274.55376 
L 291.380488 274.55376 
Q 290.335636 274.55376 290.335636 275.598612 
L 290.335636 286.769388 
Q 290.335636 287.81424 291.380488 287.81424 
z
" style="fill:#88efb3;stroke:#000000;stroke-linejoin:miter;"/>
    </g>
    <!-- gini = 0.408 -->
    <defs>
     <path d="M 37.796875 64.3125 
L 12.890625 25.390625 
L 37.796875 25.390625 
z
M 35.203125 72.90625 
L 47.609375 72.90625 
L 47.609375 25.390625 
L 58.015625 25.390625 
L 58.015625 17.1875 
L 47.609375 17.1875 
L 47.609375 0 
L 37.796875 0 
L 37.796875 17.1875 
L 4.890625 17.1875 
L 4.890625 26.703125 
z
" id="DejaVuSans-52"/>
     <path d="M 31.78125 34.625 
Q 24.75 34.625 20.71875 30.859375 
Q 16.703125 27.09375 16.703125 20.515625 
Q 16.703125 13.921875 20.71875 10.15625 
Q 24.75 6.390625 31.78125 6.390625 
Q 38.8125 6.390625 42.859375 10.171875 
Q 46.921875 13.96875 46.921875 20.515625 
Q 46.921875 27.09375 42.890625 30.859375 
Q 38.875 34.625 31.78125 34.625 
z
M 21.921875 38.8125 
Q 15.578125 40.375 12.03125 44.71875 
Q 8.5 49.078125 8.5 55.328125 
Q 8.5 64.0625 14.71875 69.140625 
Q 20.953125 74.21875 31.78125 74.21875 
Q 42.671875 74.21875 48.875 69.140625 
Q 55.078125 64.0625 55.078125 55.328125 
Q 55.078125 49.078125 51.53125 44.71875 
Q 48 40.375 41.703125 38.8125 
Q 48.828125 37.15625 52.796875 32.3125 
Q 56.78125 27.484375 56.78125 20.515625 
Q 56.78125 9.90625 50.3125 4.234375 
Q 43.84375 -1.421875 31.78125 -1.421875 
Q 19.734375 -1.421875 13.25 4.234375 
Q 6.78125 9.90625 6.78125 20.515625 
Q 6.78125 27.484375 10.78125 32.3125 
Q 14.796875 37.15625 21.921875 38.8125 
z
M 18.3125 54.390625 
Q 18.3125 48.734375 21.84375 45.5625 
Q 25.390625 42.390625 31.78125 42.390625 
Q 38.140625 42.390625 41.71875 45.5625 
Q 45.3125 48.734375 45.3125 54.390625 
Q 45.3125 60.0625 41.71875 63.234375 
Q 38.140625 66.40625 31.78125 66.40625 
Q 25.390625 66.40625 21.84375 63.234375 
Q 18.3125 60.0625 18.3125 54.390625 
z
" id="DejaVuSans-56"/>
    </defs>
    <g transform="translate(294.871763 278.245027)scale(0.034828 -0.034828)">
     <use xlink:href="#DejaVuSans-103"/>
     <use x="63.476562" xlink:href="#DejaVuSans-105"/>
     <use x="91.259766" xlink:href="#DejaVuSans-110"/>
     <use x="154.638672" xlink:href="#DejaVuSans-105"/>
     <use x="182.421875" xlink:href="#DejaVuSans-32"/>
     <use x="214.208984" xlink:href="#DejaVuSans-61"/>
     <use x="297.998047" xlink:href="#DejaVuSans-32"/>
     <use x="329.785156" xlink:href="#DejaVuSans-48"/>
     <use x="393.408203" xlink:href="#DejaVuSans-46"/>
     <use x="425.195312" xlink:href="#DejaVuSans-52"/>
     <use x="488.818359" xlink:href="#DejaVuSans-48"/>
     <use x="552.441406" xlink:href="#DejaVuSans-56"/>
    </g>
    <!-- samples = 7 -->
    <defs>
     <path d="M 8.203125 72.90625 
L 55.078125 72.90625 
L 55.078125 68.703125 
L 28.609375 0 
L 18.3125 0 
L 43.21875 64.59375 
L 8.203125 64.59375 
z
" id="DejaVuSans-55"/>
    </defs>
    <g transform="translate(294.687282 282.145046)scale(0.034828 -0.034828)">
     <use xlink:href="#DejaVuSans-115"/>
     <use x="52.099609" xlink:href="#DejaVuSans-97"/>
     <use x="113.378906" xlink:href="#DejaVuSans-109"/>
     <use x="210.791016" xlink:href="#DejaVuSans-112"/>
     <use x="274.267578" xlink:href="#DejaVuSans-108"/>
     <use x="302.050781" xlink:href="#DejaVuSans-101"/>
     <use x="363.574219" xlink:href="#DejaVuSans-115"/>
     <use x="415.673828" xlink:href="#DejaVuSans-32"/>
     <use x="447.460938" xlink:href="#DejaVuSans-61"/>
     <use x="531.25" xlink:href="#DejaVuSans-32"/>
     <use x="563.037109" xlink:href="#DejaVuSans-55"/>
    </g>
    <!-- value = [2, 5, 0] -->
    <defs>
     <path d="M 19.1875 8.296875 
L 53.609375 8.296875 
L 53.609375 0 
L 7.328125 0 
L 7.328125 8.296875 
Q 12.9375 14.109375 22.625 23.890625 
Q 32.328125 33.6875 34.8125 36.53125 
Q 39.546875 41.84375 41.421875 45.53125 
Q 43.3125 49.21875 43.3125 52.78125 
Q 43.3125 58.59375 39.234375 62.25 
Q 35.15625 65.921875 28.609375 65.921875 
Q 23.96875 65.921875 18.8125 64.3125 
Q 13.671875 62.703125 7.8125 59.421875 
L 7.8125 69.390625 
Q 13.765625 71.78125 18.9375 73 
Q 24.125 74.21875 28.421875 74.21875 
Q 39.75 74.21875 46.484375 68.546875 
Q 53.21875 62.890625 53.21875 53.421875 
Q 53.21875 48.921875 51.53125 44.890625 
Q 49.859375 40.875 45.40625 35.40625 
Q 44.1875 33.984375 37.640625 27.21875 
Q 31.109375 20.453125 19.1875 8.296875 
z
" id="DejaVuSans-50"/>
     <path d="M 10.796875 72.90625 
L 49.515625 72.90625 
L 49.515625 64.59375 
L 19.828125 64.59375 
L 19.828125 46.734375 
Q 21.96875 47.46875 24.109375 47.828125 
Q 26.265625 48.1875 28.421875 48.1875 
Q 40.625 48.1875 47.75 41.5 
Q 54.890625 34.8125 54.890625 23.390625 
Q 54.890625 11.625 47.5625 5.09375 
Q 40.234375 -1.421875 26.90625 -1.421875 
Q 22.3125 -1.421875 17.546875 -0.640625 
Q 12.796875 0.140625 7.71875 1.703125 
L 7.71875 11.625 
Q 12.109375 9.234375 16.796875 8.0625 
Q 21.484375 6.890625 26.703125 6.890625 
Q 35.15625 6.890625 40.078125 11.328125 
Q 45.015625 15.765625 45.015625 23.390625 
Q 45.015625 31 40.078125 35.4375 
Q 35.15625 39.890625 26.703125 39.890625 
Q 22.75 39.890625 18.8125 39.015625 
Q 14.890625 38.140625 10.796875 36.28125 
z
" id="DejaVuSans-53"/>
    </defs>
    <g transform="translate(291.380488 286.045066)scale(0.034828 -0.034828)">
     <use xlink:href="#DejaVuSans-118"/>
     <use x="59.179688" xlink:href="#DejaVuSans-97"/>
     <use x="120.458984" xlink:href="#DejaVuSans-108"/>
     <use x="148.242188" xlink:href="#DejaVuSans-117"/>
     <use x="211.621094" xlink:href="#DejaVuSans-101"/>
     <use x="273.144531" xlink:href="#DejaVuSans-32"/>
     <use x="304.931641" xlink:href="#DejaVuSans-61"/>
     <use x="388.720703" xlink:href="#DejaVuSans-32"/>
     <use x="420.507812" xlink:href="#DejaVuSans-91"/>
     <use x="459.521484" xlink:href="#DejaVuSans-50"/>
     <use x="523.144531" xlink:href="#DejaVuSans-44"/>
     <use x="554.931641" xlink:href="#DejaVuSans-32"/>
     <use x="586.71875" xlink:href="#DejaVuSans-53"/>
     <use x="650.341797" xlink:href="#DejaVuSans-44"/>
     <use x="682.128906" xlink:href="#DejaVuSans-32"/>
     <use x="713.916016" xlink:href="#DejaVuSans-48"/>
     <use x="777.539062" xlink:href="#DejaVuSans-93"/>
    </g>
   </g>
   <g id="patch_6">
    <path d="M 239.77517 217.626956 
Q 271.374949 197.443871 303.916968 176.658969 
" style="fill:none;stroke:#000000;stroke-linecap:round;"/>
    <path d="M 241.324206 217.464099 
L 239.77517 217.626956 
L 240.574306 216.290013 
" style="fill:none;stroke:#000000;stroke-linecap:round;"/>
   </g>
   <g id="text_3">
    <g id="patch_7">
     <path d="M 192.687586 236.964249 
L 253.179081 236.964249 
Q 254.223933 236.964249 254.223933 235.919397 
L 254.223933 220.848603 
Q 254.223933 219.803751 253.179081 219.803751 
L 192.687586 219.803751 
Q 191.642734 219.803751 191.642734 220.848603 
L 191.642734 235.919397 
Q 191.642734 236.964249 192.687586 236.964249 
z
" style="fill:#4fe88f;stroke:#000000;stroke-linejoin:miter;"/>
    </g>
    <!-- Mean of IR per labelset &lt;= 61.372 -->
    <defs>
     <path d="M 9.8125 72.90625 
L 24.515625 72.90625 
L 43.109375 23.296875 
L 61.8125 72.90625 
L 76.515625 72.90625 
L 76.515625 0 
L 66.890625 0 
L 66.890625 64.015625 
L 48.09375 14.015625 
L 38.1875 14.015625 
L 19.390625 64.015625 
L 19.390625 0 
L 9.8125 0 
z
" id="DejaVuSans-77"/>
     <path d="M 30.609375 48.390625 
Q 23.390625 48.390625 19.1875 42.75 
Q 14.984375 37.109375 14.984375 27.296875 
Q 14.984375 17.484375 19.15625 11.84375 
Q 23.34375 6.203125 30.609375 6.203125 
Q 37.796875 6.203125 41.984375 11.859375 
Q 46.1875 17.53125 46.1875 27.296875 
Q 46.1875 37.015625 41.984375 42.703125 
Q 37.796875 48.390625 30.609375 48.390625 
z
M 30.609375 56 
Q 42.328125 56 49.015625 48.375 
Q 55.71875 40.765625 55.71875 27.296875 
Q 55.71875 13.875 49.015625 6.21875 
Q 42.328125 -1.421875 30.609375 -1.421875 
Q 18.84375 -1.421875 12.171875 6.21875 
Q 5.515625 13.875 5.515625 27.296875 
Q 5.515625 40.765625 12.171875 48.375 
Q 18.84375 56 30.609375 56 
z
" id="DejaVuSans-111"/>
     <path d="M 37.109375 75.984375 
L 37.109375 68.5 
L 28.515625 68.5 
Q 23.6875 68.5 21.796875 66.546875 
Q 19.921875 64.59375 19.921875 59.515625 
L 19.921875 54.6875 
L 34.71875 54.6875 
L 34.71875 47.703125 
L 19.921875 47.703125 
L 19.921875 0 
L 10.890625 0 
L 10.890625 47.703125 
L 2.296875 47.703125 
L 2.296875 54.6875 
L 10.890625 54.6875 
L 10.890625 58.5 
Q 10.890625 67.625 15.140625 71.796875 
Q 19.390625 75.984375 28.609375 75.984375 
z
" id="DejaVuSans-102"/>
     <path d="M 9.8125 72.90625 
L 19.671875 72.90625 
L 19.671875 0 
L 9.8125 0 
z
" id="DejaVuSans-73"/>
     <path d="M 44.390625 34.1875 
Q 47.5625 33.109375 50.5625 29.59375 
Q 53.5625 26.078125 56.59375 19.921875 
L 66.609375 0 
L 56 0 
L 46.6875 18.703125 
Q 43.0625 26.03125 39.671875 28.421875 
Q 36.28125 30.8125 30.421875 30.8125 
L 19.671875 30.8125 
L 19.671875 0 
L 9.8125 0 
L 9.8125 72.90625 
L 32.078125 72.90625 
Q 44.578125 72.90625 50.734375 67.671875 
Q 56.890625 62.453125 56.890625 51.90625 
Q 56.890625 45.015625 53.6875 40.46875 
Q 50.484375 35.9375 44.390625 34.1875 
z
M 19.671875 64.796875 
L 19.671875 38.921875 
L 32.078125 38.921875 
Q 39.203125 38.921875 42.84375 42.21875 
Q 46.484375 45.515625 46.484375 51.90625 
Q 46.484375 58.296875 42.84375 61.546875 
Q 39.203125 64.796875 32.078125 64.796875 
z
" id="DejaVuSans-82"/>
     <path d="M 41.109375 46.296875 
Q 39.59375 47.171875 37.8125 47.578125 
Q 36.03125 48 33.890625 48 
Q 26.265625 48 22.1875 43.046875 
Q 18.109375 38.09375 18.109375 28.8125 
L 18.109375 0 
L 9.078125 0 
L 9.078125 54.6875 
L 18.109375 54.6875 
L 18.109375 46.1875 
Q 20.953125 51.171875 25.484375 53.578125 
Q 30.03125 56 36.53125 56 
Q 37.453125 56 38.578125 55.875 
Q 39.703125 55.765625 41.0625 55.515625 
z
" id="DejaVuSans-114"/>
     <path d="M 48.6875 27.296875 
Q 48.6875 37.203125 44.609375 42.84375 
Q 40.53125 48.484375 33.40625 48.484375 
Q 26.265625 48.484375 22.1875 42.84375 
Q 18.109375 37.203125 18.109375 27.296875 
Q 18.109375 17.390625 22.1875 11.75 
Q 26.265625 6.109375 33.40625 6.109375 
Q 40.53125 6.109375 44.609375 11.75 
Q 48.6875 17.390625 48.6875 27.296875 
z
M 18.109375 46.390625 
Q 20.953125 51.265625 25.265625 53.625 
Q 29.59375 56 35.59375 56 
Q 45.5625 56 51.78125 48.09375 
Q 58.015625 40.1875 58.015625 27.296875 
Q 58.015625 14.40625 51.78125 6.484375 
Q 45.5625 -1.421875 35.59375 -1.421875 
Q 29.59375 -1.421875 25.265625 0.953125 
Q 20.953125 3.328125 18.109375 8.203125 
L 18.109375 0 
L 9.078125 0 
L 9.078125 75.984375 
L 18.109375 75.984375 
z
" id="DejaVuSans-98"/>
     <path d="M 18.3125 70.21875 
L 18.3125 54.6875 
L 36.8125 54.6875 
L 36.8125 47.703125 
L 18.3125 47.703125 
L 18.3125 18.015625 
Q 18.3125 11.328125 20.140625 9.421875 
Q 21.96875 7.515625 27.59375 7.515625 
L 36.8125 7.515625 
L 36.8125 0 
L 27.59375 0 
Q 17.1875 0 13.234375 3.875 
Q 9.28125 7.765625 9.28125 18.015625 
L 9.28125 47.703125 
L 2.6875 47.703125 
L 2.6875 54.6875 
L 9.28125 54.6875 
L 9.28125 70.21875 
z
" id="DejaVuSans-116"/>
     <path d="M 73.1875 49.21875 
L 22.796875 31.296875 
L 73.1875 13.484375 
L 73.1875 4.59375 
L 10.59375 27.296875 
L 10.59375 35.40625 
L 73.1875 58.109375 
z
" id="DejaVuSans-60"/>
     <path d="M 33.015625 40.375 
Q 26.375 40.375 22.484375 35.828125 
Q 18.609375 31.296875 18.609375 23.390625 
Q 18.609375 15.53125 22.484375 10.953125 
Q 26.375 6.390625 33.015625 6.390625 
Q 39.65625 6.390625 43.53125 10.953125 
Q 47.40625 15.53125 47.40625 23.390625 
Q 47.40625 31.296875 43.53125 35.828125 
Q 39.65625 40.375 33.015625 40.375 
z
M 52.59375 71.296875 
L 52.59375 62.3125 
Q 48.875 64.0625 45.09375 64.984375 
Q 41.3125 65.921875 37.59375 65.921875 
Q 27.828125 65.921875 22.671875 59.328125 
Q 17.53125 52.734375 16.796875 39.40625 
Q 19.671875 43.65625 24.015625 45.921875 
Q 28.375 48.1875 33.59375 48.1875 
Q 44.578125 48.1875 50.953125 41.515625 
Q 57.328125 34.859375 57.328125 23.390625 
Q 57.328125 12.15625 50.6875 5.359375 
Q 44.046875 -1.421875 33.015625 -1.421875 
Q 20.359375 -1.421875 13.671875 8.265625 
Q 6.984375 17.96875 6.984375 36.375 
Q 6.984375 53.65625 15.1875 63.9375 
Q 23.390625 74.21875 37.203125 74.21875 
Q 40.921875 74.21875 44.703125 73.484375 
Q 48.484375 72.75 52.59375 71.296875 
z
" id="DejaVuSans-54"/>
    </defs>
    <g transform="translate(192.687586 223.495017)scale(0.034828 -0.034828)">
     <use xlink:href="#DejaVuSans-77"/>
     <use x="86.279297" xlink:href="#DejaVuSans-101"/>
     <use x="147.802734" xlink:href="#DejaVuSans-97"/>
     <use x="209.082031" xlink:href="#DejaVuSans-110"/>
     <use x="272.460938" xlink:href="#DejaVuSans-32"/>
     <use x="304.248047" xlink:href="#DejaVuSans-111"/>
     <use x="365.429688" xlink:href="#DejaVuSans-102"/>
     <use x="400.634766" xlink:href="#DejaVuSans-32"/>
     <use x="432.421875" xlink:href="#DejaVuSans-73"/>
     <use x="461.914062" xlink:href="#DejaVuSans-82"/>
     <use x="531.396484" xlink:href="#DejaVuSans-32"/>
     <use x="563.183594" xlink:href="#DejaVuSans-112"/>
     <use x="626.660156" xlink:href="#DejaVuSans-101"/>
     <use x="688.183594" xlink:href="#DejaVuSans-114"/>
     <use x="729.296875" xlink:href="#DejaVuSans-32"/>
     <use x="761.083984" xlink:href="#DejaVuSans-108"/>
     <use x="788.867188" xlink:href="#DejaVuSans-97"/>
     <use x="850.146484" xlink:href="#DejaVuSans-98"/>
     <use x="913.623047" xlink:href="#DejaVuSans-101"/>
     <use x="975.146484" xlink:href="#DejaVuSans-108"/>
     <use x="1002.929688" xlink:href="#DejaVuSans-115"/>
     <use x="1055.029297" xlink:href="#DejaVuSans-101"/>
     <use x="1116.552734" xlink:href="#DejaVuSans-116"/>
     <use x="1155.761719" xlink:href="#DejaVuSans-32"/>
     <use x="1187.548828" xlink:href="#DejaVuSans-60"/>
     <use x="1271.337891" xlink:href="#DejaVuSans-61"/>
     <use x="1355.126953" xlink:href="#DejaVuSans-32"/>
     <use x="1386.914062" xlink:href="#DejaVuSans-54"/>
     <use x="1450.537109" xlink:href="#DejaVuSans-49"/>
     <use x="1514.160156" xlink:href="#DejaVuSans-46"/>
     <use x="1545.947266" xlink:href="#DejaVuSans-51"/>
     <use x="1609.570312" xlink:href="#DejaVuSans-55"/>
     <use x="1673.193359" xlink:href="#DejaVuSans-50"/>
    </g>
    <!-- gini = 0.18 -->
    <g transform="translate(213.313075 227.395037)scale(0.034828 -0.034828)">
     <use xlink:href="#DejaVuSans-103"/>
     <use x="63.476562" xlink:href="#DejaVuSans-105"/>
     <use x="91.259766" xlink:href="#DejaVuSans-110"/>
     <use x="154.638672" xlink:href="#DejaVuSans-105"/>
     <use x="182.421875" xlink:href="#DejaVuSans-32"/>
     <use x="214.208984" xlink:href="#DejaVuSans-61"/>
     <use x="297.998047" xlink:href="#DejaVuSans-32"/>
     <use x="329.785156" xlink:href="#DejaVuSans-48"/>
     <use x="393.408203" xlink:href="#DejaVuSans-46"/>
     <use x="425.195312" xlink:href="#DejaVuSans-49"/>
     <use x="488.818359" xlink:href="#DejaVuSans-56"/>
    </g>
    <!-- samples = 20 -->
    <g transform="translate(210.912636 231.295056)scale(0.034828 -0.034828)">
     <use xlink:href="#DejaVuSans-115"/>
     <use x="52.099609" xlink:href="#DejaVuSans-97"/>
     <use x="113.378906" xlink:href="#DejaVuSans-109"/>
     <use x="210.791016" xlink:href="#DejaVuSans-112"/>
     <use x="274.267578" xlink:href="#DejaVuSans-108"/>
     <use x="302.050781" xlink:href="#DejaVuSans-101"/>
     <use x="363.574219" xlink:href="#DejaVuSans-115"/>
     <use x="415.673828" xlink:href="#DejaVuSans-32"/>
     <use x="447.460938" xlink:href="#DejaVuSans-61"/>
     <use x="531.25" xlink:href="#DejaVuSans-32"/>
     <use x="563.037109" xlink:href="#DejaVuSans-50"/>
     <use x="626.660156" xlink:href="#DejaVuSans-48"/>
    </g>
    <!-- value = [2, 18, 0] -->
    <g transform="translate(207.605843 235.195075)scale(0.034828 -0.034828)">
     <use xlink:href="#DejaVuSans-118"/>
     <use x="59.179688" xlink:href="#DejaVuSans-97"/>
     <use x="120.458984" xlink:href="#DejaVuSans-108"/>
     <use x="148.242188" xlink:href="#DejaVuSans-117"/>
     <use x="211.621094" xlink:href="#DejaVuSans-101"/>
     <use x="273.144531" xlink:href="#DejaVuSans-32"/>
     <use x="304.931641" xlink:href="#DejaVuSans-61"/>
     <use x="388.720703" xlink:href="#DejaVuSans-32"/>
     <use x="420.507812" xlink:href="#DejaVuSans-91"/>
     <use x="459.521484" xlink:href="#DejaVuSans-50"/>
     <use x="523.144531" xlink:href="#DejaVuSans-44"/>
     <use x="554.931641" xlink:href="#DejaVuSans-32"/>
     <use x="586.71875" xlink:href="#DejaVuSans-49"/>
     <use x="650.341797" xlink:href="#DejaVuSans-56"/>
     <use x="713.964844" xlink:href="#DejaVuSans-44"/>
     <use x="745.751953" xlink:href="#DejaVuSans-32"/>
     <use x="777.539062" xlink:href="#DejaVuSans-48"/>
     <use x="841.162109" xlink:href="#DejaVuSans-93"/>
    </g>
   </g>
   <g id="patch_8">
    <path d="M 374.474327 219.574699 
Q 341.350948 198.418477 307.28533 176.660437 
" style="fill:none;stroke:#000000;stroke-linecap:round;"/>
    <path d="M 373.675191 218.237756 
L 374.474327 219.574699 
L 372.925291 219.411842 
" style="fill:none;stroke:#000000;stroke-linecap:round;"/>
   </g>
   <g id="text_4">
    <g id="patch_9">
     <path d="M 374.047155 235.01424 
L 402.486179 235.01424 
Q 403.531031 235.01424 403.531031 233.969388 
L 403.531031 222.798612 
Q 403.531031 221.75376 402.486179 221.75376 
L 374.047155 221.75376 
Q 373.002303 221.75376 373.002303 222.798612 
L 373.002303 233.969388 
Q 373.002303 235.01424 374.047155 235.01424 
z
" style="fill:#f2c09c;stroke:#000000;stroke-linejoin:miter;"/>
    </g>
    <!-- gini = 0.444 -->
    <g transform="translate(377.53843 225.445027)scale(0.034828 -0.034828)">
     <use xlink:href="#DejaVuSans-103"/>
     <use x="63.476562" xlink:href="#DejaVuSans-105"/>
     <use x="91.259766" xlink:href="#DejaVuSans-110"/>
     <use x="154.638672" xlink:href="#DejaVuSans-105"/>
     <use x="182.421875" xlink:href="#DejaVuSans-32"/>
     <use x="214.208984" xlink:href="#DejaVuSans-61"/>
     <use x="297.998047" xlink:href="#DejaVuSans-32"/>
     <use x="329.785156" xlink:href="#DejaVuSans-48"/>
     <use x="393.408203" xlink:href="#DejaVuSans-46"/>
     <use x="425.195312" xlink:href="#DejaVuSans-52"/>
     <use x="488.818359" xlink:href="#DejaVuSans-52"/>
     <use x="552.441406" xlink:href="#DejaVuSans-52"/>
    </g>
    <!-- samples = 3 -->
    <g transform="translate(377.353948 229.345046)scale(0.034828 -0.034828)">
     <use xlink:href="#DejaVuSans-115"/>
     <use x="52.099609" xlink:href="#DejaVuSans-97"/>
     <use x="113.378906" xlink:href="#DejaVuSans-109"/>
     <use x="210.791016" xlink:href="#DejaVuSans-112"/>
     <use x="274.267578" xlink:href="#DejaVuSans-108"/>
     <use x="302.050781" xlink:href="#DejaVuSans-101"/>
     <use x="363.574219" xlink:href="#DejaVuSans-115"/>
     <use x="415.673828" xlink:href="#DejaVuSans-32"/>
     <use x="447.460938" xlink:href="#DejaVuSans-61"/>
     <use x="531.25" xlink:href="#DejaVuSans-32"/>
     <use x="563.037109" xlink:href="#DejaVuSans-51"/>
    </g>
    <!-- value = [2, 1, 0] -->
    <g transform="translate(374.047155 233.245066)scale(0.034828 -0.034828)">
     <use xlink:href="#DejaVuSans-118"/>
     <use x="59.179688" xlink:href="#DejaVuSans-97"/>
     <use x="120.458984" xlink:href="#DejaVuSans-108"/>
     <use x="148.242188" xlink:href="#DejaVuSans-117"/>
     <use x="211.621094" xlink:href="#DejaVuSans-101"/>
     <use x="273.144531" xlink:href="#DejaVuSans-32"/>
     <use x="304.931641" xlink:href="#DejaVuSans-61"/>
     <use x="388.720703" xlink:href="#DejaVuSans-32"/>
     <use x="420.507812" xlink:href="#DejaVuSans-91"/>
     <use x="459.521484" xlink:href="#DejaVuSans-50"/>
     <use x="523.144531" xlink:href="#DejaVuSans-44"/>
     <use x="554.931641" xlink:href="#DejaVuSans-32"/>
     <use x="586.71875" xlink:href="#DejaVuSans-49"/>
     <use x="650.341797" xlink:href="#DejaVuSans-44"/>
     <use x="682.128906" xlink:href="#DejaVuSans-32"/>
     <use x="713.916016" xlink:href="#DejaVuSans-48"/>
     <use x="777.539062" xlink:href="#DejaVuSans-93"/>
    </g>
   </g>
   <g id="patch_10">
    <path d="M 322.441836 164.826956 
Q 354.041616 144.643871 386.583634 123.858969 
" style="fill:none;stroke:#000000;stroke-linecap:round;"/>
    <path d="M 323.990872 164.664099 
L 322.441836 164.826956 
L 323.240972 163.490013 
" style="fill:none;stroke:#000000;stroke-linecap:round;"/>
   </g>
   <g id="text_5">
    <g id="patch_11">
     <path d="M 247.077943 184.164249 
L 364.122057 184.164249 
Q 365.16691 184.164249 365.16691 183.119397 
L 365.16691 168.048603 
Q 365.16691 167.003751 364.122057 167.003751 
L 247.077943 167.003751 
Q 246.03309 167.003751 246.03309 168.048603 
L 246.03309 183.119397 
Q 246.03309 184.164249 247.077943 184.164249 
z
" style="fill:#63ea9c;stroke:#000000;stroke-linejoin:miter;"/>
    </g>
    <!-- Ratio of number of instances to the number of attributes &lt;= 0.173 -->
    <defs>
     <path d="M 48.78125 52.59375 
L 48.78125 44.1875 
Q 44.96875 46.296875 41.140625 47.34375 
Q 37.3125 48.390625 33.40625 48.390625 
Q 24.65625 48.390625 19.8125 42.84375 
Q 14.984375 37.3125 14.984375 27.296875 
Q 14.984375 17.28125 19.8125 11.734375 
Q 24.65625 6.203125 33.40625 6.203125 
Q 37.3125 6.203125 41.140625 7.25 
Q 44.96875 8.296875 48.78125 10.40625 
L 48.78125 2.09375 
Q 45.015625 0.34375 40.984375 -0.53125 
Q 36.96875 -1.421875 32.421875 -1.421875 
Q 20.0625 -1.421875 12.78125 6.34375 
Q 5.515625 14.109375 5.515625 27.296875 
Q 5.515625 40.671875 12.859375 48.328125 
Q 20.21875 56 33.015625 56 
Q 37.15625 56 41.109375 55.140625 
Q 45.0625 54.296875 48.78125 52.59375 
z
" id="DejaVuSans-99"/>
     <path d="M 54.890625 33.015625 
L 54.890625 0 
L 45.90625 0 
L 45.90625 32.71875 
Q 45.90625 40.484375 42.875 44.328125 
Q 39.84375 48.1875 33.796875 48.1875 
Q 26.515625 48.1875 22.3125 43.546875 
Q 18.109375 38.921875 18.109375 30.90625 
L 18.109375 0 
L 9.078125 0 
L 9.078125 75.984375 
L 18.109375 75.984375 
L 18.109375 46.1875 
Q 21.34375 51.125 25.703125 53.5625 
Q 30.078125 56 35.796875 56 
Q 45.21875 56 50.046875 50.171875 
Q 54.890625 44.34375 54.890625 33.015625 
z
" id="DejaVuSans-104"/>
    </defs>
    <g transform="translate(247.077943 170.695017)scale(0.034828 -0.034828)">
     <use xlink:href="#DejaVuSans-82"/>
     <use x="69.451172" xlink:href="#DejaVuSans-97"/>
     <use x="130.730469" xlink:href="#DejaVuSans-116"/>
     <use x="169.939453" xlink:href="#DejaVuSans-105"/>
     <use x="197.722656" xlink:href="#DejaVuSans-111"/>
     <use x="258.904297" xlink:href="#DejaVuSans-32"/>
     <use x="290.691406" xlink:href="#DejaVuSans-111"/>
     <use x="351.873047" xlink:href="#DejaVuSans-102"/>
     <use x="387.078125" xlink:href="#DejaVuSans-32"/>
     <use x="418.865234" xlink:href="#DejaVuSans-110"/>
     <use x="482.244141" xlink:href="#DejaVuSans-117"/>
     <use x="545.623047" xlink:href="#DejaVuSans-109"/>
     <use x="643.035156" xlink:href="#DejaVuSans-98"/>
     <use x="706.511719" xlink:href="#DejaVuSans-101"/>
     <use x="768.035156" xlink:href="#DejaVuSans-114"/>
     <use x="809.148438" xlink:href="#DejaVuSans-32"/>
     <use x="840.935547" xlink:href="#DejaVuSans-111"/>
     <use x="902.117188" xlink:href="#DejaVuSans-102"/>
     <use x="937.322266" xlink:href="#DejaVuSans-32"/>
     <use x="969.109375" xlink:href="#DejaVuSans-105"/>
     <use x="996.892578" xlink:href="#DejaVuSans-110"/>
     <use x="1060.271484" xlink:href="#DejaVuSans-115"/>
     <use x="1112.371094" xlink:href="#DejaVuSans-116"/>
     <use x="1151.580078" xlink:href="#DejaVuSans-97"/>
     <use x="1212.859375" xlink:href="#DejaVuSans-110"/>
     <use x="1276.238281" xlink:href="#DejaVuSans-99"/>
     <use x="1331.21875" xlink:href="#DejaVuSans-101"/>
     <use x="1392.742188" xlink:href="#DejaVuSans-115"/>
     <use x="1444.841797" xlink:href="#DejaVuSans-32"/>
     <use x="1476.628906" xlink:href="#DejaVuSans-116"/>
     <use x="1515.837891" xlink:href="#DejaVuSans-111"/>
     <use x="1577.019531" xlink:href="#DejaVuSans-32"/>
     <use x="1608.806641" xlink:href="#DejaVuSans-116"/>
     <use x="1648.015625" xlink:href="#DejaVuSans-104"/>
     <use x="1711.394531" xlink:href="#DejaVuSans-101"/>
     <use x="1772.917969" xlink:href="#DejaVuSans-32"/>
     <use x="1804.705078" xlink:href="#DejaVuSans-110"/>
     <use x="1868.083984" xlink:href="#DejaVuSans-117"/>
     <use x="1931.462891" xlink:href="#DejaVuSans-109"/>
     <use x="2028.875" xlink:href="#DejaVuSans-98"/>
     <use x="2092.351562" xlink:href="#DejaVuSans-101"/>
     <use x="2153.875" xlink:href="#DejaVuSans-114"/>
     <use x="2194.988281" xlink:href="#DejaVuSans-32"/>
     <use x="2226.775391" xlink:href="#DejaVuSans-111"/>
     <use x="2287.957031" xlink:href="#DejaVuSans-102"/>
     <use x="2323.162109" xlink:href="#DejaVuSans-32"/>
     <use x="2354.949219" xlink:href="#DejaVuSans-97"/>
     <use x="2416.228516" xlink:href="#DejaVuSans-116"/>
     <use x="2455.4375" xlink:href="#DejaVuSans-116"/>
     <use x="2494.646484" xlink:href="#DejaVuSans-114"/>
     <use x="2535.759766" xlink:href="#DejaVuSans-105"/>
     <use x="2563.542969" xlink:href="#DejaVuSans-98"/>
     <use x="2627.019531" xlink:href="#DejaVuSans-117"/>
     <use x="2690.398438" xlink:href="#DejaVuSans-116"/>
     <use x="2729.607422" xlink:href="#DejaVuSans-101"/>
     <use x="2791.130859" xlink:href="#DejaVuSans-115"/>
     <use x="2843.230469" xlink:href="#DejaVuSans-32"/>
     <use x="2875.017578" xlink:href="#DejaVuSans-60"/>
     <use x="2958.806641" xlink:href="#DejaVuSans-61"/>
     <use x="3042.595703" xlink:href="#DejaVuSans-32"/>
     <use x="3074.382812" xlink:href="#DejaVuSans-48"/>
     <use x="3138.005859" xlink:href="#DejaVuSans-46"/>
     <use x="3169.792969" xlink:href="#DejaVuSans-49"/>
     <use x="3233.416016" xlink:href="#DejaVuSans-55"/>
     <use x="3297.039062" xlink:href="#DejaVuSans-51"/>
    </g>
    <!-- gini = 0.287 -->
    <g transform="translate(294.871763 174.595037)scale(0.034828 -0.034828)">
     <use xlink:href="#DejaVuSans-103"/>
     <use x="63.476562" xlink:href="#DejaVuSans-105"/>
     <use x="91.259766" xlink:href="#DejaVuSans-110"/>
     <use x="154.638672" xlink:href="#DejaVuSans-105"/>
     <use x="182.421875" xlink:href="#DejaVuSans-32"/>
     <use x="214.208984" xlink:href="#DejaVuSans-61"/>
     <use x="297.998047" xlink:href="#DejaVuSans-32"/>
     <use x="329.785156" xlink:href="#DejaVuSans-48"/>
     <use x="393.408203" xlink:href="#DejaVuSans-46"/>
     <use x="425.195312" xlink:href="#DejaVuSans-50"/>
     <use x="488.818359" xlink:href="#DejaVuSans-56"/>
     <use x="552.441406" xlink:href="#DejaVuSans-55"/>
    </g>
    <!-- samples = 23 -->
    <g transform="translate(293.579303 178.495056)scale(0.034828 -0.034828)">
     <use xlink:href="#DejaVuSans-115"/>
     <use x="52.099609" xlink:href="#DejaVuSans-97"/>
     <use x="113.378906" xlink:href="#DejaVuSans-109"/>
     <use x="210.791016" xlink:href="#DejaVuSans-112"/>
     <use x="274.267578" xlink:href="#DejaVuSans-108"/>
     <use x="302.050781" xlink:href="#DejaVuSans-101"/>
     <use x="363.574219" xlink:href="#DejaVuSans-115"/>
     <use x="415.673828" xlink:href="#DejaVuSans-32"/>
     <use x="447.460938" xlink:href="#DejaVuSans-61"/>
     <use x="531.25" xlink:href="#DejaVuSans-32"/>
     <use x="563.037109" xlink:href="#DejaVuSans-50"/>
     <use x="626.660156" xlink:href="#DejaVuSans-51"/>
    </g>
    <!-- value = [4, 19, 0] -->
    <defs>
     <path d="M 10.984375 1.515625 
L 10.984375 10.5 
Q 14.703125 8.734375 18.5 7.8125 
Q 22.3125 6.890625 25.984375 6.890625 
Q 35.75 6.890625 40.890625 13.453125 
Q 46.046875 20.015625 46.78125 33.40625 
Q 43.953125 29.203125 39.59375 26.953125 
Q 35.25 24.703125 29.984375 24.703125 
Q 19.046875 24.703125 12.671875 31.3125 
Q 6.296875 37.9375 6.296875 49.421875 
Q 6.296875 60.640625 12.9375 67.421875 
Q 19.578125 74.21875 30.609375 74.21875 
Q 43.265625 74.21875 49.921875 64.515625 
Q 56.59375 54.828125 56.59375 36.375 
Q 56.59375 19.140625 48.40625 8.859375 
Q 40.234375 -1.421875 26.421875 -1.421875 
Q 22.703125 -1.421875 18.890625 -0.6875 
Q 15.09375 0.046875 10.984375 1.515625 
z
M 30.609375 32.421875 
Q 37.25 32.421875 41.125 36.953125 
Q 45.015625 41.5 45.015625 49.421875 
Q 45.015625 57.28125 41.125 61.84375 
Q 37.25 66.40625 30.609375 66.40625 
Q 23.96875 66.40625 20.09375 61.84375 
Q 16.21875 57.28125 16.21875 49.421875 
Q 16.21875 41.5 20.09375 36.953125 
Q 23.96875 32.421875 30.609375 32.421875 
z
" id="DejaVuSans-57"/>
    </defs>
    <g transform="translate(290.272509 182.395075)scale(0.034828 -0.034828)">
     <use xlink:href="#DejaVuSans-118"/>
     <use x="59.179688" xlink:href="#DejaVuSans-97"/>
     <use x="120.458984" xlink:href="#DejaVuSans-108"/>
     <use x="148.242188" xlink:href="#DejaVuSans-117"/>
     <use x="211.621094" xlink:href="#DejaVuSans-101"/>
     <use x="273.144531" xlink:href="#DejaVuSans-32"/>
     <use x="304.931641" xlink:href="#DejaVuSans-61"/>
     <use x="388.720703" xlink:href="#DejaVuSans-32"/>
     <use x="420.507812" xlink:href="#DejaVuSans-91"/>
     <use x="459.521484" xlink:href="#DejaVuSans-52"/>
     <use x="523.144531" xlink:href="#DejaVuSans-44"/>
     <use x="554.931641" xlink:href="#DejaVuSans-32"/>
     <use x="586.71875" xlink:href="#DejaVuSans-49"/>
     <use x="650.341797" xlink:href="#DejaVuSans-57"/>
     <use x="713.964844" xlink:href="#DejaVuSans-44"/>
     <use x="745.751953" xlink:href="#DejaVuSans-32"/>
     <use x="777.539062" xlink:href="#DejaVuSans-48"/>
     <use x="841.162109" xlink:href="#DejaVuSans-93"/>
    </g>
   </g>
   <g id="patch_12">
    <path d="M 457.140994 166.774699 
Q 424.017615 145.618477 389.951997 123.860437 
" style="fill:none;stroke:#000000;stroke-linecap:round;"/>
    <path d="M 456.341858 165.437756 
L 457.140994 166.774699 
L 455.591957 166.611842 
" style="fill:none;stroke:#000000;stroke-linecap:round;"/>
   </g>
   <g id="text_6">
    <g id="patch_13">
     <path d="M 456.713821 182.21424 
L 485.152845 182.21424 
Q 486.197697 182.21424 486.197697 181.169388 
L 486.197697 169.998612 
Q 486.197697 168.95376 485.152845 168.95376 
L 456.713821 168.95376 
Q 455.668969 168.95376 455.668969 169.998612 
L 455.668969 181.169388 
Q 455.668969 182.21424 456.713821 182.21424 
z
" style="fill:#8139e5;stroke:#000000;stroke-linejoin:miter;"/>
    </g>
    <!-- gini = 0.0 -->
    <g transform="translate(462.421054 172.645027)scale(0.034828 -0.034828)">
     <use xlink:href="#DejaVuSans-103"/>
     <use x="63.476562" xlink:href="#DejaVuSans-105"/>
     <use x="91.259766" xlink:href="#DejaVuSans-110"/>
     <use x="154.638672" xlink:href="#DejaVuSans-105"/>
     <use x="182.421875" xlink:href="#DejaVuSans-32"/>
     <use x="214.208984" xlink:href="#DejaVuSans-61"/>
     <use x="297.998047" xlink:href="#DejaVuSans-32"/>
     <use x="329.785156" xlink:href="#DejaVuSans-48"/>
     <use x="393.408203" xlink:href="#DejaVuSans-46"/>
     <use x="425.195312" xlink:href="#DejaVuSans-48"/>
    </g>
    <!-- samples = 1 -->
    <g transform="translate(460.020615 176.545046)scale(0.034828 -0.034828)">
     <use xlink:href="#DejaVuSans-115"/>
     <use x="52.099609" xlink:href="#DejaVuSans-97"/>
     <use x="113.378906" xlink:href="#DejaVuSans-109"/>
     <use x="210.791016" xlink:href="#DejaVuSans-112"/>
     <use x="274.267578" xlink:href="#DejaVuSans-108"/>
     <use x="302.050781" xlink:href="#DejaVuSans-101"/>
     <use x="363.574219" xlink:href="#DejaVuSans-115"/>
     <use x="415.673828" xlink:href="#DejaVuSans-32"/>
     <use x="447.460938" xlink:href="#DejaVuSans-61"/>
     <use x="531.25" xlink:href="#DejaVuSans-32"/>
     <use x="563.037109" xlink:href="#DejaVuSans-49"/>
    </g>
    <!-- value = [0, 0, 1] -->
    <g transform="translate(456.713821 180.445066)scale(0.034828 -0.034828)">
     <use xlink:href="#DejaVuSans-118"/>
     <use x="59.179688" xlink:href="#DejaVuSans-97"/>
     <use x="120.458984" xlink:href="#DejaVuSans-108"/>
     <use x="148.242188" xlink:href="#DejaVuSans-117"/>
     <use x="211.621094" xlink:href="#DejaVuSans-101"/>
     <use x="273.144531" xlink:href="#DejaVuSans-32"/>
     <use x="304.931641" xlink:href="#DejaVuSans-61"/>
     <use x="388.720703" xlink:href="#DejaVuSans-32"/>
     <use x="420.507812" xlink:href="#DejaVuSans-91"/>
     <use x="459.521484" xlink:href="#DejaVuSans-48"/>
     <use x="523.144531" xlink:href="#DejaVuSans-44"/>
     <use x="554.931641" xlink:href="#DejaVuSans-32"/>
     <use x="586.71875" xlink:href="#DejaVuSans-48"/>
     <use x="650.341797" xlink:href="#DejaVuSans-44"/>
     <use x="682.128906" xlink:href="#DejaVuSans-32"/>
     <use x="713.916016" xlink:href="#DejaVuSans-49"/>
     <use x="777.539062" xlink:href="#DejaVuSans-93"/>
    </g>
   </g>
   <g id="patch_14">
    <path d="M 236.725673 113.974699 
Q 269.849052 92.818477 303.91467 71.060437 
" style="fill:none;stroke:#000000;stroke-linecap:round;"/>
    <path d="M 238.274709 113.811842 
L 236.725673 113.974699 
L 237.524809 112.637756 
" style="fill:none;stroke:#000000;stroke-linecap:round;"/>
   </g>
   <g id="text_7">
    <g id="patch_15">
     <path d="M 208.713821 129.41424 
L 237.152845 129.41424 
Q 238.197697 129.41424 238.197697 128.369388 
L 238.197697 117.198612 
Q 238.197697 116.15376 237.152845 116.15376 
L 208.713821 116.15376 
Q 207.668969 116.15376 207.668969 117.198612 
L 207.668969 128.369388 
Q 207.668969 129.41424 208.713821 129.41424 
z
" style="fill:#eeab7b;stroke:#000000;stroke-linejoin:miter;"/>
    </g>
    <!-- gini = 0.375 -->
    <g transform="translate(212.205097 119.845027)scale(0.034828 -0.034828)">
     <use xlink:href="#DejaVuSans-103"/>
     <use x="63.476562" xlink:href="#DejaVuSans-105"/>
     <use x="91.259766" xlink:href="#DejaVuSans-110"/>
     <use x="154.638672" xlink:href="#DejaVuSans-105"/>
     <use x="182.421875" xlink:href="#DejaVuSans-32"/>
     <use x="214.208984" xlink:href="#DejaVuSans-61"/>
     <use x="297.998047" xlink:href="#DejaVuSans-32"/>
     <use x="329.785156" xlink:href="#DejaVuSans-48"/>
     <use x="393.408203" xlink:href="#DejaVuSans-46"/>
     <use x="425.195312" xlink:href="#DejaVuSans-51"/>
     <use x="488.818359" xlink:href="#DejaVuSans-55"/>
     <use x="552.441406" xlink:href="#DejaVuSans-53"/>
    </g>
    <!-- samples = 4 -->
    <g transform="translate(212.020615 123.745046)scale(0.034828 -0.034828)">
     <use xlink:href="#DejaVuSans-115"/>
     <use x="52.099609" xlink:href="#DejaVuSans-97"/>
     <use x="113.378906" xlink:href="#DejaVuSans-109"/>
     <use x="210.791016" xlink:href="#DejaVuSans-112"/>
     <use x="274.267578" xlink:href="#DejaVuSans-108"/>
     <use x="302.050781" xlink:href="#DejaVuSans-101"/>
     <use x="363.574219" xlink:href="#DejaVuSans-115"/>
     <use x="415.673828" xlink:href="#DejaVuSans-32"/>
     <use x="447.460938" xlink:href="#DejaVuSans-61"/>
     <use x="531.25" xlink:href="#DejaVuSans-32"/>
     <use x="563.037109" xlink:href="#DejaVuSans-52"/>
    </g>
    <!-- value = [3, 0, 1] -->
    <g transform="translate(208.713821 127.645066)scale(0.034828 -0.034828)">
     <use xlink:href="#DejaVuSans-118"/>
     <use x="59.179688" xlink:href="#DejaVuSans-97"/>
     <use x="120.458984" xlink:href="#DejaVuSans-108"/>
     <use x="148.242188" xlink:href="#DejaVuSans-117"/>
     <use x="211.621094" xlink:href="#DejaVuSans-101"/>
     <use x="273.144531" xlink:href="#DejaVuSans-32"/>
     <use x="304.931641" xlink:href="#DejaVuSans-61"/>
     <use x="388.720703" xlink:href="#DejaVuSans-32"/>
     <use x="420.507812" xlink:href="#DejaVuSans-91"/>
     <use x="459.521484" xlink:href="#DejaVuSans-51"/>
     <use x="523.144531" xlink:href="#DejaVuSans-44"/>
     <use x="554.931641" xlink:href="#DejaVuSans-32"/>
     <use x="586.71875" xlink:href="#DejaVuSans-48"/>
     <use x="650.341797" xlink:href="#DejaVuSans-44"/>
     <use x="682.128906" xlink:href="#DejaVuSans-32"/>
     <use x="713.916016" xlink:href="#DejaVuSans-49"/>
     <use x="777.539062" xlink:href="#DejaVuSans-93"/>
    </g>
   </g>
   <g id="patch_16">
    <path d="M 371.42483 112.026956 
Q 339.825051 91.843871 307.283032 71.058969 
" style="fill:none;stroke:#000000;stroke-linecap:round;"/>
    <path d="M 370.625694 110.690013 
L 371.42483 112.026956 
L 369.875794 111.864099 
" style="fill:none;stroke:#000000;stroke-linecap:round;"/>
   </g>
   <g id="text_8">
    <g id="patch_17">
     <path d="M 357.20218 131.364249 
L 419.331154 131.364249 
Q 420.376006 131.364249 420.376006 130.319397 
L 420.376006 115.248603 
Q 420.376006 114.203751 419.331154 114.203751 
L 357.20218 114.203751 
Q 356.157328 114.203751 356.157328 115.248603 
L 356.157328 130.319397 
Q 356.157328 131.364249 357.20218 131.364249 
z
" style="fill:#6aeca0;stroke:#000000;stroke-linejoin:miter;"/>
    </g>
    <!-- Minimal entropy of labels &lt;= 0.954 -->
    <defs>
     <path d="M 32.171875 -5.078125 
Q 28.375 -14.84375 24.75 -17.8125 
Q 21.140625 -20.796875 15.09375 -20.796875 
L 7.90625 -20.796875 
L 7.90625 -13.28125 
L 13.1875 -13.28125 
Q 16.890625 -13.28125 18.9375 -11.515625 
Q 21 -9.765625 23.484375 -3.21875 
L 25.09375 0.875 
L 2.984375 54.6875 
L 12.5 54.6875 
L 29.59375 11.921875 
L 46.6875 54.6875 
L 56.203125 54.6875 
z
" id="DejaVuSans-121"/>
    </defs>
    <g transform="translate(357.20218 117.895017)scale(0.034828 -0.034828)">
     <use xlink:href="#DejaVuSans-77"/>
     <use x="86.279297" xlink:href="#DejaVuSans-105"/>
     <use x="114.0625" xlink:href="#DejaVuSans-110"/>
     <use x="177.441406" xlink:href="#DejaVuSans-105"/>
     <use x="205.224609" xlink:href="#DejaVuSans-109"/>
     <use x="302.636719" xlink:href="#DejaVuSans-97"/>
     <use x="363.916016" xlink:href="#DejaVuSans-108"/>
     <use x="391.699219" xlink:href="#DejaVuSans-32"/>
     <use x="423.486328" xlink:href="#DejaVuSans-101"/>
     <use x="485.009766" xlink:href="#DejaVuSans-110"/>
     <use x="548.388672" xlink:href="#DejaVuSans-116"/>
     <use x="587.597656" xlink:href="#DejaVuSans-114"/>
     <use x="628.679688" xlink:href="#DejaVuSans-111"/>
     <use x="689.861328" xlink:href="#DejaVuSans-112"/>
     <use x="753.337891" xlink:href="#DejaVuSans-121"/>
     <use x="812.517578" xlink:href="#DejaVuSans-32"/>
     <use x="844.304688" xlink:href="#DejaVuSans-111"/>
     <use x="905.486328" xlink:href="#DejaVuSans-102"/>
     <use x="940.691406" xlink:href="#DejaVuSans-32"/>
     <use x="972.478516" xlink:href="#DejaVuSans-108"/>
     <use x="1000.261719" xlink:href="#DejaVuSans-97"/>
     <use x="1061.541016" xlink:href="#DejaVuSans-98"/>
     <use x="1125.017578" xlink:href="#DejaVuSans-101"/>
     <use x="1186.541016" xlink:href="#DejaVuSans-108"/>
     <use x="1214.324219" xlink:href="#DejaVuSans-115"/>
     <use x="1266.423828" xlink:href="#DejaVuSans-32"/>
     <use x="1298.210938" xlink:href="#DejaVuSans-60"/>
     <use x="1382" xlink:href="#DejaVuSans-61"/>
     <use x="1465.789062" xlink:href="#DejaVuSans-32"/>
     <use x="1497.576172" xlink:href="#DejaVuSans-48"/>
     <use x="1561.199219" xlink:href="#DejaVuSans-46"/>
     <use x="1592.986328" xlink:href="#DejaVuSans-57"/>
     <use x="1656.609375" xlink:href="#DejaVuSans-53"/>
     <use x="1720.232422" xlink:href="#DejaVuSans-52"/>
    </g>
    <!-- gini = 0.344 -->
    <g transform="translate(377.53843 121.795037)scale(0.034828 -0.034828)">
     <use xlink:href="#DejaVuSans-103"/>
     <use x="63.476562" xlink:href="#DejaVuSans-105"/>
     <use x="91.259766" xlink:href="#DejaVuSans-110"/>
     <use x="154.638672" xlink:href="#DejaVuSans-105"/>
     <use x="182.421875" xlink:href="#DejaVuSans-32"/>
     <use x="214.208984" xlink:href="#DejaVuSans-61"/>
     <use x="297.998047" xlink:href="#DejaVuSans-32"/>
     <use x="329.785156" xlink:href="#DejaVuSans-48"/>
     <use x="393.408203" xlink:href="#DejaVuSans-46"/>
     <use x="425.195312" xlink:href="#DejaVuSans-51"/>
     <use x="488.818359" xlink:href="#DejaVuSans-52"/>
     <use x="552.441406" xlink:href="#DejaVuSans-52"/>
    </g>
    <!-- samples = 24 -->
    <g transform="translate(376.24597 125.695056)scale(0.034828 -0.034828)">
     <use xlink:href="#DejaVuSans-115"/>
     <use x="52.099609" xlink:href="#DejaVuSans-97"/>
     <use x="113.378906" xlink:href="#DejaVuSans-109"/>
     <use x="210.791016" xlink:href="#DejaVuSans-112"/>
     <use x="274.267578" xlink:href="#DejaVuSans-108"/>
     <use x="302.050781" xlink:href="#DejaVuSans-101"/>
     <use x="363.574219" xlink:href="#DejaVuSans-115"/>
     <use x="415.673828" xlink:href="#DejaVuSans-32"/>
     <use x="447.460938" xlink:href="#DejaVuSans-61"/>
     <use x="531.25" xlink:href="#DejaVuSans-32"/>
     <use x="563.037109" xlink:href="#DejaVuSans-50"/>
     <use x="626.660156" xlink:href="#DejaVuSans-52"/>
    </g>
    <!-- value = [4, 19, 1] -->
    <g transform="translate(372.939176 129.595075)scale(0.034828 -0.034828)">
     <use xlink:href="#DejaVuSans-118"/>
     <use x="59.179688" xlink:href="#DejaVuSans-97"/>
     <use x="120.458984" xlink:href="#DejaVuSans-108"/>
     <use x="148.242188" xlink:href="#DejaVuSans-117"/>
     <use x="211.621094" xlink:href="#DejaVuSans-101"/>
     <use x="273.144531" xlink:href="#DejaVuSans-32"/>
     <use x="304.931641" xlink:href="#DejaVuSans-61"/>
     <use x="388.720703" xlink:href="#DejaVuSans-32"/>
     <use x="420.507812" xlink:href="#DejaVuSans-91"/>
     <use x="459.521484" xlink:href="#DejaVuSans-52"/>
     <use x="523.144531" xlink:href="#DejaVuSans-44"/>
     <use x="554.931641" xlink:href="#DejaVuSans-32"/>
     <use x="586.71875" xlink:href="#DejaVuSans-49"/>
     <use x="650.341797" xlink:href="#DejaVuSans-57"/>
     <use x="713.964844" xlink:href="#DejaVuSans-44"/>
     <use x="745.751953" xlink:href="#DejaVuSans-32"/>
     <use x="777.539062" xlink:href="#DejaVuSans-49"/>
     <use x="841.162109" xlink:href="#DejaVuSans-93"/>
    </g>
   </g>
   <g id="patch_18">
    <path d="M 154.059006 61.174699 
Q 187.182385 40.018477 221.248003 18.260437 
" style="fill:none;stroke:#000000;stroke-linecap:round;"/>
    <path d="M 155.608043 61.011842 
L 154.059006 61.174699 
L 154.858142 59.837756 
" style="fill:none;stroke:#000000;stroke-linecap:round;"/>
   </g>
   <g id="text_9">
    <g id="patch_19">
     <path d="M 126.047155 76.61424 
L 154.486179 76.61424 
Q 155.531031 76.61424 155.531031 75.569388 
L 155.531031 64.398612 
Q 155.531031 63.35376 154.486179 63.35376 
L 126.047155 63.35376 
Q 125.002303 63.35376 125.002303 64.398612 
L 125.002303 75.569388 
Q 125.002303 76.61424 126.047155 76.61424 
z
" style="fill:#ea9a61;stroke:#000000;stroke-linejoin:miter;"/>
    </g>
    <!-- gini = 0.278 -->
    <g transform="translate(129.53843 67.045027)scale(0.034828 -0.034828)">
     <use xlink:href="#DejaVuSans-103"/>
     <use x="63.476562" xlink:href="#DejaVuSans-105"/>
     <use x="91.259766" xlink:href="#DejaVuSans-110"/>
     <use x="154.638672" xlink:href="#DejaVuSans-105"/>
     <use x="182.421875" xlink:href="#DejaVuSans-32"/>
     <use x="214.208984" xlink:href="#DejaVuSans-61"/>
     <use x="297.998047" xlink:href="#DejaVuSans-32"/>
     <use x="329.785156" xlink:href="#DejaVuSans-48"/>
     <use x="393.408203" xlink:href="#DejaVuSans-46"/>
     <use x="425.195312" xlink:href="#DejaVuSans-50"/>
     <use x="488.818359" xlink:href="#DejaVuSans-55"/>
     <use x="552.441406" xlink:href="#DejaVuSans-56"/>
    </g>
    <!-- samples = 6 -->
    <g transform="translate(129.353948 70.945046)scale(0.034828 -0.034828)">
     <use xlink:href="#DejaVuSans-115"/>
     <use x="52.099609" xlink:href="#DejaVuSans-97"/>
     <use x="113.378906" xlink:href="#DejaVuSans-109"/>
     <use x="210.791016" xlink:href="#DejaVuSans-112"/>
     <use x="274.267578" xlink:href="#DejaVuSans-108"/>
     <use x="302.050781" xlink:href="#DejaVuSans-101"/>
     <use x="363.574219" xlink:href="#DejaVuSans-115"/>
     <use x="415.673828" xlink:href="#DejaVuSans-32"/>
     <use x="447.460938" xlink:href="#DejaVuSans-61"/>
     <use x="531.25" xlink:href="#DejaVuSans-32"/>
     <use x="563.037109" xlink:href="#DejaVuSans-54"/>
    </g>
    <!-- value = [5, 1, 0] -->
    <g transform="translate(126.047155 74.845066)scale(0.034828 -0.034828)">
     <use xlink:href="#DejaVuSans-118"/>
     <use x="59.179688" xlink:href="#DejaVuSans-97"/>
     <use x="120.458984" xlink:href="#DejaVuSans-108"/>
     <use x="148.242188" xlink:href="#DejaVuSans-117"/>
     <use x="211.621094" xlink:href="#DejaVuSans-101"/>
     <use x="273.144531" xlink:href="#DejaVuSans-32"/>
     <use x="304.931641" xlink:href="#DejaVuSans-61"/>
     <use x="388.720703" xlink:href="#DejaVuSans-32"/>
     <use x="420.507812" xlink:href="#DejaVuSans-91"/>
     <use x="459.521484" xlink:href="#DejaVuSans-53"/>
     <use x="523.144531" xlink:href="#DejaVuSans-44"/>
     <use x="554.931641" xlink:href="#DejaVuSans-32"/>
     <use x="586.71875" xlink:href="#DejaVuSans-49"/>
     <use x="650.341797" xlink:href="#DejaVuSans-44"/>
     <use x="682.128906" xlink:href="#DejaVuSans-32"/>
     <use x="713.916016" xlink:href="#DejaVuSans-48"/>
     <use x="777.539062" xlink:href="#DejaVuSans-93"/>
    </g>
   </g>
   <g id="patch_20">
    <path d="M 288.758164 59.226956 
Q 257.158384 39.043871 224.616366 18.258969 
" style="fill:none;stroke:#000000;stroke-linecap:round;"/>
    <path d="M 287.959028 57.890013 
L 288.758164 59.226956 
L 287.209128 59.064099 
" style="fill:none;stroke:#000000;stroke-linecap:round;"/>
   </g>
   <g id="text_10">
    <g id="patch_21">
     <path d="M 247.077943 78.564249 
L 364.122057 78.564249 
Q 365.16691 78.564249 365.16691 77.519397 
L 365.16691 62.448603 
Q 365.16691 61.403751 364.122057 61.403751 
L 247.077943 61.403751 
Q 246.03309 61.403751 246.03309 62.448603 
L 246.03309 77.519397 
Q 246.03309 78.564249 247.077943 78.564249 
z
" style="fill:#8ef0b7;stroke:#000000;stroke-linejoin:miter;"/>
    </g>
    <!-- Ratio of number of instances to the number of attributes &lt;= 0.004 -->
    <g transform="translate(247.077943 65.095017)scale(0.034828 -0.034828)">
     <use xlink:href="#DejaVuSans-82"/>
     <use x="69.451172" xlink:href="#DejaVuSans-97"/>
     <use x="130.730469" xlink:href="#DejaVuSans-116"/>
     <use x="169.939453" xlink:href="#DejaVuSans-105"/>
     <use x="197.722656" xlink:href="#DejaVuSans-111"/>
     <use x="258.904297" xlink:href="#DejaVuSans-32"/>
     <use x="290.691406" xlink:href="#DejaVuSans-111"/>
     <use x="351.873047" xlink:href="#DejaVuSans-102"/>
     <use x="387.078125" xlink:href="#DejaVuSans-32"/>
     <use x="418.865234" xlink:href="#DejaVuSans-110"/>
     <use x="482.244141" xlink:href="#DejaVuSans-117"/>
     <use x="545.623047" xlink:href="#DejaVuSans-109"/>
     <use x="643.035156" xlink:href="#DejaVuSans-98"/>
     <use x="706.511719" xlink:href="#DejaVuSans-101"/>
     <use x="768.035156" xlink:href="#DejaVuSans-114"/>
     <use x="809.148438" xlink:href="#DejaVuSans-32"/>
     <use x="840.935547" xlink:href="#DejaVuSans-111"/>
     <use x="902.117188" xlink:href="#DejaVuSans-102"/>
     <use x="937.322266" xlink:href="#DejaVuSans-32"/>
     <use x="969.109375" xlink:href="#DejaVuSans-105"/>
     <use x="996.892578" xlink:href="#DejaVuSans-110"/>
     <use x="1060.271484" xlink:href="#DejaVuSans-115"/>
     <use x="1112.371094" xlink:href="#DejaVuSans-116"/>
     <use x="1151.580078" xlink:href="#DejaVuSans-97"/>
     <use x="1212.859375" xlink:href="#DejaVuSans-110"/>
     <use x="1276.238281" xlink:href="#DejaVuSans-99"/>
     <use x="1331.21875" xlink:href="#DejaVuSans-101"/>
     <use x="1392.742188" xlink:href="#DejaVuSans-115"/>
     <use x="1444.841797" xlink:href="#DejaVuSans-32"/>
     <use x="1476.628906" xlink:href="#DejaVuSans-116"/>
     <use x="1515.837891" xlink:href="#DejaVuSans-111"/>
     <use x="1577.019531" xlink:href="#DejaVuSans-32"/>
     <use x="1608.806641" xlink:href="#DejaVuSans-116"/>
     <use x="1648.015625" xlink:href="#DejaVuSans-104"/>
     <use x="1711.394531" xlink:href="#DejaVuSans-101"/>
     <use x="1772.917969" xlink:href="#DejaVuSans-32"/>
     <use x="1804.705078" xlink:href="#DejaVuSans-110"/>
     <use x="1868.083984" xlink:href="#DejaVuSans-117"/>
     <use x="1931.462891" xlink:href="#DejaVuSans-109"/>
     <use x="2028.875" xlink:href="#DejaVuSans-98"/>
     <use x="2092.351562" xlink:href="#DejaVuSans-101"/>
     <use x="2153.875" xlink:href="#DejaVuSans-114"/>
     <use x="2194.988281" xlink:href="#DejaVuSans-32"/>
     <use x="2226.775391" xlink:href="#DejaVuSans-111"/>
     <use x="2287.957031" xlink:href="#DejaVuSans-102"/>
     <use x="2323.162109" xlink:href="#DejaVuSans-32"/>
     <use x="2354.949219" xlink:href="#DejaVuSans-97"/>
     <use x="2416.228516" xlink:href="#DejaVuSans-116"/>
     <use x="2455.4375" xlink:href="#DejaVuSans-116"/>
     <use x="2494.646484" xlink:href="#DejaVuSans-114"/>
     <use x="2535.759766" xlink:href="#DejaVuSans-105"/>
     <use x="2563.542969" xlink:href="#DejaVuSans-98"/>
     <use x="2627.019531" xlink:href="#DejaVuSans-117"/>
     <use x="2690.398438" xlink:href="#DejaVuSans-116"/>
     <use x="2729.607422" xlink:href="#DejaVuSans-101"/>
     <use x="2791.130859" xlink:href="#DejaVuSans-115"/>
     <use x="2843.230469" xlink:href="#DejaVuSans-32"/>
     <use x="2875.017578" xlink:href="#DejaVuSans-60"/>
     <use x="2958.806641" xlink:href="#DejaVuSans-61"/>
     <use x="3042.595703" xlink:href="#DejaVuSans-32"/>
     <use x="3074.382812" xlink:href="#DejaVuSans-48"/>
     <use x="3138.005859" xlink:href="#DejaVuSans-46"/>
     <use x="3169.792969" xlink:href="#DejaVuSans-48"/>
     <use x="3233.416016" xlink:href="#DejaVuSans-48"/>
     <use x="3297.039062" xlink:href="#DejaVuSans-52"/>
    </g>
    <!-- gini = 0.472 -->
    <g transform="translate(294.871763 68.995037)scale(0.034828 -0.034828)">
     <use xlink:href="#DejaVuSans-103"/>
     <use x="63.476562" xlink:href="#DejaVuSans-105"/>
     <use x="91.259766" xlink:href="#DejaVuSans-110"/>
     <use x="154.638672" xlink:href="#DejaVuSans-105"/>
     <use x="182.421875" xlink:href="#DejaVuSans-32"/>
     <use x="214.208984" xlink:href="#DejaVuSans-61"/>
     <use x="297.998047" xlink:href="#DejaVuSans-32"/>
     <use x="329.785156" xlink:href="#DejaVuSans-48"/>
     <use x="393.408203" xlink:href="#DejaVuSans-46"/>
     <use x="425.195312" xlink:href="#DejaVuSans-52"/>
     <use x="488.818359" xlink:href="#DejaVuSans-55"/>
     <use x="552.441406" xlink:href="#DejaVuSans-50"/>
    </g>
    <!-- samples = 28 -->
    <g transform="translate(293.579303 72.895056)scale(0.034828 -0.034828)">
     <use xlink:href="#DejaVuSans-115"/>
     <use x="52.099609" xlink:href="#DejaVuSans-97"/>
     <use x="113.378906" xlink:href="#DejaVuSans-109"/>
     <use x="210.791016" xlink:href="#DejaVuSans-112"/>
     <use x="274.267578" xlink:href="#DejaVuSans-108"/>
     <use x="302.050781" xlink:href="#DejaVuSans-101"/>
     <use x="363.574219" xlink:href="#DejaVuSans-115"/>
     <use x="415.673828" xlink:href="#DejaVuSans-32"/>
     <use x="447.460938" xlink:href="#DejaVuSans-61"/>
     <use x="531.25" xlink:href="#DejaVuSans-32"/>
     <use x="563.037109" xlink:href="#DejaVuSans-50"/>
     <use x="626.660156" xlink:href="#DejaVuSans-56"/>
    </g>
    <!-- value = [7, 19, 2] -->
    <g transform="translate(290.272509 76.795075)scale(0.034828 -0.034828)">
     <use xlink:href="#DejaVuSans-118"/>
     <use x="59.179688" xlink:href="#DejaVuSans-97"/>
     <use x="120.458984" xlink:href="#DejaVuSans-108"/>
     <use x="148.242188" xlink:href="#DejaVuSans-117"/>
     <use x="211.621094" xlink:href="#DejaVuSans-101"/>
     <use x="273.144531" xlink:href="#DejaVuSans-32"/>
     <use x="304.931641" xlink:href="#DejaVuSans-61"/>
     <use x="388.720703" xlink:href="#DejaVuSans-32"/>
     <use x="420.507812" xlink:href="#DejaVuSans-91"/>
     <use x="459.521484" xlink:href="#DejaVuSans-55"/>
     <use x="523.144531" xlink:href="#DejaVuSans-44"/>
     <use x="554.931641" xlink:href="#DejaVuSans-32"/>
     <use x="586.71875" xlink:href="#DejaVuSans-49"/>
     <use x="650.341797" xlink:href="#DejaVuSans-57"/>
     <use x="713.964844" xlink:href="#DejaVuSans-44"/>
     <use x="745.751953" xlink:href="#DejaVuSans-32"/>
     <use x="777.539062" xlink:href="#DejaVuSans-50"/>
     <use x="841.162109" xlink:href="#DejaVuSans-93"/>
    </g>
   </g>
   <g id="patch_22">
    <path d="M 239.77517 6.426956 
Q 271.374949 -13.756129 303.916968 -34.541031 
" style="fill:none;stroke:#000000;stroke-linecap:round;"/>
    <path d="M 241.324206 6.264099 
L 239.77517 6.426956 
L 240.574306 5.090013 
" style="fill:none;stroke:#000000;stroke-linecap:round;"/>
   </g>
   <g id="text_11">
    <g id="patch_23">
     <path d="M 175.997978 25.764249 
L 269.868688 25.764249 
Q 270.91354 25.764249 270.91354 24.719397 
L 270.91354 9.648603 
Q 270.91354 8.603751 269.868688 8.603751 
L 175.997978 8.603751 
Q 174.953126 8.603751 174.953126 9.648603 
L 174.953126 24.719397 
Q 174.953126 25.764249 175.997978 25.764249 
z
" style="fill:#b7f6d1;stroke:#000000;stroke-linejoin:miter;"/>
    </g>
    <!-- Mean of standard deviation of IR intra class &lt;= 0.004 -->
    <defs>
     <path d="M 45.40625 46.390625 
L 45.40625 75.984375 
L 54.390625 75.984375 
L 54.390625 0 
L 45.40625 0 
L 45.40625 8.203125 
Q 42.578125 3.328125 38.25 0.953125 
Q 33.9375 -1.421875 27.875 -1.421875 
Q 17.96875 -1.421875 11.734375 6.484375 
Q 5.515625 14.40625 5.515625 27.296875 
Q 5.515625 40.1875 11.734375 48.09375 
Q 17.96875 56 27.875 56 
Q 33.9375 56 38.25 53.625 
Q 42.578125 51.265625 45.40625 46.390625 
z
M 14.796875 27.296875 
Q 14.796875 17.390625 18.875 11.75 
Q 22.953125 6.109375 30.078125 6.109375 
Q 37.203125 6.109375 41.296875 11.75 
Q 45.40625 17.390625 45.40625 27.296875 
Q 45.40625 37.203125 41.296875 42.84375 
Q 37.203125 48.484375 30.078125 48.484375 
Q 22.953125 48.484375 18.875 42.84375 
Q 14.796875 37.203125 14.796875 27.296875 
z
" id="DejaVuSans-100"/>
    </defs>
    <g transform="translate(175.997978 12.295017)scale(0.034828 -0.034828)">
     <use xlink:href="#DejaVuSans-77"/>
     <use x="86.279297" xlink:href="#DejaVuSans-101"/>
     <use x="147.802734" xlink:href="#DejaVuSans-97"/>
     <use x="209.082031" xlink:href="#DejaVuSans-110"/>
     <use x="272.460938" xlink:href="#DejaVuSans-32"/>
     <use x="304.248047" xlink:href="#DejaVuSans-111"/>
     <use x="365.429688" xlink:href="#DejaVuSans-102"/>
     <use x="400.634766" xlink:href="#DejaVuSans-32"/>
     <use x="432.421875" xlink:href="#DejaVuSans-115"/>
     <use x="484.521484" xlink:href="#DejaVuSans-116"/>
     <use x="523.730469" xlink:href="#DejaVuSans-97"/>
     <use x="585.009766" xlink:href="#DejaVuSans-110"/>
     <use x="648.388672" xlink:href="#DejaVuSans-100"/>
     <use x="711.865234" xlink:href="#DejaVuSans-97"/>
     <use x="773.144531" xlink:href="#DejaVuSans-114"/>
     <use x="814.242188" xlink:href="#DejaVuSans-100"/>
     <use x="877.71875" xlink:href="#DejaVuSans-32"/>
     <use x="909.505859" xlink:href="#DejaVuSans-100"/>
     <use x="972.982422" xlink:href="#DejaVuSans-101"/>
     <use x="1034.505859" xlink:href="#DejaVuSans-118"/>
     <use x="1093.685547" xlink:href="#DejaVuSans-105"/>
     <use x="1121.46875" xlink:href="#DejaVuSans-97"/>
     <use x="1182.748047" xlink:href="#DejaVuSans-116"/>
     <use x="1221.957031" xlink:href="#DejaVuSans-105"/>
     <use x="1249.740234" xlink:href="#DejaVuSans-111"/>
     <use x="1310.921875" xlink:href="#DejaVuSans-110"/>
     <use x="1374.300781" xlink:href="#DejaVuSans-32"/>
     <use x="1406.087891" xlink:href="#DejaVuSans-111"/>
     <use x="1467.269531" xlink:href="#DejaVuSans-102"/>
     <use x="1502.474609" xlink:href="#DejaVuSans-32"/>
     <use x="1534.261719" xlink:href="#DejaVuSans-73"/>
     <use x="1563.753906" xlink:href="#DejaVuSans-82"/>
     <use x="1633.236328" xlink:href="#DejaVuSans-32"/>
     <use x="1665.023438" xlink:href="#DejaVuSans-105"/>
     <use x="1692.806641" xlink:href="#DejaVuSans-110"/>
     <use x="1756.185547" xlink:href="#DejaVuSans-116"/>
     <use x="1795.394531" xlink:href="#DejaVuSans-114"/>
     <use x="1836.507812" xlink:href="#DejaVuSans-97"/>
     <use x="1897.787109" xlink:href="#DejaVuSans-32"/>
     <use x="1929.574219" xlink:href="#DejaVuSans-99"/>
     <use x="1984.554688" xlink:href="#DejaVuSans-108"/>
     <use x="2012.337891" xlink:href="#DejaVuSans-97"/>
     <use x="2073.617188" xlink:href="#DejaVuSans-115"/>
     <use x="2125.716797" xlink:href="#DejaVuSans-115"/>
     <use x="2177.816406" xlink:href="#DejaVuSans-32"/>
     <use x="2209.603516" xlink:href="#DejaVuSans-60"/>
     <use x="2293.392578" xlink:href="#DejaVuSans-61"/>
     <use x="2377.181641" xlink:href="#DejaVuSans-32"/>
     <use x="2408.96875" xlink:href="#DejaVuSans-48"/>
     <use x="2472.591797" xlink:href="#DejaVuSans-46"/>
     <use x="2504.378906" xlink:href="#DejaVuSans-48"/>
     <use x="2568.001953" xlink:href="#DejaVuSans-48"/>
     <use x="2631.625" xlink:href="#DejaVuSans-52"/>
    </g>
    <!-- gini = 0.526 -->
    <g transform="translate(212.205097 16.195037)scale(0.034828 -0.034828)">
     <use xlink:href="#DejaVuSans-103"/>
     <use x="63.476562" xlink:href="#DejaVuSans-105"/>
     <use x="91.259766" xlink:href="#DejaVuSans-110"/>
     <use x="154.638672" xlink:href="#DejaVuSans-105"/>
     <use x="182.421875" xlink:href="#DejaVuSans-32"/>
     <use x="214.208984" xlink:href="#DejaVuSans-61"/>
     <use x="297.998047" xlink:href="#DejaVuSans-32"/>
     <use x="329.785156" xlink:href="#DejaVuSans-48"/>
     <use x="393.408203" xlink:href="#DejaVuSans-46"/>
     <use x="425.195312" xlink:href="#DejaVuSans-53"/>
     <use x="488.818359" xlink:href="#DejaVuSans-50"/>
     <use x="552.441406" xlink:href="#DejaVuSans-54"/>
    </g>
    <!-- samples = 34 -->
    <g transform="translate(210.912636 20.095056)scale(0.034828 -0.034828)">
     <use xlink:href="#DejaVuSans-115"/>
     <use x="52.099609" xlink:href="#DejaVuSans-97"/>
     <use x="113.378906" xlink:href="#DejaVuSans-109"/>
     <use x="210.791016" xlink:href="#DejaVuSans-112"/>
     <use x="274.267578" xlink:href="#DejaVuSans-108"/>
     <use x="302.050781" xlink:href="#DejaVuSans-101"/>
     <use x="363.574219" xlink:href="#DejaVuSans-115"/>
     <use x="415.673828" xlink:href="#DejaVuSans-32"/>
     <use x="447.460938" xlink:href="#DejaVuSans-61"/>
     <use x="531.25" xlink:href="#DejaVuSans-32"/>
     <use x="563.037109" xlink:href="#DejaVuSans-51"/>
     <use x="626.660156" xlink:href="#DejaVuSans-52"/>
    </g>
    <!-- value = [12, 20, 2] -->
    <g transform="translate(206.497864 23.995075)scale(0.034828 -0.034828)">
     <use xlink:href="#DejaVuSans-118"/>
     <use x="59.179688" xlink:href="#DejaVuSans-97"/>
     <use x="120.458984" xlink:href="#DejaVuSans-108"/>
     <use x="148.242188" xlink:href="#DejaVuSans-117"/>
     <use x="211.621094" xlink:href="#DejaVuSans-101"/>
     <use x="273.144531" xlink:href="#DejaVuSans-32"/>
     <use x="304.931641" xlink:href="#DejaVuSans-61"/>
     <use x="388.720703" xlink:href="#DejaVuSans-32"/>
     <use x="420.507812" xlink:href="#DejaVuSans-91"/>
     <use x="459.521484" xlink:href="#DejaVuSans-49"/>
     <use x="523.144531" xlink:href="#DejaVuSans-50"/>
     <use x="586.767578" xlink:href="#DejaVuSans-44"/>
     <use x="618.554688" xlink:href="#DejaVuSans-32"/>
     <use x="650.341797" xlink:href="#DejaVuSans-50"/>
     <use x="713.964844" xlink:href="#DejaVuSans-48"/>
     <use x="777.587891" xlink:href="#DejaVuSans-44"/>
     <use x="809.375" xlink:href="#DejaVuSans-32"/>
     <use x="841.162109" xlink:href="#DejaVuSans-50"/>
     <use x="904.785156" xlink:href="#DejaVuSans-93"/>
    </g>
   </g>
   <g id="patch_24">
    <path d="M 374.474327 8.374699 
Q 341.350948 -12.781523 307.28533 -34.539563 
" style="fill:none;stroke:#000000;stroke-linecap:round;"/>
    <path d="M 373.675191 7.037756 
L 374.474327 8.374699 
L 372.925291 8.211842 
" style="fill:none;stroke:#000000;stroke-linecap:round;"/>
   </g>
   <g id="text_12">
    <g id="patch_25">
     <path d="M 374.047155 23.81424 
L 402.486179 23.81424 
Q 403.531031 23.81424 403.531031 22.769388 
L 403.531031 11.598612 
Q 403.531031 10.55376 402.486179 10.55376 
L 374.047155 10.55376 
Q 373.002303 10.55376 373.002303 11.598612 
L 373.002303 22.769388 
Q 373.002303 23.81424 374.047155 23.81424 
z
" style="fill:#ea9a61;stroke:#000000;stroke-linejoin:miter;"/>
    </g>
    <!-- gini = 0.278 -->
    <g transform="translate(377.53843 14.245027)scale(0.034828 -0.034828)">
     <use xlink:href="#DejaVuSans-103"/>
     <use x="63.476562" xlink:href="#DejaVuSans-105"/>
     <use x="91.259766" xlink:href="#DejaVuSans-110"/>
     <use x="154.638672" xlink:href="#DejaVuSans-105"/>
     <use x="182.421875" xlink:href="#DejaVuSans-32"/>
     <use x="214.208984" xlink:href="#DejaVuSans-61"/>
     <use x="297.998047" xlink:href="#DejaVuSans-32"/>
     <use x="329.785156" xlink:href="#DejaVuSans-48"/>
     <use x="393.408203" xlink:href="#DejaVuSans-46"/>
     <use x="425.195312" xlink:href="#DejaVuSans-50"/>
     <use x="488.818359" xlink:href="#DejaVuSans-55"/>
     <use x="552.441406" xlink:href="#DejaVuSans-56"/>
    </g>
    <!-- samples = 6 -->
    <g transform="translate(377.353948 18.145046)scale(0.034828 -0.034828)">
     <use xlink:href="#DejaVuSans-115"/>
     <use x="52.099609" xlink:href="#DejaVuSans-97"/>
     <use x="113.378906" xlink:href="#DejaVuSans-109"/>
     <use x="210.791016" xlink:href="#DejaVuSans-112"/>
     <use x="274.267578" xlink:href="#DejaVuSans-108"/>
     <use x="302.050781" xlink:href="#DejaVuSans-101"/>
     <use x="363.574219" xlink:href="#DejaVuSans-115"/>
     <use x="415.673828" xlink:href="#DejaVuSans-32"/>
     <use x="447.460938" xlink:href="#DejaVuSans-61"/>
     <use x="531.25" xlink:href="#DejaVuSans-32"/>
     <use x="563.037109" xlink:href="#DejaVuSans-54"/>
    </g>
    <!-- value = [5, 0, 1] -->
    <g transform="translate(374.047155 22.045066)scale(0.034828 -0.034828)">
     <use xlink:href="#DejaVuSans-118"/>
     <use x="59.179688" xlink:href="#DejaVuSans-97"/>
     <use x="120.458984" xlink:href="#DejaVuSans-108"/>
     <use x="148.242188" xlink:href="#DejaVuSans-117"/>
     <use x="211.621094" xlink:href="#DejaVuSans-101"/>
     <use x="273.144531" xlink:href="#DejaVuSans-32"/>
     <use x="304.931641" xlink:href="#DejaVuSans-61"/>
     <use x="388.720703" xlink:href="#DejaVuSans-32"/>
     <use x="420.507812" xlink:href="#DejaVuSans-91"/>
     <use x="459.521484" xlink:href="#DejaVuSans-53"/>
     <use x="523.144531" xlink:href="#DejaVuSans-44"/>
     <use x="554.931641" xlink:href="#DejaVuSans-32"/>
     <use x="586.71875" xlink:href="#DejaVuSans-48"/>
     <use x="650.341797" xlink:href="#DejaVuSans-44"/>
     <use x="682.128906" xlink:href="#DejaVuSans-32"/>
     <use x="713.916016" xlink:href="#DejaVuSans-49"/>
     <use x="777.539062" xlink:href="#DejaVuSans-93"/>
    </g>
   </g>
   <g id="text_13">
    <g id="patch_26">
     <path d="M 274.246274 -27.035751 
L 336.953726 -27.035751 
Q 337.998578 -27.035751 337.998578 -28.080603 
L 337.998578 -43.151397 
Q 337.998578 -44.196249 336.953726 -44.196249 
L 274.246274 -44.196249 
Q 273.201422 -44.196249 273.201422 -43.151397 
L 273.201422 -28.080603 
Q 273.201422 -27.035751 274.246274 -27.035751 
z
" style="fill:#e5fcef;stroke:#000000;stroke-linejoin:miter;"/>
    </g>
    <!-- Mean of IR per labelset &lt;= 137.388 -->
    <g transform="translate(274.246274 -40.504983)scale(0.034828 -0.034828)">
     <use xlink:href="#DejaVuSans-77"/>
     <use x="86.279297" xlink:href="#DejaVuSans-101"/>
     <use x="147.802734" xlink:href="#DejaVuSans-97"/>
     <use x="209.082031" xlink:href="#DejaVuSans-110"/>
     <use x="272.460938" xlink:href="#DejaVuSans-32"/>
     <use x="304.248047" xlink:href="#DejaVuSans-111"/>
     <use x="365.429688" xlink:href="#DejaVuSans-102"/>
     <use x="400.634766" xlink:href="#DejaVuSans-32"/>
     <use x="432.421875" xlink:href="#DejaVuSans-73"/>
     <use x="461.914062" xlink:href="#DejaVuSans-82"/>
     <use x="531.396484" xlink:href="#DejaVuSans-32"/>
     <use x="563.183594" xlink:href="#DejaVuSans-112"/>
     <use x="626.660156" xlink:href="#DejaVuSans-101"/>
     <use x="688.183594" xlink:href="#DejaVuSans-114"/>
     <use x="729.296875" xlink:href="#DejaVuSans-32"/>
     <use x="761.083984" xlink:href="#DejaVuSans-108"/>
     <use x="788.867188" xlink:href="#DejaVuSans-97"/>
     <use x="850.146484" xlink:href="#DejaVuSans-98"/>
     <use x="913.623047" xlink:href="#DejaVuSans-101"/>
     <use x="975.146484" xlink:href="#DejaVuSans-108"/>
     <use x="1002.929688" xlink:href="#DejaVuSans-115"/>
     <use x="1055.029297" xlink:href="#DejaVuSans-101"/>
     <use x="1116.552734" xlink:href="#DejaVuSans-116"/>
     <use x="1155.761719" xlink:href="#DejaVuSans-32"/>
     <use x="1187.548828" xlink:href="#DejaVuSans-60"/>
     <use x="1271.337891" xlink:href="#DejaVuSans-61"/>
     <use x="1355.126953" xlink:href="#DejaVuSans-32"/>
     <use x="1386.914062" xlink:href="#DejaVuSans-49"/>
     <use x="1450.537109" xlink:href="#DejaVuSans-51"/>
     <use x="1514.160156" xlink:href="#DejaVuSans-55"/>
     <use x="1577.783203" xlink:href="#DejaVuSans-46"/>
     <use x="1609.570312" xlink:href="#DejaVuSans-51"/>
     <use x="1673.193359" xlink:href="#DejaVuSans-56"/>
     <use x="1736.816406" xlink:href="#DejaVuSans-56"/>
    </g>
    <!-- gini = 0.564 -->
    <g transform="translate(294.871763 -36.604963)scale(0.034828 -0.034828)">
     <use xlink:href="#DejaVuSans-103"/>
     <use x="63.476562" xlink:href="#DejaVuSans-105"/>
     <use x="91.259766" xlink:href="#DejaVuSans-110"/>
     <use x="154.638672" xlink:href="#DejaVuSans-105"/>
     <use x="182.421875" xlink:href="#DejaVuSans-32"/>
     <use x="214.208984" xlink:href="#DejaVuSans-61"/>
     <use x="297.998047" xlink:href="#DejaVuSans-32"/>
     <use x="329.785156" xlink:href="#DejaVuSans-48"/>
     <use x="393.408203" xlink:href="#DejaVuSans-46"/>
     <use x="425.195312" xlink:href="#DejaVuSans-53"/>
     <use x="488.818359" xlink:href="#DejaVuSans-54"/>
     <use x="552.441406" xlink:href="#DejaVuSans-52"/>
    </g>
    <!-- samples = 40 -->
    <g transform="translate(293.579303 -32.704944)scale(0.034828 -0.034828)">
     <use xlink:href="#DejaVuSans-115"/>
     <use x="52.099609" xlink:href="#DejaVuSans-97"/>
     <use x="113.378906" xlink:href="#DejaVuSans-109"/>
     <use x="210.791016" xlink:href="#DejaVuSans-112"/>
     <use x="274.267578" xlink:href="#DejaVuSans-108"/>
     <use x="302.050781" xlink:href="#DejaVuSans-101"/>
     <use x="363.574219" xlink:href="#DejaVuSans-115"/>
     <use x="415.673828" xlink:href="#DejaVuSans-32"/>
     <use x="447.460938" xlink:href="#DejaVuSans-61"/>
     <use x="531.25" xlink:href="#DejaVuSans-32"/>
     <use x="563.037109" xlink:href="#DejaVuSans-52"/>
     <use x="626.660156" xlink:href="#DejaVuSans-48"/>
    </g>
    <!-- value = [17, 20, 3] -->
    <g transform="translate(289.164531 -28.804925)scale(0.034828 -0.034828)">
     <use xlink:href="#DejaVuSans-118"/>
     <use x="59.179688" xlink:href="#DejaVuSans-97"/>
     <use x="120.458984" xlink:href="#DejaVuSans-108"/>
     <use x="148.242188" xlink:href="#DejaVuSans-117"/>
     <use x="211.621094" xlink:href="#DejaVuSans-101"/>
     <use x="273.144531" xlink:href="#DejaVuSans-32"/>
     <use x="304.931641" xlink:href="#DejaVuSans-61"/>
     <use x="388.720703" xlink:href="#DejaVuSans-32"/>
     <use x="420.507812" xlink:href="#DejaVuSans-91"/>
     <use x="459.521484" xlink:href="#DejaVuSans-49"/>
     <use x="523.144531" xlink:href="#DejaVuSans-55"/>
     <use x="586.767578" xlink:href="#DejaVuSans-44"/>
     <use x="618.554688" xlink:href="#DejaVuSans-32"/>
     <use x="650.341797" xlink:href="#DejaVuSans-50"/>
     <use x="713.964844" xlink:href="#DejaVuSans-48"/>
     <use x="777.587891" xlink:href="#DejaVuSans-44"/>
     <use x="809.375" xlink:href="#DejaVuSans-32"/>
     <use x="841.162109" xlink:href="#DejaVuSans-51"/>
     <use x="904.785156" xlink:href="#DejaVuSans-93"/>
    </g>
   </g>
  </g>
 </g>
</svg>
