<?xml version="1.0" encoding="utf-8" standalone="no"?>
<!DOCTYPE svg PUBLIC "-//W3C//DTD SVG 1.1//EN"
  "http://www.w3.org/Graphics/SVG/1.1/DTD/svg11.dtd">
<!-- Created with matplotlib (https://matplotlib.org/) -->
<svg height="345.6pt" version="1.1" viewBox="0 0 460.8 345.6" width="460.8pt" xmlns="http://www.w3.org/2000/svg" xmlns:xlink="http://www.w3.org/1999/xlink">
 <defs>
  <style type="text/css">
*{stroke-linecap:butt;stroke-linejoin:round;}
  </style>
 </defs>
 <g id="figure_1">
  <g id="patch_1">
   <path d="M 0 345.6 
L 460.8 345.6 
L 460.8 0 
L 0 0 
z
" style="fill:#ffffff;"/>
  </g>
  <g id="axes_1">
   <g id="patch_2">
    <path d="M 119.344258 261.727025 
Q 142.651428 230.465343 166.626863 198.307324 
" style="fill:none;stroke:#000000;stroke-linecap:round;"/>
    <path d="M 120.581517 261.103975 
L 119.344258 261.727025 
L 119.588174 260.363388 
" style="fill:none;stroke:#000000;stroke-linecap:round;"/>
   </g>
   <g id="text_1">
    <g id="patch_3">
     <path d="M 100.064515 276.520824 
L 125.357708 276.520824 
Q 126.286982 276.520824 126.286982 275.59155 
L 126.286982 265.65645 
Q 126.286982 264.727176 125.357708 264.727176 
L 100.064515 264.727176 
Q 99.135241 264.727176 99.135241 265.65645 
L 99.135241 275.59155 
Q 99.135241 276.520824 100.064515 276.520824 
z
" style="fill:#ffffff;stroke:#000000;stroke-linejoin:miter;"/>
    </g>
    <!-- gini = 0.5 -->
    <defs>
     <path d="M 45.40625 27.984375 
Q 45.40625 37.75 41.375 43.109375 
Q 37.359375 48.484375 30.078125 48.484375 
Q 22.859375 48.484375 18.828125 43.109375 
Q 14.796875 37.75 14.796875 27.984375 
Q 14.796875 18.265625 18.828125 12.890625 
Q 22.859375 7.515625 30.078125 7.515625 
Q 37.359375 7.515625 41.375 12.890625 
Q 45.40625 18.265625 45.40625 27.984375 
z
M 54.390625 6.78125 
Q 54.390625 -7.171875 48.1875 -13.984375 
Q 42 -20.796875 29.203125 -20.796875 
Q 24.46875 -20.796875 20.265625 -20.09375 
Q 16.0625 -19.390625 12.109375 -17.921875 
L 12.109375 -9.1875 
Q 16.0625 -11.328125 19.921875 -12.34375 
Q 23.78125 -13.375 27.78125 -13.375 
Q 36.625 -13.375 41.015625 -8.765625 
Q 45.40625 -4.15625 45.40625 5.171875 
L 45.40625 9.625 
Q 42.625 4.78125 38.28125 2.390625 
Q 33.9375 0 27.875 0 
Q 17.828125 0 11.671875 7.65625 
Q 5.515625 15.328125 5.515625 27.984375 
Q 5.515625 40.671875 11.671875 48.328125 
Q 17.828125 56 27.875 56 
Q 33.9375 56 38.28125 53.609375 
Q 42.625 51.21875 45.40625 46.390625 
L 45.40625 54.6875 
L 54.390625 54.6875 
z
" id="DejaVuSans-103"/>
     <path d="M 9.421875 54.6875 
L 18.40625 54.6875 
L 18.40625 0 
L 9.421875 0 
z
M 9.421875 75.984375 
L 18.40625 75.984375 
L 18.40625 64.59375 
L 9.421875 64.59375 
z
" id="DejaVuSans-105"/>
     <path d="M 54.890625 33.015625 
L 54.890625 0 
L 45.90625 0 
L 45.90625 32.71875 
Q 45.90625 40.484375 42.875 44.328125 
Q 39.84375 48.1875 33.796875 48.1875 
Q 26.515625 48.1875 22.3125 43.546875 
Q 18.109375 38.921875 18.109375 30.90625 
L 18.109375 0 
L 9.078125 0 
L 9.078125 54.6875 
L 18.109375 54.6875 
L 18.109375 46.1875 
Q 21.34375 51.125 25.703125 53.5625 
Q 30.078125 56 35.796875 56 
Q 45.21875 56 50.046875 50.171875 
Q 54.890625 44.34375 54.890625 33.015625 
z
" id="DejaVuSans-110"/>
     <path id="DejaVuSans-32"/>
     <path d="M 10.59375 45.40625 
L 73.1875 45.40625 
L 73.1875 37.203125 
L 10.59375 37.203125 
z
M 10.59375 25.484375 
L 73.1875 25.484375 
L 73.1875 17.1875 
L 10.59375 17.1875 
z
" id="DejaVuSans-61"/>
     <path d="M 31.78125 66.40625 
Q 24.171875 66.40625 20.328125 58.90625 
Q 16.5 51.421875 16.5 36.375 
Q 16.5 21.390625 20.328125 13.890625 
Q 24.171875 6.390625 31.78125 6.390625 
Q 39.453125 6.390625 43.28125 13.890625 
Q 47.125 21.390625 47.125 36.375 
Q 47.125 51.421875 43.28125 58.90625 
Q 39.453125 66.40625 31.78125 66.40625 
z
M 31.78125 74.21875 
Q 44.046875 74.21875 50.515625 64.515625 
Q 56.984375 54.828125 56.984375 36.375 
Q 56.984375 17.96875 50.515625 8.265625 
Q 44.046875 -1.421875 31.78125 -1.421875 
Q 19.53125 -1.421875 13.0625 8.265625 
Q 6.59375 17.96875 6.59375 36.375 
Q 6.59375 54.828125 13.0625 64.515625 
Q 19.53125 74.21875 31.78125 74.21875 
z
" id="DejaVuSans-48"/>
     <path d="M 10.6875 12.40625 
L 21 12.40625 
L 21 0 
L 10.6875 0 
z
" id="DejaVuSans-46"/>
     <path d="M 10.796875 72.90625 
L 49.515625 72.90625 
L 49.515625 64.59375 
L 19.828125 64.59375 
L 19.828125 46.734375 
Q 21.96875 47.46875 24.109375 47.828125 
Q 26.265625 48.1875 28.421875 48.1875 
Q 40.625 48.1875 47.75 41.5 
Q 54.890625 34.8125 54.890625 23.390625 
Q 54.890625 11.625 47.5625 5.09375 
Q 40.234375 -1.421875 26.90625 -1.421875 
Q 22.3125 -1.421875 17.546875 -0.640625 
Q 12.796875 0.140625 7.71875 1.703125 
L 7.71875 11.625 
Q 12.109375 9.234375 16.796875 8.0625 
Q 21.484375 6.890625 26.703125 6.890625 
Q 35.15625 6.890625 40.078125 11.328125 
Q 45.015625 15.765625 45.015625 23.390625 
Q 45.015625 31 40.078125 35.4375 
Q 35.15625 39.890625 26.703125 39.890625 
Q 22.75 39.890625 18.8125 39.015625 
Q 14.890625 38.140625 10.796875 36.28125 
z
" id="DejaVuSans-53"/>
    </defs>
    <g transform="translate(105.140432 268.010126)scale(0.030976 -0.030976)">
     <use xlink:href="#DejaVuSans-103"/>
     <use x="63.476562" xlink:href="#DejaVuSans-105"/>
     <use x="91.259766" xlink:href="#DejaVuSans-110"/>
     <use x="154.638672" xlink:href="#DejaVuSans-105"/>
     <use x="182.421875" xlink:href="#DejaVuSans-32"/>
     <use x="214.208984" xlink:href="#DejaVuSans-61"/>
     <use x="297.998047" xlink:href="#DejaVuSans-32"/>
     <use x="329.785156" xlink:href="#DejaVuSans-48"/>
     <use x="393.408203" xlink:href="#DejaVuSans-46"/>
     <use x="425.195312" xlink:href="#DejaVuSans-53"/>
    </g>
    <!-- samples = 4 -->
    <defs>
     <path d="M 44.28125 53.078125 
L 44.28125 44.578125 
Q 40.484375 46.53125 36.375 47.5 
Q 32.28125 48.484375 27.875 48.484375 
Q 21.1875 48.484375 17.84375 46.4375 
Q 14.5 44.390625 14.5 40.28125 
Q 14.5 37.15625 16.890625 35.375 
Q 19.28125 33.59375 26.515625 31.984375 
L 29.59375 31.296875 
Q 39.15625 29.25 43.1875 25.515625 
Q 47.21875 21.78125 47.21875 15.09375 
Q 47.21875 7.46875 41.1875 3.015625 
Q 35.15625 -1.421875 24.609375 -1.421875 
Q 20.21875 -1.421875 15.453125 -0.5625 
Q 10.6875 0.296875 5.421875 2 
L 5.421875 11.28125 
Q 10.40625 8.6875 15.234375 7.390625 
Q 20.0625 6.109375 24.8125 6.109375 
Q 31.15625 6.109375 34.5625 8.28125 
Q 37.984375 10.453125 37.984375 14.40625 
Q 37.984375 18.0625 35.515625 20.015625 
Q 33.0625 21.96875 24.703125 23.78125 
L 21.578125 24.515625 
Q 13.234375 26.265625 9.515625 29.90625 
Q 5.8125 33.546875 5.8125 39.890625 
Q 5.8125 47.609375 11.28125 51.796875 
Q 16.75 56 26.8125 56 
Q 31.78125 56 36.171875 55.265625 
Q 40.578125 54.546875 44.28125 53.078125 
z
" id="DejaVuSans-115"/>
     <path d="M 34.28125 27.484375 
Q 23.390625 27.484375 19.1875 25 
Q 14.984375 22.515625 14.984375 16.5 
Q 14.984375 11.71875 18.140625 8.90625 
Q 21.296875 6.109375 26.703125 6.109375 
Q 34.1875 6.109375 38.703125 11.40625 
Q 43.21875 16.703125 43.21875 25.484375 
L 43.21875 27.484375 
z
M 52.203125 31.203125 
L 52.203125 0 
L 43.21875 0 
L 43.21875 8.296875 
Q 40.140625 3.328125 35.546875 0.953125 
Q 30.953125 -1.421875 24.3125 -1.421875 
Q 15.921875 -1.421875 10.953125 3.296875 
Q 6 8.015625 6 15.921875 
Q 6 25.140625 12.171875 29.828125 
Q 18.359375 34.515625 30.609375 34.515625 
L 43.21875 34.515625 
L 43.21875 35.40625 
Q 43.21875 41.609375 39.140625 45 
Q 35.0625 48.390625 27.6875 48.390625 
Q 23 48.390625 18.546875 47.265625 
Q 14.109375 46.140625 10.015625 43.890625 
L 10.015625 52.203125 
Q 14.9375 54.109375 19.578125 55.046875 
Q 24.21875 56 28.609375 56 
Q 40.484375 56 46.34375 49.84375 
Q 52.203125 43.703125 52.203125 31.203125 
z
" id="DejaVuSans-97"/>
     <path d="M 52 44.1875 
Q 55.375 50.25 60.0625 53.125 
Q 64.75 56 71.09375 56 
Q 79.640625 56 84.28125 50.015625 
Q 88.921875 44.046875 88.921875 33.015625 
L 88.921875 0 
L 79.890625 0 
L 79.890625 32.71875 
Q 79.890625 40.578125 77.09375 44.375 
Q 74.3125 48.1875 68.609375 48.1875 
Q 61.625 48.1875 57.5625 43.546875 
Q 53.515625 38.921875 53.515625 30.90625 
L 53.515625 0 
L 44.484375 0 
L 44.484375 32.71875 
Q 44.484375 40.625 41.703125 44.40625 
Q 38.921875 48.1875 33.109375 48.1875 
Q 26.21875 48.1875 22.15625 43.53125 
Q 18.109375 38.875 18.109375 30.90625 
L 18.109375 0 
L 9.078125 0 
L 9.078125 54.6875 
L 18.109375 54.6875 
L 18.109375 46.1875 
Q 21.1875 51.21875 25.484375 53.609375 
Q 29.78125 56 35.6875 56 
Q 41.65625 56 45.828125 52.96875 
Q 50 49.953125 52 44.1875 
z
" id="DejaVuSans-109"/>
     <path d="M 18.109375 8.203125 
L 18.109375 -20.796875 
L 9.078125 -20.796875 
L 9.078125 54.6875 
L 18.109375 54.6875 
L 18.109375 46.390625 
Q 20.953125 51.265625 25.265625 53.625 
Q 29.59375 56 35.59375 56 
Q 45.5625 56 51.78125 48.09375 
Q 58.015625 40.1875 58.015625 27.296875 
Q 58.015625 14.40625 51.78125 6.484375 
Q 45.5625 -1.421875 35.59375 -1.421875 
Q 29.59375 -1.421875 25.265625 0.953125 
Q 20.953125 3.328125 18.109375 8.203125 
z
M 48.6875 27.296875 
Q 48.6875 37.203125 44.609375 42.84375 
Q 40.53125 48.484375 33.40625 48.484375 
Q 26.265625 48.484375 22.1875 42.84375 
Q 18.109375 37.203125 18.109375 27.296875 
Q 18.109375 17.390625 22.1875 11.75 
Q 26.265625 6.109375 33.40625 6.109375 
Q 40.53125 6.109375 44.609375 11.75 
Q 48.6875 17.390625 48.6875 27.296875 
z
" id="DejaVuSans-112"/>
     <path d="M 9.421875 75.984375 
L 18.40625 75.984375 
L 18.40625 0 
L 9.421875 0 
z
" id="DejaVuSans-108"/>
     <path d="M 56.203125 29.59375 
L 56.203125 25.203125 
L 14.890625 25.203125 
Q 15.484375 15.921875 20.484375 11.0625 
Q 25.484375 6.203125 34.421875 6.203125 
Q 39.59375 6.203125 44.453125 7.46875 
Q 49.3125 8.734375 54.109375 11.28125 
L 54.109375 2.78125 
Q 49.265625 0.734375 44.1875 -0.34375 
Q 39.109375 -1.421875 33.890625 -1.421875 
Q 20.796875 -1.421875 13.15625 6.1875 
Q 5.515625 13.8125 5.515625 26.8125 
Q 5.515625 40.234375 12.765625 48.109375 
Q 20.015625 56 32.328125 56 
Q 43.359375 56 49.78125 48.890625 
Q 56.203125 41.796875 56.203125 29.59375 
z
M 47.21875 32.234375 
Q 47.125 39.59375 43.09375 43.984375 
Q 39.0625 48.390625 32.421875 48.390625 
Q 24.90625 48.390625 20.390625 44.140625 
Q 15.875 39.890625 15.1875 32.171875 
z
" id="DejaVuSans-101"/>
     <path d="M 37.796875 64.3125 
L 12.890625 25.390625 
L 37.796875 25.390625 
z
M 35.203125 72.90625 
L 47.609375 72.90625 
L 47.609375 25.390625 
L 58.015625 25.390625 
L 58.015625 17.1875 
L 47.609375 17.1875 
L 47.609375 0 
L 37.796875 0 
L 37.796875 17.1875 
L 4.890625 17.1875 
L 4.890625 26.703125 
z
" id="DejaVuSans-52"/>
    </defs>
    <g transform="translate(103.005522 271.478738)scale(0.030976 -0.030976)">
     <use xlink:href="#DejaVuSans-115"/>
     <use x="52.099609" xlink:href="#DejaVuSans-97"/>
     <use x="113.378906" xlink:href="#DejaVuSans-109"/>
     <use x="210.791016" xlink:href="#DejaVuSans-112"/>
     <use x="274.267578" xlink:href="#DejaVuSans-108"/>
     <use x="302.050781" xlink:href="#DejaVuSans-101"/>
     <use x="363.574219" xlink:href="#DejaVuSans-115"/>
     <use x="415.673828" xlink:href="#DejaVuSans-32"/>
     <use x="447.460938" xlink:href="#DejaVuSans-61"/>
     <use x="531.25" xlink:href="#DejaVuSans-32"/>
     <use x="563.037109" xlink:href="#DejaVuSans-52"/>
    </g>
    <!-- value = [0, 2, 2] -->
    <defs>
     <path d="M 2.984375 54.6875 
L 12.5 54.6875 
L 29.59375 8.796875 
L 46.6875 54.6875 
L 56.203125 54.6875 
L 35.6875 0 
L 23.484375 0 
z
" id="DejaVuSans-118"/>
     <path d="M 8.5 21.578125 
L 8.5 54.6875 
L 17.484375 54.6875 
L 17.484375 21.921875 
Q 17.484375 14.15625 20.5 10.265625 
Q 23.53125 6.390625 29.59375 6.390625 
Q 36.859375 6.390625 41.078125 11.03125 
Q 45.3125 15.671875 45.3125 23.6875 
L 45.3125 54.6875 
L 54.296875 54.6875 
L 54.296875 0 
L 45.3125 0 
L 45.3125 8.40625 
Q 42.046875 3.421875 37.71875 1 
Q 33.40625 -1.421875 27.6875 -1.421875 
Q 18.265625 -1.421875 13.375 4.4375 
Q 8.5 10.296875 8.5 21.578125 
z
M 31.109375 56 
z
" id="DejaVuSans-117"/>
     <path d="M 8.59375 75.984375 
L 29.296875 75.984375 
L 29.296875 69 
L 17.578125 69 
L 17.578125 -6.203125 
L 29.296875 -6.203125 
L 29.296875 -13.1875 
L 8.59375 -13.1875 
z
" id="DejaVuSans-91"/>
     <path d="M 11.71875 12.40625 
L 22.015625 12.40625 
L 22.015625 4 
L 14.015625 -11.625 
L 7.71875 -11.625 
L 11.71875 4 
z
" id="DejaVuSans-44"/>
     <path d="M 19.1875 8.296875 
L 53.609375 8.296875 
L 53.609375 0 
L 7.328125 0 
L 7.328125 8.296875 
Q 12.9375 14.109375 22.625 23.890625 
Q 32.328125 33.6875 34.8125 36.53125 
Q 39.546875 41.84375 41.421875 45.53125 
Q 43.3125 49.21875 43.3125 52.78125 
Q 43.3125 58.59375 39.234375 62.25 
Q 35.15625 65.921875 28.609375 65.921875 
Q 23.96875 65.921875 18.8125 64.3125 
Q 13.671875 62.703125 7.8125 59.421875 
L 7.8125 69.390625 
Q 13.765625 71.78125 18.9375 73 
Q 24.125 74.21875 28.421875 74.21875 
Q 39.75 74.21875 46.484375 68.546875 
Q 53.21875 62.890625 53.21875 53.421875 
Q 53.21875 48.921875 51.53125 44.890625 
Q 49.859375 40.875 45.40625 35.40625 
Q 44.1875 33.984375 37.640625 27.21875 
Q 31.109375 20.453125 19.1875 8.296875 
z
" id="DejaVuSans-50"/>
     <path d="M 30.421875 75.984375 
L 30.421875 -13.1875 
L 9.71875 -13.1875 
L 9.71875 -6.203125 
L 21.390625 -6.203125 
L 21.390625 69 
L 9.71875 69 
L 9.71875 75.984375 
z
" id="DejaVuSans-93"/>
    </defs>
    <g transform="translate(100.064515 274.947351)scale(0.030976 -0.030976)">
     <use xlink:href="#DejaVuSans-118"/>
     <use x="59.179688" xlink:href="#DejaVuSans-97"/>
     <use x="120.458984" xlink:href="#DejaVuSans-108"/>
     <use x="148.242188" xlink:href="#DejaVuSans-117"/>
     <use x="211.621094" xlink:href="#DejaVuSans-101"/>
     <use x="273.144531" xlink:href="#DejaVuSans-32"/>
     <use x="304.931641" xlink:href="#DejaVuSans-61"/>
     <use x="388.720703" xlink:href="#DejaVuSans-32"/>
     <use x="420.507812" xlink:href="#DejaVuSans-91"/>
     <use x="459.521484" xlink:href="#DejaVuSans-48"/>
     <use x="523.144531" xlink:href="#DejaVuSans-44"/>
     <use x="554.931641" xlink:href="#DejaVuSans-32"/>
     <use x="586.71875" xlink:href="#DejaVuSans-50"/>
     <use x="650.341797" xlink:href="#DejaVuSans-44"/>
     <use x="682.128906" xlink:href="#DejaVuSans-32"/>
     <use x="713.916016" xlink:href="#DejaVuSans-50"/>
     <use x="777.539062" xlink:href="#DejaVuSans-93"/>
    </g>
   </g>
   <g id="patch_4">
    <path d="M 216.300187 261.727025 
Q 192.993017 230.465343 169.017582 198.307324 
" style="fill:none;stroke:#000000;stroke-linecap:round;"/>
    <path d="M 216.056271 260.363388 
L 216.300187 261.727025 
L 215.062928 261.103975 
" style="fill:none;stroke:#000000;stroke-linecap:round;"/>
   </g>
   <g id="text_2">
    <g id="patch_5">
     <path d="M 209.301319 276.520824 
L 236.565347 276.520824 
Q 237.494621 276.520824 237.494621 275.59155 
L 237.494621 265.65645 
Q 237.494621 264.727176 236.565347 264.727176 
L 209.301319 264.727176 
Q 208.372045 264.727176 208.372045 265.65645 
L 208.372045 275.59155 
Q 208.372045 276.520824 209.301319 276.520824 
z
" style="fill:#8139e5;stroke:#000000;stroke-linejoin:miter;"/>
    </g>
    <!-- gini = 0.0 -->
    <g transform="translate(215.362654 268.010126)scale(0.030976 -0.030976)">
     <use xlink:href="#DejaVuSans-103"/>
     <use x="63.476562" xlink:href="#DejaVuSans-105"/>
     <use x="91.259766" xlink:href="#DejaVuSans-110"/>
     <use x="154.638672" xlink:href="#DejaVuSans-105"/>
     <use x="182.421875" xlink:href="#DejaVuSans-32"/>
     <use x="214.208984" xlink:href="#DejaVuSans-61"/>
     <use x="297.998047" xlink:href="#DejaVuSans-32"/>
     <use x="329.785156" xlink:href="#DejaVuSans-48"/>
     <use x="393.408203" xlink:href="#DejaVuSans-46"/>
     <use x="425.195312" xlink:href="#DejaVuSans-48"/>
    </g>
    <!-- samples = 16 -->
    <defs>
     <path d="M 12.40625 8.296875 
L 28.515625 8.296875 
L 28.515625 63.921875 
L 10.984375 60.40625 
L 10.984375 69.390625 
L 28.421875 72.90625 
L 38.28125 72.90625 
L 38.28125 8.296875 
L 54.390625 8.296875 
L 54.390625 0 
L 12.40625 0 
z
" id="DejaVuSans-49"/>
     <path d="M 33.015625 40.375 
Q 26.375 40.375 22.484375 35.828125 
Q 18.609375 31.296875 18.609375 23.390625 
Q 18.609375 15.53125 22.484375 10.953125 
Q 26.375 6.390625 33.015625 6.390625 
Q 39.65625 6.390625 43.53125 10.953125 
Q 47.40625 15.53125 47.40625 23.390625 
Q 47.40625 31.296875 43.53125 35.828125 
Q 39.65625 40.375 33.015625 40.375 
z
M 52.59375 71.296875 
L 52.59375 62.3125 
Q 48.875 64.0625 45.09375 64.984375 
Q 41.3125 65.921875 37.59375 65.921875 
Q 27.828125 65.921875 22.671875 59.328125 
Q 17.53125 52.734375 16.796875 39.40625 
Q 19.671875 43.65625 24.015625 45.921875 
Q 28.375 48.1875 33.59375 48.1875 
Q 44.578125 48.1875 50.953125 41.515625 
Q 57.328125 34.859375 57.328125 23.390625 
Q 57.328125 12.15625 50.6875 5.359375 
Q 44.046875 -1.421875 33.015625 -1.421875 
Q 20.359375 -1.421875 13.671875 8.265625 
Q 6.984375 17.96875 6.984375 36.375 
Q 6.984375 53.65625 15.1875 63.9375 
Q 23.390625 74.21875 37.203125 74.21875 
Q 40.921875 74.21875 44.703125 73.484375 
Q 48.484375 72.75 52.59375 71.296875 
z
" id="DejaVuSans-54"/>
    </defs>
    <g transform="translate(212.242326 271.478738)scale(0.030976 -0.030976)">
     <use xlink:href="#DejaVuSans-115"/>
     <use x="52.099609" xlink:href="#DejaVuSans-97"/>
     <use x="113.378906" xlink:href="#DejaVuSans-109"/>
     <use x="210.791016" xlink:href="#DejaVuSans-112"/>
     <use x="274.267578" xlink:href="#DejaVuSans-108"/>
     <use x="302.050781" xlink:href="#DejaVuSans-101"/>
     <use x="363.574219" xlink:href="#DejaVuSans-115"/>
     <use x="415.673828" xlink:href="#DejaVuSans-32"/>
     <use x="447.460938" xlink:href="#DejaVuSans-61"/>
     <use x="531.25" xlink:href="#DejaVuSans-32"/>
     <use x="563.037109" xlink:href="#DejaVuSans-49"/>
     <use x="626.660156" xlink:href="#DejaVuSans-54"/>
    </g>
    <!-- value = [0, 0, 16] -->
    <g transform="translate(209.301319 274.947351)scale(0.030976 -0.030976)">
     <use xlink:href="#DejaVuSans-118"/>
     <use x="59.179688" xlink:href="#DejaVuSans-97"/>
     <use x="120.458984" xlink:href="#DejaVuSans-108"/>
     <use x="148.242188" xlink:href="#DejaVuSans-117"/>
     <use x="211.621094" xlink:href="#DejaVuSans-101"/>
     <use x="273.144531" xlink:href="#DejaVuSans-32"/>
     <use x="304.931641" xlink:href="#DejaVuSans-61"/>
     <use x="388.720703" xlink:href="#DejaVuSans-32"/>
     <use x="420.507812" xlink:href="#DejaVuSans-91"/>
     <use x="459.521484" xlink:href="#DejaVuSans-48"/>
     <use x="523.144531" xlink:href="#DejaVuSans-44"/>
     <use x="554.931641" xlink:href="#DejaVuSans-32"/>
     <use x="586.71875" xlink:href="#DejaVuSans-48"/>
     <use x="650.341797" xlink:href="#DejaVuSans-44"/>
     <use x="682.128906" xlink:href="#DejaVuSans-32"/>
     <use x="713.916016" xlink:href="#DejaVuSans-49"/>
     <use x="777.539062" xlink:href="#DejaVuSans-54"/>
     <use x="841.162109" xlink:href="#DejaVuSans-93"/>
    </g>
   </g>
   <g id="patch_6">
    <path d="M 175.749549 186.071154 
Q 198.410034 155.676864 221.738784 124.386237 
" style="fill:none;stroke:#000000;stroke-linecap:round;"/>
    <path d="M 176.986808 185.448104 
L 175.749549 186.071154 
L 175.993465 184.707517 
" style="fill:none;stroke:#000000;stroke-linecap:round;"/>
   </g>
   <g id="text_3">
    <g id="patch_7">
     <path d="M 130.214939 204.33513 
L 205.429506 204.33513 
Q 206.35878 204.33513 206.35878 203.405856 
L 206.35878 190.002144 
Q 206.35878 189.07287 205.429506 189.07287 
L 130.214939 189.07287 
Q 129.285665 189.07287 129.285665 190.002144 
L 129.285665 203.405856 
Q 129.285665 204.33513 130.214939 204.33513 
z
" style="fill:#8f4fe8;stroke:#000000;stroke-linejoin:miter;"/>
    </g>
    <!-- Number of labelsets up to 2 examples &lt;= 0.001 -->
    <defs>
     <path d="M 9.8125 72.90625 
L 23.09375 72.90625 
L 55.421875 11.921875 
L 55.421875 72.90625 
L 64.984375 72.90625 
L 64.984375 0 
L 51.703125 0 
L 19.390625 60.984375 
L 19.390625 0 
L 9.8125 0 
z
" id="DejaVuSans-78"/>
     <path d="M 48.6875 27.296875 
Q 48.6875 37.203125 44.609375 42.84375 
Q 40.53125 48.484375 33.40625 48.484375 
Q 26.265625 48.484375 22.1875 42.84375 
Q 18.109375 37.203125 18.109375 27.296875 
Q 18.109375 17.390625 22.1875 11.75 
Q 26.265625 6.109375 33.40625 6.109375 
Q 40.53125 6.109375 44.609375 11.75 
Q 48.6875 17.390625 48.6875 27.296875 
z
M 18.109375 46.390625 
Q 20.953125 51.265625 25.265625 53.625 
Q 29.59375 56 35.59375 56 
Q 45.5625 56 51.78125 48.09375 
Q 58.015625 40.1875 58.015625 27.296875 
Q 58.015625 14.40625 51.78125 6.484375 
Q 45.5625 -1.421875 35.59375 -1.421875 
Q 29.59375 -1.421875 25.265625 0.953125 
Q 20.953125 3.328125 18.109375 8.203125 
L 18.109375 0 
L 9.078125 0 
L 9.078125 75.984375 
L 18.109375 75.984375 
z
" id="DejaVuSans-98"/>
     <path d="M 41.109375 46.296875 
Q 39.59375 47.171875 37.8125 47.578125 
Q 36.03125 48 33.890625 48 
Q 26.265625 48 22.1875 43.046875 
Q 18.109375 38.09375 18.109375 28.8125 
L 18.109375 0 
L 9.078125 0 
L 9.078125 54.6875 
L 18.109375 54.6875 
L 18.109375 46.1875 
Q 20.953125 51.171875 25.484375 53.578125 
Q 30.03125 56 36.53125 56 
Q 37.453125 56 38.578125 55.875 
Q 39.703125 55.765625 41.0625 55.515625 
z
" id="DejaVuSans-114"/>
     <path d="M 30.609375 48.390625 
Q 23.390625 48.390625 19.1875 42.75 
Q 14.984375 37.109375 14.984375 27.296875 
Q 14.984375 17.484375 19.15625 11.84375 
Q 23.34375 6.203125 30.609375 6.203125 
Q 37.796875 6.203125 41.984375 11.859375 
Q 46.1875 17.53125 46.1875 27.296875 
Q 46.1875 37.015625 41.984375 42.703125 
Q 37.796875 48.390625 30.609375 48.390625 
z
M 30.609375 56 
Q 42.328125 56 49.015625 48.375 
Q 55.71875 40.765625 55.71875 27.296875 
Q 55.71875 13.875 49.015625 6.21875 
Q 42.328125 -1.421875 30.609375 -1.421875 
Q 18.84375 -1.421875 12.171875 6.21875 
Q 5.515625 13.875 5.515625 27.296875 
Q 5.515625 40.765625 12.171875 48.375 
Q 18.84375 56 30.609375 56 
z
" id="DejaVuSans-111"/>
     <path d="M 37.109375 75.984375 
L 37.109375 68.5 
L 28.515625 68.5 
Q 23.6875 68.5 21.796875 66.546875 
Q 19.921875 64.59375 19.921875 59.515625 
L 19.921875 54.6875 
L 34.71875 54.6875 
L 34.71875 47.703125 
L 19.921875 47.703125 
L 19.921875 0 
L 10.890625 0 
L 10.890625 47.703125 
L 2.296875 47.703125 
L 2.296875 54.6875 
L 10.890625 54.6875 
L 10.890625 58.5 
Q 10.890625 67.625 15.140625 71.796875 
Q 19.390625 75.984375 28.609375 75.984375 
z
" id="DejaVuSans-102"/>
     <path d="M 18.3125 70.21875 
L 18.3125 54.6875 
L 36.8125 54.6875 
L 36.8125 47.703125 
L 18.3125 47.703125 
L 18.3125 18.015625 
Q 18.3125 11.328125 20.140625 9.421875 
Q 21.96875 7.515625 27.59375 7.515625 
L 36.8125 7.515625 
L 36.8125 0 
L 27.59375 0 
Q 17.1875 0 13.234375 3.875 
Q 9.28125 7.765625 9.28125 18.015625 
L 9.28125 47.703125 
L 2.6875 47.703125 
L 2.6875 54.6875 
L 9.28125 54.6875 
L 9.28125 70.21875 
z
" id="DejaVuSans-116"/>
     <path d="M 54.890625 54.6875 
L 35.109375 28.078125 
L 55.90625 0 
L 45.3125 0 
L 29.390625 21.484375 
L 13.484375 0 
L 2.875 0 
L 24.125 28.609375 
L 4.6875 54.6875 
L 15.28125 54.6875 
L 29.78125 35.203125 
L 44.28125 54.6875 
z
" id="DejaVuSans-120"/>
     <path d="M 73.1875 49.21875 
L 22.796875 31.296875 
L 73.1875 13.484375 
L 73.1875 4.59375 
L 10.59375 27.296875 
L 10.59375 35.40625 
L 73.1875 58.109375 
z
" id="DejaVuSans-60"/>
    </defs>
    <g transform="translate(130.214939 192.35582)scale(0.030976 -0.030976)">
     <use xlink:href="#DejaVuSans-78"/>
     <use x="74.804688" xlink:href="#DejaVuSans-117"/>
     <use x="138.183594" xlink:href="#DejaVuSans-109"/>
     <use x="235.595703" xlink:href="#DejaVuSans-98"/>
     <use x="299.072266" xlink:href="#DejaVuSans-101"/>
     <use x="360.595703" xlink:href="#DejaVuSans-114"/>
     <use x="401.708984" xlink:href="#DejaVuSans-32"/>
     <use x="433.496094" xlink:href="#DejaVuSans-111"/>
     <use x="494.677734" xlink:href="#DejaVuSans-102"/>
     <use x="529.882812" xlink:href="#DejaVuSans-32"/>
     <use x="561.669922" xlink:href="#DejaVuSans-108"/>
     <use x="589.453125" xlink:href="#DejaVuSans-97"/>
     <use x="650.732422" xlink:href="#DejaVuSans-98"/>
     <use x="714.208984" xlink:href="#DejaVuSans-101"/>
     <use x="775.732422" xlink:href="#DejaVuSans-108"/>
     <use x="803.515625" xlink:href="#DejaVuSans-115"/>
     <use x="855.615234" xlink:href="#DejaVuSans-101"/>
     <use x="917.138672" xlink:href="#DejaVuSans-116"/>
     <use x="956.347656" xlink:href="#DejaVuSans-115"/>
     <use x="1008.447266" xlink:href="#DejaVuSans-32"/>
     <use x="1040.234375" xlink:href="#DejaVuSans-117"/>
     <use x="1103.613281" xlink:href="#DejaVuSans-112"/>
     <use x="1167.089844" xlink:href="#DejaVuSans-32"/>
     <use x="1198.876953" xlink:href="#DejaVuSans-116"/>
     <use x="1238.085938" xlink:href="#DejaVuSans-111"/>
     <use x="1299.267578" xlink:href="#DejaVuSans-32"/>
     <use x="1331.054688" xlink:href="#DejaVuSans-50"/>
     <use x="1394.677734" xlink:href="#DejaVuSans-32"/>
     <use x="1426.464844" xlink:href="#DejaVuSans-101"/>
     <use x="1487.972656" xlink:href="#DejaVuSans-120"/>
     <use x="1547.152344" xlink:href="#DejaVuSans-97"/>
     <use x="1608.431641" xlink:href="#DejaVuSans-109"/>
     <use x="1705.84375" xlink:href="#DejaVuSans-112"/>
     <use x="1769.320312" xlink:href="#DejaVuSans-108"/>
     <use x="1797.103516" xlink:href="#DejaVuSans-101"/>
     <use x="1858.626953" xlink:href="#DejaVuSans-115"/>
     <use x="1910.726562" xlink:href="#DejaVuSans-32"/>
     <use x="1942.513672" xlink:href="#DejaVuSans-60"/>
     <use x="2026.302734" xlink:href="#DejaVuSans-61"/>
     <use x="2110.091797" xlink:href="#DejaVuSans-32"/>
     <use x="2141.878906" xlink:href="#DejaVuSans-48"/>
     <use x="2205.501953" xlink:href="#DejaVuSans-46"/>
     <use x="2237.289062" xlink:href="#DejaVuSans-48"/>
     <use x="2300.912109" xlink:href="#DejaVuSans-48"/>
     <use x="2364.535156" xlink:href="#DejaVuSans-49"/>
    </g>
    <!-- gini = 0.18 -->
    <defs>
     <path d="M 31.78125 34.625 
Q 24.75 34.625 20.71875 30.859375 
Q 16.703125 27.09375 16.703125 20.515625 
Q 16.703125 13.921875 20.71875 10.15625 
Q 24.75 6.390625 31.78125 6.390625 
Q 38.8125 6.390625 42.859375 10.171875 
Q 46.921875 13.96875 46.921875 20.515625 
Q 46.921875 27.09375 42.890625 30.859375 
Q 38.875 34.625 31.78125 34.625 
z
M 21.921875 38.8125 
Q 15.578125 40.375 12.03125 44.71875 
Q 8.5 49.078125 8.5 55.328125 
Q 8.5 64.0625 14.71875 69.140625 
Q 20.953125 74.21875 31.78125 74.21875 
Q 42.671875 74.21875 48.875 69.140625 
Q 55.078125 64.0625 55.078125 55.328125 
Q 55.078125 49.078125 51.53125 44.71875 
Q 48 40.375 41.703125 38.8125 
Q 48.828125 37.15625 52.796875 32.3125 
Q 56.78125 27.484375 56.78125 20.515625 
Q 56.78125 9.90625 50.3125 4.234375 
Q 43.84375 -1.421875 31.78125 -1.421875 
Q 19.734375 -1.421875 13.25 4.234375 
Q 6.78125 9.90625 6.78125 20.515625 
Q 6.78125 27.484375 10.78125 32.3125 
Q 14.796875 37.15625 21.921875 38.8125 
z
M 18.3125 54.390625 
Q 18.3125 48.734375 21.84375 45.5625 
Q 25.390625 42.390625 31.78125 42.390625 
Q 38.140625 42.390625 41.71875 45.5625 
Q 45.3125 48.734375 45.3125 54.390625 
Q 45.3125 60.0625 41.71875 63.234375 
Q 38.140625 66.40625 31.78125 66.40625 
Q 25.390625 66.40625 21.84375 63.234375 
Q 18.3125 60.0625 18.3125 54.390625 
z
" id="DejaVuSans-56"/>
    </defs>
    <g transform="translate(159.266125 195.824432)scale(0.030976 -0.030976)">
     <use xlink:href="#DejaVuSans-103"/>
     <use x="63.476562" xlink:href="#DejaVuSans-105"/>
     <use x="91.259766" xlink:href="#DejaVuSans-110"/>
     <use x="154.638672" xlink:href="#DejaVuSans-105"/>
     <use x="182.421875" xlink:href="#DejaVuSans-32"/>
     <use x="214.208984" xlink:href="#DejaVuSans-61"/>
     <use x="297.998047" xlink:href="#DejaVuSans-32"/>
     <use x="329.785156" xlink:href="#DejaVuSans-48"/>
     <use x="393.408203" xlink:href="#DejaVuSans-46"/>
     <use x="425.195312" xlink:href="#DejaVuSans-49"/>
     <use x="488.818359" xlink:href="#DejaVuSans-56"/>
    </g>
    <!-- samples = 20 -->
    <g transform="translate(157.131215 199.293044)scale(0.030976 -0.030976)">
     <use xlink:href="#DejaVuSans-115"/>
     <use x="52.099609" xlink:href="#DejaVuSans-97"/>
     <use x="113.378906" xlink:href="#DejaVuSans-109"/>
     <use x="210.791016" xlink:href="#DejaVuSans-112"/>
     <use x="274.267578" xlink:href="#DejaVuSans-108"/>
     <use x="302.050781" xlink:href="#DejaVuSans-101"/>
     <use x="363.574219" xlink:href="#DejaVuSans-115"/>
     <use x="415.673828" xlink:href="#DejaVuSans-32"/>
     <use x="447.460938" xlink:href="#DejaVuSans-61"/>
     <use x="531.25" xlink:href="#DejaVuSans-32"/>
     <use x="563.037109" xlink:href="#DejaVuSans-50"/>
     <use x="626.660156" xlink:href="#DejaVuSans-48"/>
    </g>
    <!-- value = [0, 2, 18] -->
    <g transform="translate(154.190208 202.761657)scale(0.030976 -0.030976)">
     <use xlink:href="#DejaVuSans-118"/>
     <use x="59.179688" xlink:href="#DejaVuSans-97"/>
     <use x="120.458984" xlink:href="#DejaVuSans-108"/>
     <use x="148.242188" xlink:href="#DejaVuSans-117"/>
     <use x="211.621094" xlink:href="#DejaVuSans-101"/>
     <use x="273.144531" xlink:href="#DejaVuSans-32"/>
     <use x="304.931641" xlink:href="#DejaVuSans-61"/>
     <use x="388.720703" xlink:href="#DejaVuSans-32"/>
     <use x="420.507812" xlink:href="#DejaVuSans-91"/>
     <use x="459.521484" xlink:href="#DejaVuSans-48"/>
     <use x="523.144531" xlink:href="#DejaVuSans-44"/>
     <use x="554.931641" xlink:href="#DejaVuSans-32"/>
     <use x="586.71875" xlink:href="#DejaVuSans-50"/>
     <use x="650.341797" xlink:href="#DejaVuSans-44"/>
     <use x="682.128906" xlink:href="#DejaVuSans-32"/>
     <use x="713.916016" xlink:href="#DejaVuSans-49"/>
     <use x="777.539062" xlink:href="#DejaVuSans-56"/>
     <use x="841.162109" xlink:href="#DejaVuSans-93"/>
    </g>
   </g>
   <g id="patch_8">
    <path d="M 271.411298 187.807025 
Q 248.104128 156.545343 224.128693 124.387324 
" style="fill:none;stroke:#000000;stroke-linecap:round;"/>
    <path d="M 271.167382 186.443388 
L 271.411298 187.807025 
L 270.174039 187.183975 
" style="fill:none;stroke:#000000;stroke-linecap:round;"/>
   </g>
   <g id="text_4">
    <g id="patch_9">
     <path d="M 265.397848 202.600824 
L 290.691041 202.600824 
Q 291.620315 202.600824 291.620315 201.67155 
L 291.620315 191.73645 
Q 291.620315 190.807176 290.691041 190.807176 
L 265.397848 190.807176 
Q 264.468574 190.807176 264.468574 191.73645 
L 264.468574 201.67155 
Q 264.468574 202.600824 265.397848 202.600824 
z
" style="fill:#39e581;stroke:#000000;stroke-linejoin:miter;"/>
    </g>
    <!-- gini = 0.0 -->
    <g transform="translate(270.473765 194.090126)scale(0.030976 -0.030976)">
     <use xlink:href="#DejaVuSans-103"/>
     <use x="63.476562" xlink:href="#DejaVuSans-105"/>
     <use x="91.259766" xlink:href="#DejaVuSans-110"/>
     <use x="154.638672" xlink:href="#DejaVuSans-105"/>
     <use x="182.421875" xlink:href="#DejaVuSans-32"/>
     <use x="214.208984" xlink:href="#DejaVuSans-61"/>
     <use x="297.998047" xlink:href="#DejaVuSans-32"/>
     <use x="329.785156" xlink:href="#DejaVuSans-48"/>
     <use x="393.408203" xlink:href="#DejaVuSans-46"/>
     <use x="425.195312" xlink:href="#DejaVuSans-48"/>
    </g>
    <!-- samples = 1 -->
    <g transform="translate(268.338855 197.558738)scale(0.030976 -0.030976)">
     <use xlink:href="#DejaVuSans-115"/>
     <use x="52.099609" xlink:href="#DejaVuSans-97"/>
     <use x="113.378906" xlink:href="#DejaVuSans-109"/>
     <use x="210.791016" xlink:href="#DejaVuSans-112"/>
     <use x="274.267578" xlink:href="#DejaVuSans-108"/>
     <use x="302.050781" xlink:href="#DejaVuSans-101"/>
     <use x="363.574219" xlink:href="#DejaVuSans-115"/>
     <use x="415.673828" xlink:href="#DejaVuSans-32"/>
     <use x="447.460938" xlink:href="#DejaVuSans-61"/>
     <use x="531.25" xlink:href="#DejaVuSans-32"/>
     <use x="563.037109" xlink:href="#DejaVuSans-49"/>
    </g>
    <!-- value = [0, 1, 0] -->
    <g transform="translate(265.397848 201.027351)scale(0.030976 -0.030976)">
     <use xlink:href="#DejaVuSans-118"/>
     <use x="59.179688" xlink:href="#DejaVuSans-97"/>
     <use x="120.458984" xlink:href="#DejaVuSans-108"/>
     <use x="148.242188" xlink:href="#DejaVuSans-117"/>
     <use x="211.621094" xlink:href="#DejaVuSans-101"/>
     <use x="273.144531" xlink:href="#DejaVuSans-32"/>
     <use x="304.931641" xlink:href="#DejaVuSans-61"/>
     <use x="388.720703" xlink:href="#DejaVuSans-32"/>
     <use x="420.507812" xlink:href="#DejaVuSans-91"/>
     <use x="459.521484" xlink:href="#DejaVuSans-48"/>
     <use x="523.144531" xlink:href="#DejaVuSans-44"/>
     <use x="554.931641" xlink:href="#DejaVuSans-32"/>
     <use x="586.71875" xlink:href="#DejaVuSans-49"/>
     <use x="650.341797" xlink:href="#DejaVuSans-44"/>
     <use x="682.128906" xlink:href="#DejaVuSans-32"/>
     <use x="713.916016" xlink:href="#DejaVuSans-48"/>
     <use x="777.539062" xlink:href="#DejaVuSans-93"/>
    </g>
   </g>
   <g id="patch_10">
    <path d="M 394.899813 187.807025 
Q 418.206983 156.545343 442.182418 124.387324 
" style="fill:none;stroke:#000000;stroke-linecap:round;"/>
    <path d="M 396.137072 187.183975 
L 394.899813 187.807025 
L 395.143729 186.443388 
" style="fill:none;stroke:#000000;stroke-linecap:round;"/>
   </g>
   <g id="text_5">
    <g id="patch_11">
     <path d="M 375.62007 202.600824 
L 400.913263 202.600824 
Q 401.842537 202.600824 401.842537 201.67155 
L 401.842537 191.73645 
Q 401.842537 190.807176 400.913263 190.807176 
L 375.62007 190.807176 
Q 374.690796 190.807176 374.690796 191.73645 
L 374.690796 201.67155 
Q 374.690796 202.600824 375.62007 202.600824 
z
" style="fill:#39e581;stroke:#000000;stroke-linejoin:miter;"/>
    </g>
    <!-- gini = 0.0 -->
    <g transform="translate(380.695988 194.090126)scale(0.030976 -0.030976)">
     <use xlink:href="#DejaVuSans-103"/>
     <use x="63.476562" xlink:href="#DejaVuSans-105"/>
     <use x="91.259766" xlink:href="#DejaVuSans-110"/>
     <use x="154.638672" xlink:href="#DejaVuSans-105"/>
     <use x="182.421875" xlink:href="#DejaVuSans-32"/>
     <use x="214.208984" xlink:href="#DejaVuSans-61"/>
     <use x="297.998047" xlink:href="#DejaVuSans-32"/>
     <use x="329.785156" xlink:href="#DejaVuSans-48"/>
     <use x="393.408203" xlink:href="#DejaVuSans-46"/>
     <use x="425.195312" xlink:href="#DejaVuSans-48"/>
    </g>
    <!-- samples = 7 -->
    <defs>
     <path d="M 8.203125 72.90625 
L 55.078125 72.90625 
L 55.078125 68.703125 
L 28.609375 0 
L 18.3125 0 
L 43.21875 64.59375 
L 8.203125 64.59375 
z
" id="DejaVuSans-55"/>
    </defs>
    <g transform="translate(378.561077 197.558738)scale(0.030976 -0.030976)">
     <use xlink:href="#DejaVuSans-115"/>
     <use x="52.099609" xlink:href="#DejaVuSans-97"/>
     <use x="113.378906" xlink:href="#DejaVuSans-109"/>
     <use x="210.791016" xlink:href="#DejaVuSans-112"/>
     <use x="274.267578" xlink:href="#DejaVuSans-108"/>
     <use x="302.050781" xlink:href="#DejaVuSans-101"/>
     <use x="363.574219" xlink:href="#DejaVuSans-115"/>
     <use x="415.673828" xlink:href="#DejaVuSans-32"/>
     <use x="447.460938" xlink:href="#DejaVuSans-61"/>
     <use x="531.25" xlink:href="#DejaVuSans-32"/>
     <use x="563.037109" xlink:href="#DejaVuSans-55"/>
    </g>
    <!-- value = [0, 7, 0] -->
    <g transform="translate(375.62007 201.027351)scale(0.030976 -0.030976)">
     <use xlink:href="#DejaVuSans-118"/>
     <use x="59.179688" xlink:href="#DejaVuSans-97"/>
     <use x="120.458984" xlink:href="#DejaVuSans-108"/>
     <use x="148.242188" xlink:href="#DejaVuSans-117"/>
     <use x="211.621094" xlink:href="#DejaVuSans-101"/>
     <use x="273.144531" xlink:href="#DejaVuSans-32"/>
     <use x="304.931641" xlink:href="#DejaVuSans-61"/>
     <use x="388.720703" xlink:href="#DejaVuSans-32"/>
     <use x="420.507812" xlink:href="#DejaVuSans-91"/>
     <use x="459.521484" xlink:href="#DejaVuSans-48"/>
     <use x="523.144531" xlink:href="#DejaVuSans-44"/>
     <use x="554.931641" xlink:href="#DejaVuSans-32"/>
     <use x="586.71875" xlink:href="#DejaVuSans-55"/>
     <use x="650.341797" xlink:href="#DejaVuSans-44"/>
     <use x="682.128906" xlink:href="#DejaVuSans-32"/>
     <use x="713.916016" xlink:href="#DejaVuSans-48"/>
     <use x="777.539062" xlink:href="#DejaVuSans-93"/>
    </g>
   </g>
   <g id="patch_12">
    <path d="M 491.855742 187.807025 
Q 468.548572 156.545343 444.573137 124.387324 
" style="fill:none;stroke:#000000;stroke-linecap:round;"/>
    <path d="M 491.611826 186.443388 
L 491.855742 187.807025 
L 490.618483 187.183975 
" style="fill:none;stroke:#000000;stroke-linecap:round;"/>
   </g>
   <g id="text_6">
    <g id="patch_13">
     <path d="M 485.842292 202.600824 
L 511.135485 202.600824 
Q 512.064759 202.600824 512.064759 201.67155 
L 512.064759 191.73645 
Q 512.064759 190.807176 511.135485 190.807176 
L 485.842292 190.807176 
Q 484.913018 190.807176 484.913018 191.73645 
L 484.913018 201.67155 
Q 484.913018 202.600824 485.842292 202.600824 
z
" style="fill:#c09cf2;stroke:#000000;stroke-linejoin:miter;"/>
    </g>
    <!-- gini = 0.444 -->
    <g transform="translate(488.947374 194.090126)scale(0.030976 -0.030976)">
     <use xlink:href="#DejaVuSans-103"/>
     <use x="63.476562" xlink:href="#DejaVuSans-105"/>
     <use x="91.259766" xlink:href="#DejaVuSans-110"/>
     <use x="154.638672" xlink:href="#DejaVuSans-105"/>
     <use x="182.421875" xlink:href="#DejaVuSans-32"/>
     <use x="214.208984" xlink:href="#DejaVuSans-61"/>
     <use x="297.998047" xlink:href="#DejaVuSans-32"/>
     <use x="329.785156" xlink:href="#DejaVuSans-48"/>
     <use x="393.408203" xlink:href="#DejaVuSans-46"/>
     <use x="425.195312" xlink:href="#DejaVuSans-52"/>
     <use x="488.818359" xlink:href="#DejaVuSans-52"/>
     <use x="552.441406" xlink:href="#DejaVuSans-52"/>
    </g>
    <!-- samples = 3 -->
    <defs>
     <path d="M 40.578125 39.3125 
Q 47.65625 37.796875 51.625 33 
Q 55.609375 28.21875 55.609375 21.1875 
Q 55.609375 10.40625 48.1875 4.484375 
Q 40.765625 -1.421875 27.09375 -1.421875 
Q 22.515625 -1.421875 17.65625 -0.515625 
Q 12.796875 0.390625 7.625 2.203125 
L 7.625 11.71875 
Q 11.71875 9.328125 16.59375 8.109375 
Q 21.484375 6.890625 26.8125 6.890625 
Q 36.078125 6.890625 40.9375 10.546875 
Q 45.796875 14.203125 45.796875 21.1875 
Q 45.796875 27.640625 41.28125 31.265625 
Q 36.765625 34.90625 28.71875 34.90625 
L 20.21875 34.90625 
L 20.21875 43.015625 
L 29.109375 43.015625 
Q 36.375 43.015625 40.234375 45.921875 
Q 44.09375 48.828125 44.09375 54.296875 
Q 44.09375 59.90625 40.109375 62.90625 
Q 36.140625 65.921875 28.71875 65.921875 
Q 24.65625 65.921875 20.015625 65.03125 
Q 15.375 64.15625 9.8125 62.3125 
L 9.8125 71.09375 
Q 15.4375 72.65625 20.34375 73.4375 
Q 25.25 74.21875 29.59375 74.21875 
Q 40.828125 74.21875 47.359375 69.109375 
Q 53.90625 64.015625 53.90625 55.328125 
Q 53.90625 49.265625 50.4375 45.09375 
Q 46.96875 40.921875 40.578125 39.3125 
z
" id="DejaVuSans-51"/>
    </defs>
    <g transform="translate(488.7833 197.558738)scale(0.030976 -0.030976)">
     <use xlink:href="#DejaVuSans-115"/>
     <use x="52.099609" xlink:href="#DejaVuSans-97"/>
     <use x="113.378906" xlink:href="#DejaVuSans-109"/>
     <use x="210.791016" xlink:href="#DejaVuSans-112"/>
     <use x="274.267578" xlink:href="#DejaVuSans-108"/>
     <use x="302.050781" xlink:href="#DejaVuSans-101"/>
     <use x="363.574219" xlink:href="#DejaVuSans-115"/>
     <use x="415.673828" xlink:href="#DejaVuSans-32"/>
     <use x="447.460938" xlink:href="#DejaVuSans-61"/>
     <use x="531.25" xlink:href="#DejaVuSans-32"/>
     <use x="563.037109" xlink:href="#DejaVuSans-51"/>
    </g>
    <!-- value = [1, 0, 2] -->
    <g transform="translate(485.842292 201.027351)scale(0.030976 -0.030976)">
     <use xlink:href="#DejaVuSans-118"/>
     <use x="59.179688" xlink:href="#DejaVuSans-97"/>
     <use x="120.458984" xlink:href="#DejaVuSans-108"/>
     <use x="148.242188" xlink:href="#DejaVuSans-117"/>
     <use x="211.621094" xlink:href="#DejaVuSans-101"/>
     <use x="273.144531" xlink:href="#DejaVuSans-32"/>
     <use x="304.931641" xlink:href="#DejaVuSans-61"/>
     <use x="388.720703" xlink:href="#DejaVuSans-32"/>
     <use x="420.507812" xlink:href="#DejaVuSans-91"/>
     <use x="459.521484" xlink:href="#DejaVuSans-49"/>
     <use x="523.144531" xlink:href="#DejaVuSans-44"/>
     <use x="554.931641" xlink:href="#DejaVuSans-32"/>
     <use x="586.71875" xlink:href="#DejaVuSans-48"/>
     <use x="650.341797" xlink:href="#DejaVuSans-44"/>
     <use x="682.128906" xlink:href="#DejaVuSans-32"/>
     <use x="713.916016" xlink:href="#DejaVuSans-50"/>
     <use x="777.539062" xlink:href="#DejaVuSans-93"/>
    </g>
   </g>
   <g id="patch_14">
    <path d="M 237.649556 112.914636 
Q 284.106897 81.758246 331.492789 49.979126 
" style="fill:none;stroke:#000000;stroke-linecap:round;"/>
    <path d="M 239.023661 112.739035 
L 237.649556 112.914636 
L 238.333538 111.709991 
" style="fill:none;stroke:#000000;stroke-linecap:round;"/>
   </g>
   <g id="text_7">
    <g id="patch_15">
     <path d="M 185.273778 130.41513 
L 260.592888 130.41513 
Q 261.522162 130.41513 261.522162 129.485856 
L 261.522162 116.082144 
Q 261.522162 115.15287 260.592888 115.15287 
L 185.273778 115.15287 
Q 184.344504 115.15287 184.344504 116.082144 
L 184.344504 129.485856 
Q 184.344504 130.41513 185.273778 130.41513 
z
" style="fill:#965ae9;stroke:#000000;stroke-linejoin:miter;"/>
    </g>
    <!-- Standard deviation of label cardinality &lt;= 0.431 -->
    <defs>
     <path d="M 53.515625 70.515625 
L 53.515625 60.890625 
Q 47.90625 63.578125 42.921875 64.890625 
Q 37.9375 66.21875 33.296875 66.21875 
Q 25.25 66.21875 20.875 63.09375 
Q 16.5 59.96875 16.5 54.203125 
Q 16.5 49.359375 19.40625 46.890625 
Q 22.3125 44.4375 30.421875 42.921875 
L 36.375 41.703125 
Q 47.40625 39.59375 52.65625 34.296875 
Q 57.90625 29 57.90625 20.125 
Q 57.90625 9.515625 50.796875 4.046875 
Q 43.703125 -1.421875 29.984375 -1.421875 
Q 24.8125 -1.421875 18.96875 -0.25 
Q 13.140625 0.921875 6.890625 3.21875 
L 6.890625 13.375 
Q 12.890625 10.015625 18.65625 8.296875 
Q 24.421875 6.59375 29.984375 6.59375 
Q 38.421875 6.59375 43.015625 9.90625 
Q 47.609375 13.234375 47.609375 19.390625 
Q 47.609375 24.75 44.3125 27.78125 
Q 41.015625 30.8125 33.5 32.328125 
L 27.484375 33.5 
Q 16.453125 35.6875 11.515625 40.375 
Q 6.59375 45.0625 6.59375 53.421875 
Q 6.59375 63.09375 13.40625 68.65625 
Q 20.21875 74.21875 32.171875 74.21875 
Q 37.3125 74.21875 42.625 73.28125 
Q 47.953125 72.359375 53.515625 70.515625 
z
" id="DejaVuSans-83"/>
     <path d="M 45.40625 46.390625 
L 45.40625 75.984375 
L 54.390625 75.984375 
L 54.390625 0 
L 45.40625 0 
L 45.40625 8.203125 
Q 42.578125 3.328125 38.25 0.953125 
Q 33.9375 -1.421875 27.875 -1.421875 
Q 17.96875 -1.421875 11.734375 6.484375 
Q 5.515625 14.40625 5.515625 27.296875 
Q 5.515625 40.1875 11.734375 48.09375 
Q 17.96875 56 27.875 56 
Q 33.9375 56 38.25 53.625 
Q 42.578125 51.265625 45.40625 46.390625 
z
M 14.796875 27.296875 
Q 14.796875 17.390625 18.875 11.75 
Q 22.953125 6.109375 30.078125 6.109375 
Q 37.203125 6.109375 41.296875 11.75 
Q 45.40625 17.390625 45.40625 27.296875 
Q 45.40625 37.203125 41.296875 42.84375 
Q 37.203125 48.484375 30.078125 48.484375 
Q 22.953125 48.484375 18.875 42.84375 
Q 14.796875 37.203125 14.796875 27.296875 
z
" id="DejaVuSans-100"/>
     <path d="M 48.78125 52.59375 
L 48.78125 44.1875 
Q 44.96875 46.296875 41.140625 47.34375 
Q 37.3125 48.390625 33.40625 48.390625 
Q 24.65625 48.390625 19.8125 42.84375 
Q 14.984375 37.3125 14.984375 27.296875 
Q 14.984375 17.28125 19.8125 11.734375 
Q 24.65625 6.203125 33.40625 6.203125 
Q 37.3125 6.203125 41.140625 7.25 
Q 44.96875 8.296875 48.78125 10.40625 
L 48.78125 2.09375 
Q 45.015625 0.34375 40.984375 -0.53125 
Q 36.96875 -1.421875 32.421875 -1.421875 
Q 20.0625 -1.421875 12.78125 6.34375 
Q 5.515625 14.109375 5.515625 27.296875 
Q 5.515625 40.671875 12.859375 48.328125 
Q 20.21875 56 33.015625 56 
Q 37.15625 56 41.109375 55.140625 
Q 45.0625 54.296875 48.78125 52.59375 
z
" id="DejaVuSans-99"/>
     <path d="M 32.171875 -5.078125 
Q 28.375 -14.84375 24.75 -17.8125 
Q 21.140625 -20.796875 15.09375 -20.796875 
L 7.90625 -20.796875 
L 7.90625 -13.28125 
L 13.1875 -13.28125 
Q 16.890625 -13.28125 18.9375 -11.515625 
Q 21 -9.765625 23.484375 -3.21875 
L 25.09375 0.875 
L 2.984375 54.6875 
L 12.5 54.6875 
L 29.59375 11.921875 
L 46.6875 54.6875 
L 56.203125 54.6875 
z
" id="DejaVuSans-121"/>
    </defs>
    <g transform="translate(185.273778 118.43582)scale(0.030976 -0.030976)">
     <use xlink:href="#DejaVuSans-83"/>
     <use x="63.476562" xlink:href="#DejaVuSans-116"/>
     <use x="102.685547" xlink:href="#DejaVuSans-97"/>
     <use x="163.964844" xlink:href="#DejaVuSans-110"/>
     <use x="227.34375" xlink:href="#DejaVuSans-100"/>
     <use x="290.820312" xlink:href="#DejaVuSans-97"/>
     <use x="352.099609" xlink:href="#DejaVuSans-114"/>
     <use x="393.197266" xlink:href="#DejaVuSans-100"/>
     <use x="456.673828" xlink:href="#DejaVuSans-32"/>
     <use x="488.460938" xlink:href="#DejaVuSans-100"/>
     <use x="551.9375" xlink:href="#DejaVuSans-101"/>
     <use x="613.460938" xlink:href="#DejaVuSans-118"/>
     <use x="672.640625" xlink:href="#DejaVuSans-105"/>
     <use x="700.423828" xlink:href="#DejaVuSans-97"/>
     <use x="761.703125" xlink:href="#DejaVuSans-116"/>
     <use x="800.912109" xlink:href="#DejaVuSans-105"/>
     <use x="828.695312" xlink:href="#DejaVuSans-111"/>
     <use x="889.876953" xlink:href="#DejaVuSans-110"/>
     <use x="953.255859" xlink:href="#DejaVuSans-32"/>
     <use x="985.042969" xlink:href="#DejaVuSans-111"/>
     <use x="1046.224609" xlink:href="#DejaVuSans-102"/>
     <use x="1081.429688" xlink:href="#DejaVuSans-32"/>
     <use x="1113.216797" xlink:href="#DejaVuSans-108"/>
     <use x="1141" xlink:href="#DejaVuSans-97"/>
     <use x="1202.279297" xlink:href="#DejaVuSans-98"/>
     <use x="1265.755859" xlink:href="#DejaVuSans-101"/>
     <use x="1327.279297" xlink:href="#DejaVuSans-108"/>
     <use x="1355.0625" xlink:href="#DejaVuSans-32"/>
     <use x="1386.849609" xlink:href="#DejaVuSans-99"/>
     <use x="1441.830078" xlink:href="#DejaVuSans-97"/>
     <use x="1503.109375" xlink:href="#DejaVuSans-114"/>
     <use x="1544.207031" xlink:href="#DejaVuSans-100"/>
     <use x="1607.683594" xlink:href="#DejaVuSans-105"/>
     <use x="1635.466797" xlink:href="#DejaVuSans-110"/>
     <use x="1698.845703" xlink:href="#DejaVuSans-97"/>
     <use x="1760.125" xlink:href="#DejaVuSans-108"/>
     <use x="1787.908203" xlink:href="#DejaVuSans-105"/>
     <use x="1815.691406" xlink:href="#DejaVuSans-116"/>
     <use x="1854.900391" xlink:href="#DejaVuSans-121"/>
     <use x="1914.080078" xlink:href="#DejaVuSans-32"/>
     <use x="1945.867188" xlink:href="#DejaVuSans-60"/>
     <use x="2029.65625" xlink:href="#DejaVuSans-61"/>
     <use x="2113.445312" xlink:href="#DejaVuSans-32"/>
     <use x="2145.232422" xlink:href="#DejaVuSans-48"/>
     <use x="2208.855469" xlink:href="#DejaVuSans-46"/>
     <use x="2240.642578" xlink:href="#DejaVuSans-52"/>
     <use x="2304.265625" xlink:href="#DejaVuSans-51"/>
     <use x="2367.888672" xlink:href="#DejaVuSans-49"/>
    </g>
    <!-- gini = 0.245 -->
    <g transform="translate(213.391819 121.904432)scale(0.030976 -0.030976)">
     <use xlink:href="#DejaVuSans-103"/>
     <use x="63.476562" xlink:href="#DejaVuSans-105"/>
     <use x="91.259766" xlink:href="#DejaVuSans-110"/>
     <use x="154.638672" xlink:href="#DejaVuSans-105"/>
     <use x="182.421875" xlink:href="#DejaVuSans-32"/>
     <use x="214.208984" xlink:href="#DejaVuSans-61"/>
     <use x="297.998047" xlink:href="#DejaVuSans-32"/>
     <use x="329.785156" xlink:href="#DejaVuSans-48"/>
     <use x="393.408203" xlink:href="#DejaVuSans-46"/>
     <use x="425.195312" xlink:href="#DejaVuSans-50"/>
     <use x="488.818359" xlink:href="#DejaVuSans-52"/>
     <use x="552.441406" xlink:href="#DejaVuSans-53"/>
    </g>
    <!-- samples = 21 -->
    <g transform="translate(212.242326 125.373044)scale(0.030976 -0.030976)">
     <use xlink:href="#DejaVuSans-115"/>
     <use x="52.099609" xlink:href="#DejaVuSans-97"/>
     <use x="113.378906" xlink:href="#DejaVuSans-109"/>
     <use x="210.791016" xlink:href="#DejaVuSans-112"/>
     <use x="274.267578" xlink:href="#DejaVuSans-108"/>
     <use x="302.050781" xlink:href="#DejaVuSans-101"/>
     <use x="363.574219" xlink:href="#DejaVuSans-115"/>
     <use x="415.673828" xlink:href="#DejaVuSans-32"/>
     <use x="447.460938" xlink:href="#DejaVuSans-61"/>
     <use x="531.25" xlink:href="#DejaVuSans-32"/>
     <use x="563.037109" xlink:href="#DejaVuSans-50"/>
     <use x="626.660156" xlink:href="#DejaVuSans-49"/>
    </g>
    <!-- value = [0, 3, 18] -->
    <g transform="translate(209.301319 128.841657)scale(0.030976 -0.030976)">
     <use xlink:href="#DejaVuSans-118"/>
     <use x="59.179688" xlink:href="#DejaVuSans-97"/>
     <use x="120.458984" xlink:href="#DejaVuSans-108"/>
     <use x="148.242188" xlink:href="#DejaVuSans-117"/>
     <use x="211.621094" xlink:href="#DejaVuSans-101"/>
     <use x="273.144531" xlink:href="#DejaVuSans-32"/>
     <use x="304.931641" xlink:href="#DejaVuSans-61"/>
     <use x="388.720703" xlink:href="#DejaVuSans-32"/>
     <use x="420.507812" xlink:href="#DejaVuSans-91"/>
     <use x="459.521484" xlink:href="#DejaVuSans-48"/>
     <use x="523.144531" xlink:href="#DejaVuSans-44"/>
     <use x="554.931641" xlink:href="#DejaVuSans-32"/>
     <use x="586.71875" xlink:href="#DejaVuSans-51"/>
     <use x="650.341797" xlink:href="#DejaVuSans-44"/>
     <use x="682.128906" xlink:href="#DejaVuSans-32"/>
     <use x="713.916016" xlink:href="#DejaVuSans-49"/>
     <use x="777.539062" xlink:href="#DejaVuSans-56"/>
     <use x="841.162109" xlink:href="#DejaVuSans-93"/>
    </g>
   </g>
   <g id="patch_16">
    <path d="M 428.661555 112.914636 
Q 382.204214 81.758246 334.818322 49.979126 
" style="fill:none;stroke:#000000;stroke-linecap:round;"/>
    <path d="M 427.977573 111.709991 
L 428.661555 112.914636 
L 427.28745 112.739035 
" style="fill:none;stroke:#000000;stroke-linecap:round;"/>
   </g>
   <g id="text_8">
    <g id="patch_17">
     <path d="M 428.473578 130.41513 
L 458.281978 130.41513 
Q 459.211252 130.41513 459.211252 129.485856 
L 459.211252 116.082144 
Q 459.211252 115.15287 458.281978 115.15287 
L 428.473578 115.15287 
Q 427.544304 115.15287 427.544304 116.082144 
L 427.544304 129.485856 
Q 427.544304 130.41513 428.473578 130.41513 
z
" style="fill:#83efb0;stroke:#000000;stroke-linejoin:miter;"/>
    </g>
    <!-- Diversity &lt;= 0.627 -->
    <defs>
     <path d="M 19.671875 64.796875 
L 19.671875 8.109375 
L 31.59375 8.109375 
Q 46.6875 8.109375 53.6875 14.9375 
Q 60.6875 21.78125 60.6875 36.53125 
Q 60.6875 51.171875 53.6875 57.984375 
Q 46.6875 64.796875 31.59375 64.796875 
z
M 9.8125 72.90625 
L 30.078125 72.90625 
Q 51.265625 72.90625 61.171875 64.09375 
Q 71.09375 55.28125 71.09375 36.53125 
Q 71.09375 17.671875 61.125 8.828125 
Q 51.171875 0 30.078125 0 
L 9.8125 0 
z
" id="DejaVuSans-68"/>
    </defs>
    <g transform="translate(428.473578 118.43582)scale(0.030976 -0.030976)">
     <use xlink:href="#DejaVuSans-68"/>
     <use x="77.001953" xlink:href="#DejaVuSans-105"/>
     <use x="104.785156" xlink:href="#DejaVuSans-118"/>
     <use x="163.964844" xlink:href="#DejaVuSans-101"/>
     <use x="225.488281" xlink:href="#DejaVuSans-114"/>
     <use x="266.601562" xlink:href="#DejaVuSans-115"/>
     <use x="318.701172" xlink:href="#DejaVuSans-105"/>
     <use x="346.484375" xlink:href="#DejaVuSans-116"/>
     <use x="385.693359" xlink:href="#DejaVuSans-121"/>
     <use x="444.873047" xlink:href="#DejaVuSans-32"/>
     <use x="476.660156" xlink:href="#DejaVuSans-60"/>
     <use x="560.449219" xlink:href="#DejaVuSans-61"/>
     <use x="644.238281" xlink:href="#DejaVuSans-32"/>
     <use x="676.025391" xlink:href="#DejaVuSans-48"/>
     <use x="739.648438" xlink:href="#DejaVuSans-46"/>
     <use x="771.435547" xlink:href="#DejaVuSans-54"/>
     <use x="835.058594" xlink:href="#DejaVuSans-50"/>
     <use x="898.681641" xlink:href="#DejaVuSans-55"/>
    </g>
    <!-- gini = 0.46 -->
    <g transform="translate(434.821681 121.904432)scale(0.030976 -0.030976)">
     <use xlink:href="#DejaVuSans-103"/>
     <use x="63.476562" xlink:href="#DejaVuSans-105"/>
     <use x="91.259766" xlink:href="#DejaVuSans-110"/>
     <use x="154.638672" xlink:href="#DejaVuSans-105"/>
     <use x="182.421875" xlink:href="#DejaVuSans-32"/>
     <use x="214.208984" xlink:href="#DejaVuSans-61"/>
     <use x="297.998047" xlink:href="#DejaVuSans-32"/>
     <use x="329.785156" xlink:href="#DejaVuSans-48"/>
     <use x="393.408203" xlink:href="#DejaVuSans-46"/>
     <use x="425.195312" xlink:href="#DejaVuSans-52"/>
     <use x="488.818359" xlink:href="#DejaVuSans-54"/>
    </g>
    <!-- samples = 10 -->
    <g transform="translate(432.686771 125.373044)scale(0.030976 -0.030976)">
     <use xlink:href="#DejaVuSans-115"/>
     <use x="52.099609" xlink:href="#DejaVuSans-97"/>
     <use x="113.378906" xlink:href="#DejaVuSans-109"/>
     <use x="210.791016" xlink:href="#DejaVuSans-112"/>
     <use x="274.267578" xlink:href="#DejaVuSans-108"/>
     <use x="302.050781" xlink:href="#DejaVuSans-101"/>
     <use x="363.574219" xlink:href="#DejaVuSans-115"/>
     <use x="415.673828" xlink:href="#DejaVuSans-32"/>
     <use x="447.460938" xlink:href="#DejaVuSans-61"/>
     <use x="531.25" xlink:href="#DejaVuSans-32"/>
     <use x="563.037109" xlink:href="#DejaVuSans-49"/>
     <use x="626.660156" xlink:href="#DejaVuSans-48"/>
    </g>
    <!-- value = [1, 7, 2] -->
    <g transform="translate(430.731181 128.841657)scale(0.030976 -0.030976)">
     <use xlink:href="#DejaVuSans-118"/>
     <use x="59.179688" xlink:href="#DejaVuSans-97"/>
     <use x="120.458984" xlink:href="#DejaVuSans-108"/>
     <use x="148.242188" xlink:href="#DejaVuSans-117"/>
     <use x="211.621094" xlink:href="#DejaVuSans-101"/>
     <use x="273.144531" xlink:href="#DejaVuSans-32"/>
     <use x="304.931641" xlink:href="#DejaVuSans-61"/>
     <use x="388.720703" xlink:href="#DejaVuSans-32"/>
     <use x="420.507812" xlink:href="#DejaVuSans-91"/>
     <use x="459.521484" xlink:href="#DejaVuSans-49"/>
     <use x="523.144531" xlink:href="#DejaVuSans-44"/>
     <use x="554.931641" xlink:href="#DejaVuSans-32"/>
     <use x="586.71875" xlink:href="#DejaVuSans-55"/>
     <use x="650.341797" xlink:href="#DejaVuSans-44"/>
     <use x="682.128906" xlink:href="#DejaVuSans-32"/>
     <use x="713.916016" xlink:href="#DejaVuSans-50"/>
     <use x="777.539062" xlink:href="#DejaVuSans-93"/>
    </g>
   </g>
   <g id="patch_18">
    <path d="M 229.56648 39.967025 
Q 252.87365 8.705343 276.849085 -23.452676 
" style="fill:none;stroke:#000000;stroke-linecap:round;"/>
    <path d="M 230.803739 39.343975 
L 229.56648 39.967025 
L 229.810396 38.603388 
" style="fill:none;stroke:#000000;stroke-linecap:round;"/>
   </g>
   <g id="text_9">
    <g id="patch_19">
     <path d="M 210.286737 54.760824 
L 235.57993 54.760824 
Q 236.509204 54.760824 236.509204 53.83155 
L 236.509204 43.89645 
Q 236.509204 42.967176 235.57993 42.967176 
L 210.286737 42.967176 
Q 209.357463 42.967176 209.357463 43.89645 
L 209.357463 53.83155 
Q 209.357463 54.760824 210.286737 54.760824 
z
" style="fill:#72eca5;stroke:#000000;stroke-linejoin:miter;"/>
    </g>
    <!-- gini = 0.346 -->
    <g transform="translate(213.391819 46.250126)scale(0.030976 -0.030976)">
     <use xlink:href="#DejaVuSans-103"/>
     <use x="63.476562" xlink:href="#DejaVuSans-105"/>
     <use x="91.259766" xlink:href="#DejaVuSans-110"/>
     <use x="154.638672" xlink:href="#DejaVuSans-105"/>
     <use x="182.421875" xlink:href="#DejaVuSans-32"/>
     <use x="214.208984" xlink:href="#DejaVuSans-61"/>
     <use x="297.998047" xlink:href="#DejaVuSans-32"/>
     <use x="329.785156" xlink:href="#DejaVuSans-48"/>
     <use x="393.408203" xlink:href="#DejaVuSans-46"/>
     <use x="425.195312" xlink:href="#DejaVuSans-51"/>
     <use x="488.818359" xlink:href="#DejaVuSans-52"/>
     <use x="552.441406" xlink:href="#DejaVuSans-54"/>
    </g>
    <!-- samples = 9 -->
    <defs>
     <path d="M 10.984375 1.515625 
L 10.984375 10.5 
Q 14.703125 8.734375 18.5 7.8125 
Q 22.3125 6.890625 25.984375 6.890625 
Q 35.75 6.890625 40.890625 13.453125 
Q 46.046875 20.015625 46.78125 33.40625 
Q 43.953125 29.203125 39.59375 26.953125 
Q 35.25 24.703125 29.984375 24.703125 
Q 19.046875 24.703125 12.671875 31.3125 
Q 6.296875 37.9375 6.296875 49.421875 
Q 6.296875 60.640625 12.9375 67.421875 
Q 19.578125 74.21875 30.609375 74.21875 
Q 43.265625 74.21875 49.921875 64.515625 
Q 56.59375 54.828125 56.59375 36.375 
Q 56.59375 19.140625 48.40625 8.859375 
Q 40.234375 -1.421875 26.421875 -1.421875 
Q 22.703125 -1.421875 18.890625 -0.6875 
Q 15.09375 0.046875 10.984375 1.515625 
z
M 30.609375 32.421875 
Q 37.25 32.421875 41.125 36.953125 
Q 45.015625 41.5 45.015625 49.421875 
Q 45.015625 57.28125 41.125 61.84375 
Q 37.25 66.40625 30.609375 66.40625 
Q 23.96875 66.40625 20.09375 61.84375 
Q 16.21875 57.28125 16.21875 49.421875 
Q 16.21875 41.5 20.09375 36.953125 
Q 23.96875 32.421875 30.609375 32.421875 
z
" id="DejaVuSans-57"/>
    </defs>
    <g transform="translate(213.227744 49.718738)scale(0.030976 -0.030976)">
     <use xlink:href="#DejaVuSans-115"/>
     <use x="52.099609" xlink:href="#DejaVuSans-97"/>
     <use x="113.378906" xlink:href="#DejaVuSans-109"/>
     <use x="210.791016" xlink:href="#DejaVuSans-112"/>
     <use x="274.267578" xlink:href="#DejaVuSans-108"/>
     <use x="302.050781" xlink:href="#DejaVuSans-101"/>
     <use x="363.574219" xlink:href="#DejaVuSans-115"/>
     <use x="415.673828" xlink:href="#DejaVuSans-32"/>
     <use x="447.460938" xlink:href="#DejaVuSans-61"/>
     <use x="531.25" xlink:href="#DejaVuSans-32"/>
     <use x="563.037109" xlink:href="#DejaVuSans-57"/>
    </g>
    <!-- value = [2, 7, 0] -->
    <g transform="translate(210.286737 53.187351)scale(0.030976 -0.030976)">
     <use xlink:href="#DejaVuSans-118"/>
     <use x="59.179688" xlink:href="#DejaVuSans-97"/>
     <use x="120.458984" xlink:href="#DejaVuSans-108"/>
     <use x="148.242188" xlink:href="#DejaVuSans-117"/>
     <use x="211.621094" xlink:href="#DejaVuSans-101"/>
     <use x="273.144531" xlink:href="#DejaVuSans-32"/>
     <use x="304.931641" xlink:href="#DejaVuSans-61"/>
     <use x="388.720703" xlink:href="#DejaVuSans-32"/>
     <use x="420.507812" xlink:href="#DejaVuSans-91"/>
     <use x="459.521484" xlink:href="#DejaVuSans-50"/>
     <use x="523.144531" xlink:href="#DejaVuSans-44"/>
     <use x="554.931641" xlink:href="#DejaVuSans-32"/>
     <use x="586.71875" xlink:href="#DejaVuSans-55"/>
     <use x="650.341797" xlink:href="#DejaVuSans-44"/>
     <use x="682.128906" xlink:href="#DejaVuSans-32"/>
     <use x="713.916016" xlink:href="#DejaVuSans-48"/>
     <use x="777.539062" xlink:href="#DejaVuSans-93"/>
    </g>
   </g>
   <g id="patch_20">
    <path d="M 325.228229 38.231154 
Q 302.567744 7.836864 279.238993 -23.453763 
" style="fill:none;stroke:#000000;stroke-linecap:round;"/>
    <path d="M 324.984313 36.867517 
L 325.228229 38.231154 
L 323.99097 37.608104 
" style="fill:none;stroke:#000000;stroke-linecap:round;"/>
   </g>
   <g id="text_10">
    <g id="patch_21">
     <path d="M 294.384502 56.49513 
L 371.926609 56.49513 
Q 372.855883 56.49513 372.855883 55.565856 
L 372.855883 42.162144 
Q 372.855883 41.23287 371.926609 41.23287 
L 294.384502 41.23287 
Q 293.455228 41.23287 293.455228 42.162144 
L 293.455228 55.565856 
Q 293.455228 56.49513 294.384502 56.49513 
z
" style="fill:#c3a1f3;stroke:#000000;stroke-linejoin:miter;"/>
    </g>
    <!-- Mean of entropies of nominal attributes &lt;= 0.006 -->
    <defs>
     <path d="M 9.8125 72.90625 
L 24.515625 72.90625 
L 43.109375 23.296875 
L 61.8125 72.90625 
L 76.515625 72.90625 
L 76.515625 0 
L 66.890625 0 
L 66.890625 64.015625 
L 48.09375 14.015625 
L 38.1875 14.015625 
L 19.390625 64.015625 
L 19.390625 0 
L 9.8125 0 
z
" id="DejaVuSans-77"/>
    </defs>
    <g transform="translate(294.384502 44.51582)scale(0.030976 -0.030976)">
     <use xlink:href="#DejaVuSans-77"/>
     <use x="86.279297" xlink:href="#DejaVuSans-101"/>
     <use x="147.802734" xlink:href="#DejaVuSans-97"/>
     <use x="209.082031" xlink:href="#DejaVuSans-110"/>
     <use x="272.460938" xlink:href="#DejaVuSans-32"/>
     <use x="304.248047" xlink:href="#DejaVuSans-111"/>
     <use x="365.429688" xlink:href="#DejaVuSans-102"/>
     <use x="400.634766" xlink:href="#DejaVuSans-32"/>
     <use x="432.421875" xlink:href="#DejaVuSans-101"/>
     <use x="493.945312" xlink:href="#DejaVuSans-110"/>
     <use x="557.324219" xlink:href="#DejaVuSans-116"/>
     <use x="596.533203" xlink:href="#DejaVuSans-114"/>
     <use x="637.615234" xlink:href="#DejaVuSans-111"/>
     <use x="698.796875" xlink:href="#DejaVuSans-112"/>
     <use x="762.273438" xlink:href="#DejaVuSans-105"/>
     <use x="790.056641" xlink:href="#DejaVuSans-101"/>
     <use x="851.580078" xlink:href="#DejaVuSans-115"/>
     <use x="903.679688" xlink:href="#DejaVuSans-32"/>
     <use x="935.466797" xlink:href="#DejaVuSans-111"/>
     <use x="996.648438" xlink:href="#DejaVuSans-102"/>
     <use x="1031.853516" xlink:href="#DejaVuSans-32"/>
     <use x="1063.640625" xlink:href="#DejaVuSans-110"/>
     <use x="1127.019531" xlink:href="#DejaVuSans-111"/>
     <use x="1188.201172" xlink:href="#DejaVuSans-109"/>
     <use x="1285.613281" xlink:href="#DejaVuSans-105"/>
     <use x="1313.396484" xlink:href="#DejaVuSans-110"/>
     <use x="1376.775391" xlink:href="#DejaVuSans-97"/>
     <use x="1438.054688" xlink:href="#DejaVuSans-108"/>
     <use x="1465.837891" xlink:href="#DejaVuSans-32"/>
     <use x="1497.625" xlink:href="#DejaVuSans-97"/>
     <use x="1558.904297" xlink:href="#DejaVuSans-116"/>
     <use x="1598.113281" xlink:href="#DejaVuSans-116"/>
     <use x="1637.322266" xlink:href="#DejaVuSans-114"/>
     <use x="1678.435547" xlink:href="#DejaVuSans-105"/>
     <use x="1706.21875" xlink:href="#DejaVuSans-98"/>
     <use x="1769.695312" xlink:href="#DejaVuSans-117"/>
     <use x="1833.074219" xlink:href="#DejaVuSans-116"/>
     <use x="1872.283203" xlink:href="#DejaVuSans-101"/>
     <use x="1933.806641" xlink:href="#DejaVuSans-115"/>
     <use x="1985.90625" xlink:href="#DejaVuSans-32"/>
     <use x="2017.693359" xlink:href="#DejaVuSans-60"/>
     <use x="2101.482422" xlink:href="#DejaVuSans-61"/>
     <use x="2185.271484" xlink:href="#DejaVuSans-32"/>
     <use x="2217.058594" xlink:href="#DejaVuSans-48"/>
     <use x="2280.681641" xlink:href="#DejaVuSans-46"/>
     <use x="2312.46875" xlink:href="#DejaVuSans-48"/>
     <use x="2376.091797" xlink:href="#DejaVuSans-48"/>
     <use x="2439.714844" xlink:href="#DejaVuSans-54"/>
    </g>
    <!-- gini = 0.479 -->
    <g transform="translate(323.614041 47.984432)scale(0.030976 -0.030976)">
     <use xlink:href="#DejaVuSans-103"/>
     <use x="63.476562" xlink:href="#DejaVuSans-105"/>
     <use x="91.259766" xlink:href="#DejaVuSans-110"/>
     <use x="154.638672" xlink:href="#DejaVuSans-105"/>
     <use x="182.421875" xlink:href="#DejaVuSans-32"/>
     <use x="214.208984" xlink:href="#DejaVuSans-61"/>
     <use x="297.998047" xlink:href="#DejaVuSans-32"/>
     <use x="329.785156" xlink:href="#DejaVuSans-48"/>
     <use x="393.408203" xlink:href="#DejaVuSans-46"/>
     <use x="425.195312" xlink:href="#DejaVuSans-52"/>
     <use x="488.818359" xlink:href="#DejaVuSans-55"/>
     <use x="552.441406" xlink:href="#DejaVuSans-57"/>
    </g>
    <!-- samples = 31 -->
    <g transform="translate(322.464549 51.453044)scale(0.030976 -0.030976)">
     <use xlink:href="#DejaVuSans-115"/>
     <use x="52.099609" xlink:href="#DejaVuSans-97"/>
     <use x="113.378906" xlink:href="#DejaVuSans-109"/>
     <use x="210.791016" xlink:href="#DejaVuSans-112"/>
     <use x="274.267578" xlink:href="#DejaVuSans-108"/>
     <use x="302.050781" xlink:href="#DejaVuSans-101"/>
     <use x="363.574219" xlink:href="#DejaVuSans-115"/>
     <use x="415.673828" xlink:href="#DejaVuSans-32"/>
     <use x="447.460938" xlink:href="#DejaVuSans-61"/>
     <use x="531.25" xlink:href="#DejaVuSans-32"/>
     <use x="563.037109" xlink:href="#DejaVuSans-51"/>
     <use x="626.660156" xlink:href="#DejaVuSans-49"/>
    </g>
    <!-- value = [1, 10, 20] -->
    <g transform="translate(318.538124 54.921657)scale(0.030976 -0.030976)">
     <use xlink:href="#DejaVuSans-118"/>
     <use x="59.179688" xlink:href="#DejaVuSans-97"/>
     <use x="120.458984" xlink:href="#DejaVuSans-108"/>
     <use x="148.242188" xlink:href="#DejaVuSans-117"/>
     <use x="211.621094" xlink:href="#DejaVuSans-101"/>
     <use x="273.144531" xlink:href="#DejaVuSans-32"/>
     <use x="304.931641" xlink:href="#DejaVuSans-61"/>
     <use x="388.720703" xlink:href="#DejaVuSans-32"/>
     <use x="420.507812" xlink:href="#DejaVuSans-91"/>
     <use x="459.521484" xlink:href="#DejaVuSans-49"/>
     <use x="523.144531" xlink:href="#DejaVuSans-44"/>
     <use x="554.931641" xlink:href="#DejaVuSans-32"/>
     <use x="586.71875" xlink:href="#DejaVuSans-49"/>
     <use x="650.341797" xlink:href="#DejaVuSans-48"/>
     <use x="713.964844" xlink:href="#DejaVuSans-44"/>
     <use x="745.751953" xlink:href="#DejaVuSans-32"/>
     <use x="777.539062" xlink:href="#DejaVuSans-50"/>
     <use x="841.162109" xlink:href="#DejaVuSans-48"/>
     <use x="904.785156" xlink:href="#DejaVuSans-93"/>
    </g>
   </g>
   <g id="text_11">
    <g id="patch_22">
     <path d="M 249.96222 -17.42487 
L 306.126669 -17.42487 
Q 307.055943 -17.42487 307.055943 -18.354144 
L 307.055943 -31.757856 
Q 307.055943 -32.68713 306.126669 -32.68713 
L 249.96222 -32.68713 
Q 249.032946 -32.68713 249.032946 -31.757856 
L 249.032946 -18.354144 
Q 249.032946 -17.42487 249.96222 -17.42487 
z
" style="fill:#efe5fc;stroke:#000000;stroke-linejoin:miter;"/>
    </g>
    <!-- Maximal entropy of labels &lt;= 0.652 -->
    <g transform="translate(249.96222 -29.40418)scale(0.030976 -0.030976)">
     <use xlink:href="#DejaVuSans-77"/>
     <use x="86.279297" xlink:href="#DejaVuSans-97"/>
     <use x="147.558594" xlink:href="#DejaVuSans-120"/>
     <use x="206.738281" xlink:href="#DejaVuSans-105"/>
     <use x="234.521484" xlink:href="#DejaVuSans-109"/>
     <use x="331.933594" xlink:href="#DejaVuSans-97"/>
     <use x="393.212891" xlink:href="#DejaVuSans-108"/>
     <use x="420.996094" xlink:href="#DejaVuSans-32"/>
     <use x="452.783203" xlink:href="#DejaVuSans-101"/>
     <use x="514.306641" xlink:href="#DejaVuSans-110"/>
     <use x="577.685547" xlink:href="#DejaVuSans-116"/>
     <use x="616.894531" xlink:href="#DejaVuSans-114"/>
     <use x="657.976562" xlink:href="#DejaVuSans-111"/>
     <use x="719.158203" xlink:href="#DejaVuSans-112"/>
     <use x="782.634766" xlink:href="#DejaVuSans-121"/>
     <use x="841.814453" xlink:href="#DejaVuSans-32"/>
     <use x="873.601562" xlink:href="#DejaVuSans-111"/>
     <use x="934.783203" xlink:href="#DejaVuSans-102"/>
     <use x="969.988281" xlink:href="#DejaVuSans-32"/>
     <use x="1001.775391" xlink:href="#DejaVuSans-108"/>
     <use x="1029.558594" xlink:href="#DejaVuSans-97"/>
     <use x="1090.837891" xlink:href="#DejaVuSans-98"/>
     <use x="1154.314453" xlink:href="#DejaVuSans-101"/>
     <use x="1215.837891" xlink:href="#DejaVuSans-108"/>
     <use x="1243.621094" xlink:href="#DejaVuSans-115"/>
     <use x="1295.720703" xlink:href="#DejaVuSans-32"/>
     <use x="1327.507812" xlink:href="#DejaVuSans-60"/>
     <use x="1411.296875" xlink:href="#DejaVuSans-61"/>
     <use x="1495.085938" xlink:href="#DejaVuSans-32"/>
     <use x="1526.873047" xlink:href="#DejaVuSans-48"/>
     <use x="1590.496094" xlink:href="#DejaVuSans-46"/>
     <use x="1622.283203" xlink:href="#DejaVuSans-54"/>
     <use x="1685.90625" xlink:href="#DejaVuSans-53"/>
     <use x="1749.529297" xlink:href="#DejaVuSans-50"/>
    </g>
    <!-- gini = 0.564 -->
    <g transform="translate(268.50293 -25.935568)scale(0.030976 -0.030976)">
     <use xlink:href="#DejaVuSans-103"/>
     <use x="63.476562" xlink:href="#DejaVuSans-105"/>
     <use x="91.259766" xlink:href="#DejaVuSans-110"/>
     <use x="154.638672" xlink:href="#DejaVuSans-105"/>
     <use x="182.421875" xlink:href="#DejaVuSans-32"/>
     <use x="214.208984" xlink:href="#DejaVuSans-61"/>
     <use x="297.998047" xlink:href="#DejaVuSans-32"/>
     <use x="329.785156" xlink:href="#DejaVuSans-48"/>
     <use x="393.408203" xlink:href="#DejaVuSans-46"/>
     <use x="425.195312" xlink:href="#DejaVuSans-53"/>
     <use x="488.818359" xlink:href="#DejaVuSans-54"/>
     <use x="552.441406" xlink:href="#DejaVuSans-52"/>
    </g>
    <!-- samples = 40 -->
    <g transform="translate(267.353437 -22.466956)scale(0.030976 -0.030976)">
     <use xlink:href="#DejaVuSans-115"/>
     <use x="52.099609" xlink:href="#DejaVuSans-97"/>
     <use x="113.378906" xlink:href="#DejaVuSans-109"/>
     <use x="210.791016" xlink:href="#DejaVuSans-112"/>
     <use x="274.267578" xlink:href="#DejaVuSans-108"/>
     <use x="302.050781" xlink:href="#DejaVuSans-101"/>
     <use x="363.574219" xlink:href="#DejaVuSans-115"/>
     <use x="415.673828" xlink:href="#DejaVuSans-32"/>
     <use x="447.460938" xlink:href="#DejaVuSans-61"/>
     <use x="531.25" xlink:href="#DejaVuSans-32"/>
     <use x="563.037109" xlink:href="#DejaVuSans-52"/>
     <use x="626.660156" xlink:href="#DejaVuSans-48"/>
    </g>
    <!-- value = [3, 17, 20] -->
    <g transform="translate(263.427013 -18.998343)scale(0.030976 -0.030976)">
     <use xlink:href="#DejaVuSans-118"/>
     <use x="59.179688" xlink:href="#DejaVuSans-97"/>
     <use x="120.458984" xlink:href="#DejaVuSans-108"/>
     <use x="148.242188" xlink:href="#DejaVuSans-117"/>
     <use x="211.621094" xlink:href="#DejaVuSans-101"/>
     <use x="273.144531" xlink:href="#DejaVuSans-32"/>
     <use x="304.931641" xlink:href="#DejaVuSans-61"/>
     <use x="388.720703" xlink:href="#DejaVuSans-32"/>
     <use x="420.507812" xlink:href="#DejaVuSans-91"/>
     <use x="459.521484" xlink:href="#DejaVuSans-51"/>
     <use x="523.144531" xlink:href="#DejaVuSans-44"/>
     <use x="554.931641" xlink:href="#DejaVuSans-32"/>
     <use x="586.71875" xlink:href="#DejaVuSans-49"/>
     <use x="650.341797" xlink:href="#DejaVuSans-55"/>
     <use x="713.964844" xlink:href="#DejaVuSans-44"/>
     <use x="745.751953" xlink:href="#DejaVuSans-32"/>
     <use x="777.539062" xlink:href="#DejaVuSans-50"/>
     <use x="841.162109" xlink:href="#DejaVuSans-48"/>
     <use x="904.785156" xlink:href="#DejaVuSans-93"/>
    </g>
   </g>
  </g>
 </g>
</svg>
